<?xml version="1.0" encoding="UTF-8"?>
<svg id="Layer_2" data-name="Layer 2" xmlns="http://www.w3.org/2000/svg" viewBox="0 0 380.11 404.88">
<style> 
.man {
    transform-origin: center;
    animation-name:transtX;
    transform-box: fill-box;
    animation-fill-mode: both;
    animation-duration: 9.5s;
    animation-iteration-count: infinite;
}

@keyframes  transtX{
	0% {
   transform: translateX(0px);
   }
	50% {
       transform: translateX(-30px);

   }
	100% { 
       transform: translateX(0px);

   }
}

.v1 {
  animation-name: sc-2;
  transform-box: fill-box;
  animation-fill-mode: both;
	animation-duration: 1.5s;
  transform-origin: right;
	animation-iteration-count: infinite;
  animation-delay: .2s;

}

.v2 {
  animation-delay: .4s;
  animation-name: sc-2;
  transform-box: fill-box;
  animation-fill-mode: both;
	animation-duration: 1.5s;
  transform-origin: right;
	animation-iteration-count: infinite;
}

.v3 {
  animation-delay: .6s;
  animation-name: sc-2;
  transform-box: fill-box;
  animation-fill-mode: both;
	animation-duration: 1.5s;
  transform-origin: right;
	animation-iteration-count: infinite;
}

.v4 {
  animation-delay: .8s;
  animation-name: sc-2;
  transform-box: fill-box;
  animation-fill-mode: both;
	animation-duration: 1.5s;
  transform-origin: right;
	animation-iteration-count: infinite;
}




@keyframes  sc-2 {
	0% {
   transform: scalex(1);
   }
	50% {
       transform: scaleX(0);

   }
	100% { 
       transform: scaleX(1);
   }
}

.g2 {
    animation-delay: .3s;

    animation-name: sc;
  transform-box: fill-box;
  animation-fill-mode: both;
	animation-duration: 2s;
  transform-origin: center;
     transform: scale(0)  rotate(360deg);

	animation-iteration-count: infinite;
}
@keyframes sc {
	0% {
   transform: scale(0)  rotate(360deg);
   }
	50% {
       transform: scale(1) rotate(0deg);
   }
	100% { 
       transform: scale(0) (360deg) ;
   }
}

.f1 {
    animation-name: flii;
    animation-delay: 0s;
	animation-duration: 2s;
  	animation-iteration-count: infinite;

  transform-origin: center;
}
.f2 {
    animation-name: flii;
    animation-delay: .2s;
	animation-iteration-count: infinite;

	animation-duration: 2s;
  transform-origin: center;
}
.f3 {
    animation-name: flii;
    animation-delay: .4s;
	animation-iteration-count: infinite;
  transform-box: fill-box;
  animation-fill-mode: both;
	animation-duration: 2s;
  transform-origin: center;
}


.f4 {
    animation-name: flii;
    animation-delay: .6s;
	animation-iteration-count: infinite;
	animation-duration: 2s;
  transform-origin: center;
}
.f5 {
    animation-name: flii;
    animation-delay: .8s;
	animation-iteration-count: infinite;
  transform-box: fill-box;
  animation-fill-mode: both;
	animation-duration: 2s;
  transform-origin: center;
}
.f6 {
    animation-name: flii;
    animation-delay: 1s;
	animation-iteration-count: infinite;
  transform-box: fill-box;
  animation-fill-mode: both;
	animation-duration: 2s;
  transform-origin: center;
}


@keyframes flii {
	0% {
 fill:#eff1f4;
 }
	50% {
 fill:#2b59a5;

   }
	100% { 
 fill:#eff1f4;
   }
}

.g5 {
    transform-origin: center;
    animation-name:transtY;
    transform-box: fill-box;
    animation-fill-mode: both;
    animation-duration: 4.5s;
    animation-iteration-count: infinite;
}

@keyframes  transtY{
	0% {
   transform: translateY(0px);
   }
	50% {
       transform: translateY(35px);

   }
	100% { 
       transform: translateY(0px);

   }
}

.g6 {
      transform-origin: center;
    animation-name:transtY1;
    transform-box: fill-box;
    animation-fill-mode: both;
    animation-duration: 3.5s;
    animation-iteration-count: infinite;
}


@keyframes  transtY1{
	0% {
   transform: translatex(0px);
   }
	50% {
       transform: translatex(10px);

   }
	100% { 
       transform: translateX(0px);

   }
}
</style>



  <g id="Layer_1-2" data-name="Layer 1">
    <path d="m91.29,119.18c39.86-40.14,27.65-64.73,54.93-83.32,41.97-28.59,121.11-4.55,167.32,34.78,56.6,48.17,85.81,136.13,52.54,215.7-35.43,84.74-128.65,128.73-211.83,115.47C79.97,389.99,8.2,333.1.89,262.86c-.8-7.61-5.55-50.45,19.01-85.93,20.3-29.33,39.79-25.93,71.39-57.75" fill="#a1d9f7"/>
    <path d="m253.57,259.31l-71.05.45c-.46,0-.61.43-.61.84v60.47c0,5.79-40.37,20.83-40.77,20.07l-.05,6.4c0,1.19,1.04,2.25,2.38,2.25h60.47c2.77,0,5.49-.62,8-1.67l32.76-13.8c5.9-2.48,9.61-7.82,9.61-13.64v-60.54c0-.41-.29-.84-.75-.84" fill="#7cc2ed"/>
    <path d="m174.71,256.24v60.48c0,5.96-3.84,11.4-9.86,13.97l-22.09,9.43c-1.44.61-.95,2.55.65,2.55h60.7c2.73,0,5.43-.54,7.9-1.57l24.48-10.31c6.07-2.56,9.94-8.02,9.94-14.01v-60.55c0-.25-.22-.45-.5-.45h-70.71c-.28,0-.51.2-.51.45" fill="#fff"/>
    <path d="m42.35,290.51l292.15.64h5.07s9.43.03,9.43.03c2.68,0,4.88-2.09,5.22-4.76l24.43-190.98c.59-4.65-2.79-9.03-7.47-9.03l-302.69.27-26.15,203.83"/>
    <path d="m359.84,86.36c5.27,0,9.55,5.31,8.88,10.55l-24.6,189.52c-.34,2.66-2.6,4.66-5.29,4.66l-2.3.09-298.23-.09c-3.21,0-5.69-2.83-5.28-6.03l25.1-193.38c.34-2.67,2.39-5.32,5.07-5.32h296.66" fill="#7cc2ed"/>
    <path d="m191.45,291.5c-.38,0-.69-.31-.69-.69s.31-.69.69-.69l147.47-.27c2.32,0,4.54-1.99,4.84-4.35l24.27-188.68c.3-2.31-.41-4.63-1.95-6.38-1.53-1.74-3.72-2.73-6.04-2.73h-49.95c-.38,0-.69-.31-.69-.69s.31-.69.69-.69h49.95c2.71,0,5.29,1.17,7.07,3.2,1.8,2.04,2.63,4.76,2.28,7.46l-24.28,188.69c-.4,3.06-3.18,5.55-6.2,5.55l-147.47.27h0"/>
    <g>
      <g>
        <path d="m271.3,43.47c-15.48,0-21.45,2.87-24.74,10.6-5.9,13.87-6.32,37.65-6.76,54.81h53.44c-.52-14.98,9.48-43.14.06-56.57-3.41-4.87-8.7-8.84-21.99-8.84Z" fill="#fff"/>
        <path d="m293.49,52.17c-3.1-4.42-8.17-8.95-22.19-8.95-15.25,0-21.55,2.71-24.96,10.75-5.73,13.48-6.32,36.48-6.74,53.27l-.04,1.63c0,.07.02.13.07.18.05.05.11.07.17.07m56.19-.49h-55.94l.03-1.38c.43-16.75,1.01-39.7,6.7-53.09,3.32-7.81,9.51-10.45,24.52-10.45,13.8,0,18.76,4.42,21.79,8.74"/>
      </g>
      <g>
        <g>
          <path d="m273.07,23.4s.63-8.02-3.32-10.46c-3.95-2.44-13.68.6-14.07,6.21-.13,1.94-.13,3.28-1.03,6.76-.9,3.47,1.07,12.17,8.87,12.17,0,0,.45,3.93-1.68,7.62,0,0,3.26,6.88,9.18,4.26,5.92-2.62,4.14-7.5,4.14-7.5,0,0-1.64-2.82-1.64-11.11,0,0,2.63-1.21,2.99-4.25.26-2.24-1.19-3.7-3.44-3.7Z" fill="#fff"/>
          <path d="m273.32,23.17c.07-1.43.22-8.16-3.45-10.43-.94-.58-2.22-.89-3.72-.89-4.83,0-10.43,2.99-10.72,7.29l-.04.66c-.1,1.61-.19,3.01-.98,6.05-.6,2.33.06,6.39,2.21,9.16,1.64,2.11,3.94,3.26,6.67,3.32.05.86.12,4.16-1.67,7.26-.04.07-.04.15,0,.23.1.2,2.42,4.99,6.77,4.99h0c.89,0,1.81-.21,2.73-.62,6.06-2.68,4.29-7.76,4.26-7.85-.02-.03-1.59-2.86-1.61-10.84.57-.31,2.66-1.6,2.99-4.37.13-1.12-.14-2.09-.77-2.81-.62-.69-1.55-1.1-2.65-1.15Zm2.95,3.9c-.34,2.87-2.83,4.05-2.85,4.06-.09.04-.14.13-.14.22,0,8.26,1.61,11.11,1.66,11.19.07.19,1.62,4.7-4.01,7.2-.86.38-1.71.58-2.54.58h0c-3.69,0-5.9-3.89-6.27-4.6,2.07-3.69,1.66-7.5,1.65-7.66-.02-.12-.12-.22-.24-.22-2.71,0-4.9-1.05-6.51-3.13-2.26-2.92-2.6-6.87-2.12-8.74.8-3.09.89-4.5.99-6.14l.04-.66c.29-4.24,6.16-6.84,10.24-6.84,1.4,0,2.6.28,3.46.81,3.77,2.34,3.21,10.16,3.21,10.24,0,.07.02.13.06.18.05.05.11.08.18.08,1.07,0,1.98.35,2.55.99.54.61.77,1.45.66,2.43Z" fill="#16162b"/>
        </g>
        <g>
          <path d="m279.46,5.15c.2-4.92-4-1.32-7.59-4.09-3.6-2.78-3.09,2.36-6.4,3.76-3.31,1.4-2.5,8.01.7,6.93,3.21-1.08,5.68,2.48,7.25,4.02,1.57,1.54,6.34,1.69,8.01-3.02,1.84-5.18-2.18-2.67-1.98-7.59Z"/>
          <path d="m281.06,8.53c-.71-.59-1.45-1.2-1.36-3.37.05-1.18-.14-1.96-.6-2.44-.61-.65-1.57-.66-2.68-.67-1.37-.02-2.93-.04-4.4-1.18-.75-.58-1.38-.86-1.92-.86-1,0-1.57.93-2.16,1.92-.6,1-1.29,2.14-2.56,2.67-1.91.81-2.54,3.23-2.17,5.1.37,1.81,1.61,2.76,3.04,2.28.37-.12.75-.19,1.12-.19,2.04,0,3.78,1.9,5.06,3.28.3.32.57.62.82.87.66.65,1.77,1.03,2.97,1.03,2.49,0,4.52-1.55,5.45-4.15,1.04-2.93.24-3.59-.6-4.3Zm.15,4.13c-1.26,3.55-4.14,3.82-4.99,3.82-1.06,0-2.07-.34-2.63-.89-.25-.24-.52-.54-.81-.85-1.33-1.45-3.16-3.44-5.42-3.44-.42,0-.85.07-1.27.21-.21.07-.41.11-.6.11-1.03,0-1.61-1.04-1.81-2.02-.34-1.68.2-3.85,1.88-4.56,1.41-.6,2.18-1.86,2.78-2.87.57-.94,1.01-1.68,1.74-1.68.43,0,.97.25,1.63.76,1.6,1.23,3.31,1.26,4.69,1.28,1.04.01,1.87.03,2.34.52.36.38.51,1.06.47,2.09-.1,2.41.81,3.16,1.53,3.77.81.67,1.39,1.15.46,3.76Z"/>
        </g>
        <path d="m271.95,8.5c-3.29-1.28-6.55-.83-7.27,1.02-.72,1.85,1.36,4.39,4.66,5.67,3.29,1.28,6.55.83,7.27-1.02s-1.37-4.39-4.66-5.67Z" fill="#a1d9f7"/>
        <g>
          <path d="m269.96,9.06c-9.3-2.17-11.35,3.48-11.35,3.48-6.97,2.99-3.63,10.81-3.63,10.81,0,0,.96-7.26,5.04-7.26,4.93,0,6.49-2.68,6.49-2.68-1.01,2.71-.22,4.96,2.72,7.34,2.93,2.38,1.89,7.56,1.89,7.56,2.03-.64,2.01-4.79,2.86-4.86,2.36-.2,2.53,3.65,2.53,3.65,1.94-3.65,4.24-15.52-6.55-18.04Z"/>
          <path d="m270.01,8.82c-1.43-.33-2.78-.5-4.01-.5-5.51,0-7.29,3.4-7.58,4.03-7,3.08-3.7,11.01-3.67,11.09.04.1.15.16.26.14.11-.01.19-.1.21-.21,0-.07.98-7.04,4.8-7.04,3.22,0,5.04-1.11,5.95-1.93-.49,2.37.5,4.42,3.1,6.54,2.78,2.26,1.82,7.27,1.81,7.32-.02.09.01.17.08.23.04.04.1.06.16.06.02,0,.05,0,.07-.01,1.34-.42,1.86-2.18,2.23-3.46.15-.51.4-1.37.57-1.39,2.07-.18,2.27,3.38,2.27,3.41,0,.11.08.2.19.23.11.02.22-.03.27-.12,1.13-2.13,2.77-8.05.62-12.78-1.32-2.89-3.78-4.78-7.33-5.61Zm6.64,17.4c-.21-1.19-.86-3.16-2.69-3.01-.5.04-.71.75-1,1.73-.32,1.09-.7,2.4-1.52,2.95.18-1.36.47-5.28-2.05-7.33-2.84-2.3-3.63-4.42-2.64-7.06.04-.12,0-.25-.12-.3-.03-.02-.07-.02-.1-.02-.08,0-.16.04-.21.12-.01.03-1.57,2.56-6.28,2.56-3.38,0-4.7,4.55-5.12,6.55-.63-2.07-1.6-7.32,3.8-9.64.06-.03.11-.08.13-.14.06-.16,1.47-3.81,7.17-3.81,1.19,0,2.5.16,3.9.49,3.39.79,5.75,2.59,7,5.33,1.86,4.09.78,9.11-.25,11.59Z"/>
        </g>
        <path d="m268.2,35.38c-1.9,2.39-4.66,2.45-4.68,2.46-.13,0-.24.11-.24.25,0,.13.11.24.24.24h0c.12,0,3.01-.07,5.06-2.64.08-.11.07-.26-.04-.34-.1-.09-.26-.07-.34.04Z" fill="#16162b"/>
        <path d="m273.19,24.75c-.13.03-.21.16-.18.29.03.13.17.21.29.18,0,0,.75-.18,1.26.22.35.27.52.76.52,1.44,0,.13.11.24.24.24s.24-.11.24-.24c0-.84-.24-1.46-.71-1.83-.7-.55-1.64-.32-1.68-.31Z" fill="#16162b"/>
        <path d="m275.19,26.25h-.03c-1.74,0-2.14,1.23-2.15,1.29-.04.13.03.26.16.3.02,0,.05.01.07.01.1,0,.2-.07.23-.17,0,0,.3-.94,1.69-.94h.02c.13,0,.24-.11.24-.24,0-.13-.11-.24-.24-.24Z" fill="#16162b"/>
      </g>
      <g>
        <path d="m275.09,40.43c-.23,2.23-5.49,3.39-5.49,3.39l-1.4,3.72-1.4-3.8c-1.87-.99-3.85-2.97-3.85-2.97l-3.62,3.31s-5.25,38.76-2.55,64.8h21.86c-2.71-39.93.19-64.8.19-64.8l-3.74-3.64Z" fill="#2b59a5"/>
        <path d="m279,43.89l-3.74-3.64c-.07-.07-.16-.09-.25-.05-.09.03-.15.11-.16.2-.18,1.69-3.89,2.87-5.3,3.18-.08.02-.15.08-.17.15l-1.17,3.11-1.18-3.19c-.02-.06-.06-.1-.11-.13-1.82-.96-3.78-2.91-3.8-2.93-.09-.09-.24-.09-.34,0l-3.62,3.31s-.07.09-.08.15c-.05.39-5.22,39.08-2.55,64.86.01.12.12.22.24.22h21.87c.13,0,.24-.11.24-.24,0-.03,0-.06-.02-.09-2.67-39.4.17-64.44.2-64.68,0-.08-.02-.15-.07-.2Zm-.62,64.73h-21.38c-2.55-25.13,2.28-62.37,2.56-64.44l3.39-3.09c.51.49,2.1,1.96,3.66,2.81l1.37,3.71c.03.1.12.16.23.16h0c.1,0,.19-.06.23-.16l1.36-3.6c.78-.19,4.71-1.21,5.44-3.13l3.35,3.26c-.21,1.92-2.75,26.52-.2,64.47Z"/>
      </g>
      <g>
        <g>
          <path d="m285.99,102.54c-.75,1.12-1.31,1.47-2.76,3.2-1.45,1.73-1.52,3.14-1.52,3.14h12.57s.98-.27,1.3-2.6,1.62-4.28,1.62-4.28l-8.83-2.17s-1.8,1.83-2.38,2.71Z" fill="#fff"/>
          <path d="m297.26,101.76l-8.83-2.17c-.09-.02-.17,0-.23.07-.07.08-1.82,1.86-2.41,2.75-.41.62-.78,1.01-1.27,1.53-.38.4-.84.89-1.47,1.64-1.49,1.77-1.57,3.23-1.57,3.29,0,.07.02.13.07.18.05.05.11.08.18.08h12.57s.04,0,.07,0c.12-.03,1.14-.38,1.48-2.8.31-2.24,1.57-4.16,1.59-4.18.04-.07.05-.15.02-.22-.03-.07-.09-.13-.17-.15Zm-1.92,4.48c-.27,1.9-.97,2.32-1.11,2.39h-12.24c.09-.47.4-1.53,1.42-2.74.62-.73,1.08-1.22,1.45-1.62.52-.55.89-.94,1.33-1.6.49-.73,1.88-2.18,2.26-2.57l8.37,2.05c-.38.64-1.22,2.23-1.48,4.09Z" fill="#16162b"/>
        </g>
        <path d="m295.76,51.31c-8.49-9.21-16.8-6.29-15.17,8.12.87,7.69,4.37,17.43,9.84,23.08l-6.76,18.69s7.72,8.23,14.71,7.31c0,0,11.15-15.73,8.85-27.22-2.19-10.91-6.07-24.11-11.47-29.97Z" fill="#fff"/>
        <path d="m295.94,51.15c-3.56-3.87-7.19-5.74-10.2-5.29-.13.02-.22.14-.2.28.02.13.14.23.28.2,2.81-.42,6.37,1.45,9.77,5.14,6.27,6.8,10.07,23.14,11.41,29.85,2.17,10.82-7.87,25.67-8.75,26.95-6.32.75-13.36-6.19-14.29-7.14l6.71-18.54c.03-.09.01-.19-.05-.25-1.96-2.02-3.84-5.2-5.36-7.76l-.6-1.02c-.07-.11-.22-.15-.33-.08-.11.07-.15.22-.08.33l.6,1.01c1.5,2.54,3.37,5.68,5.32,7.74l-6.71,18.55c-.03.09-.01.18.05.25.3.32,7.08,7.46,13.76,7.46.39,0,.78-.02,1.16-.08.07,0,.13-.05.17-.1.11-.16,11.19-15.95,8.89-27.41-1.35-6.75-5.18-23.2-11.53-30.08Z"/>
        <g>
          <path d="m289.98,83.18c1.67-.41,4.39.81,4.39.81l-2.58-3.15c-2.71.41-3.49,2.74-1.81,2.33Z" fill="#fff"/>
          <path d="m294.47,83.77c-.11-.05-2.81-1.25-4.55-.83-.31.08-.48.03-.54-.03-.05-.06-.05-.17,0-.32.17-.48.97-1.29,2.45-1.51.13-.02.22-.14.2-.28-.02-.13-.14-.22-.28-.2-1.58.24-2.58,1.12-2.83,1.83-.12.32-.08.61.1.81.14.16.44.32,1.02.18,1.57-.38,4.21.79,4.23.8.03.01.07.02.1.02.09,0,.18-.05.22-.14.05-.12,0-.27-.12-.32Z" fill="#16162b"/>
        </g>
      </g>
      <path d="m257.84,45.4c-.12-.06-.27-.02-.33.1-.04.08-3.9,7.53-4.35,13.49,0,.08.03.15.09.2l1.55,1.32-2.57-.41c-.07-.01-.14,0-.2.06-.05.05-.08.11-.08.19,0,.17.25,17.71,2.33,35.13.01.12.12.21.24.21,0,0,.02,0,.03,0,.13-.02.23-.14.21-.27-1.93-16.16-2.28-32.43-2.32-34.79l3.15.51c.11.02.21-.04.26-.14.05-.1.02-.22-.06-.29l-2.12-1.8c.48-5.84,4.24-13.11,4.28-13.18.06-.12.02-.27-.1-.33Z"/>
      <path d="m283.43,60.36l-2.15.21,1.43-1.2c.05-.04.08-.11.09-.18.18-5.96-2.37-13.68-2.39-13.76-.04-.13-.18-.2-.31-.15-.13.04-.2.18-.15.31.03.08,2.52,7.62,2.37,13.48l-1.95,1.63c-.08.07-.11.18-.07.28.04.1.14.16.25.15l2.64-.26c-.17,2.32-1.42,18.27-4.53,34.2-.03.13.06.26.19.29.02,0,.03,0,.05,0,.11,0,.22-.08.24-.2,3.35-17.18,4.54-34.38,4.55-34.55,0-.07-.02-.14-.07-.19-.05-.05-.12-.08-.19-.07Z"/>
    </g>
    <path d="m286.31,70.07c.33-2.64-1.71-4.97-4.36-4.97H46.64c-1.35,0-2.48,1.01-2.66,2.34l-18.97,142.22c-.19,1.45.94,2.74,2.4,2.74h237.57c1.35,0,2.48-1,2.66-2.34l18.67-139.99" fill="#fff"/>
    <path d="m277.34,123.33h.06c.68.06,1.23.36,1.6.9,1.09,1.56.46,4.64-.31,7.44-.07.24-.11.42-.13.51-.02.11-.04.24-.06.38-.1.69-.23,1.55.05,1.99l.13.19c.16.24.4.26.49.26s.32-.04.45-.29l4.22-8.11c.47-.9.63-1.93.42-2.93l-1.21-5.96c-.32-1.6.31-3.26,1.62-4.22l7.79-5.07c.36-.27.58-.65.64-1.13.19-1.64-1.51-4.02-2.21-4.85-.55-.48-1.27-.72-2.02-.67-.73.05-1.42.37-1.89.89l-9.11,13s-.02.02-.02.03c-.44.56-.86,1.16-1.23,2.29l-3.52,10.35c-.03.06,0,.11.02.15.02.03.06.07.13.08.79.09,1.56-.36,1.88-1.09l1.59-3.71c.11-.26.36-.42.63-.42Zm-.03-8.08h0,0Zm1.83,21.13c-.66,0-1.26-.32-1.62-.88l-.13-.2c-.57-.89-.39-2.03-.25-2.94.02-.13.04-.25.05-.37s.06-.29.17-.68c.92-3.35,1.09-5.46.52-6.28-.04-.06-.09-.11-.15-.16l-1.34,3.14c-.55,1.29-1.91,2.07-3.3,1.91-.46-.06-.88-.32-1.13-.71-.25-.4-.31-.88-.16-1.33l3.52-10.34c.43-1.32.95-2.05,1.45-2.68l9.12-13.02.05-.06c.71-.81,1.75-1.31,2.86-1.38,1.14-.07,2.22.3,3.06,1.05.03.02.04.04.06.06.12.14,2.86,3.35,2.57,5.94-.1.88-.51,1.58-1.22,2.11l-7.78,5.07c-.84.63-1.27,1.74-1.05,2.82l1.2,5.96c.27,1.31.07,2.67-.55,3.84l-4.22,8.11c-.32.61-.93.99-1.61,1.03h-.09"/>
    <g>
      <path class="f4" d="m106.22,161.98s-.07,0-.1,0h-32.34c-.31,0-.56.25-.56.56,0,.03,0,.07,0,.1,1.34,7.37,7.76,12.73,15.25,12.73h2.94c7.49,0,13.91-5.35,15.25-12.73.06-.3-.15-.59-.45-.65Zm-14.8,12.26h-2.94c-4.45,0-8.65-2.06-11.37-5.58h3.36v1.67h1.12v-1.67h3.35v3.35h1.12v-3.35h3.35v3.35h1.12v-3.35h3.35v3.35h1.12v-3.35h3.35v1.67h1.12v-1.67h3.36c-2.72,3.52-6.92,5.58-11.37,5.58Zm12.16-6.69h-4.15v-2.79h-1.12v2.79h-3.35v-2.79h-1.12v2.79h-3.35v-2.79h-1.12v2.79h-3.35v-2.79h-1.12v2.79h-3.35v-2.79h-1.12v2.79h-4.15c-.87-1.37-1.5-2.88-1.86-4.46h30.97c-.36,1.58-.99,3.09-1.86,4.46Z" fill="#eff1f4"/>
      <path  class="f4" d="m78.79,154.62c-.04-.23-.22-.42-.46-.46-.91-.15-1.62-.86-1.77-1.77-.05-.3-.34-.51-.64-.46-.23.04-.42.22-.46.46-.15.91-.86,1.62-1.77,1.77-.3.05-.51.34-.46.64.04.23.22.42.46.46.91.15,1.62.86,1.77,1.77.05.3.34.51.64.46.23-.04.42-.22.46-.46.15-.91.86-1.62,1.77-1.77.3-.05.51-.34.46-.64Zm-2.78.89c-.22-.31-.49-.58-.8-.8.31-.22.58-.49.8-.8.22.31.49.58.8.8-.31.22-.58.49-.8.8Z" fill="#eff1f4"/>
      <path  class="f4" d="m104.51,170.64c-2.49,4.93-7.54,8.05-13.07,8.05h-2.98c-5.53,0-10.58-3.12-13.07-8.05l-1,.5c2.68,5.31,8.12,8.67,14.07,8.67h2.98c5.95,0,11.39-3.36,14.07-8.67l-1-.5Z" fill="#eff1f4"/>
      <path  class="f4" d="m93.42,156.96c-.17-.04-.34,0-.48.12l-2.99,2.49-2.99-2.49c-.13-.11-.31-.15-.48-.12l-12.83,2.79.24,1.09,12.56-2.73,3.14,2.61c.21.17.51.17.71,0l3.14-2.61,12.56,2.73.24-1.09-12.83-2.79Z" fill="#eff1f4"/>
    </g>
    <g>
      <path  class="f6" d="m214.48,162.99l-.19-.55-.18-.56c-.7.23-1.88,1.25-1.31,3.52l1.13-.28c-.43-1.71.45-2.09.55-2.13Z" fill="#eff1f4"/>
      <path  class="f6" d="m228.93,170.59v9.85h-19.85v-10.81l.66-.53c.65-.53,1.61-.42,2.13.23.06.07.11.15.15.23l1.52,8.13c.2,1.05,1.21,1.74,2.26,1.55.84-.16,1.47-.84,1.57-1.69l.9-8.14c.05-.4.4-.68.8-.63.33.04.6.3.63.63l.9,8.14c.12,1.06,1.08,1.83,2.14,1.71.85-.09,1.53-.73,1.69-1.57l1.53-8.13.34-.56c.94-1.57,1.44-3.37,1.44-5.21,0-2.41-1.95-4.36-4.36-4.36-.68,0-1.35.16-1.95.46-1.54.77-3.35.77-4.89,0-2.15-1.08-4.77-.21-5.85,1.95-.3.61-.46,1.27-.46,1.95,0,1.31.26,2.61.76,3.83-.71-.08-1.43.12-1.99.57l-.88.7c-.14.11-.22.28-.22.46v11.67c0,.32.26.58.58.58h21.01c.32,0,.58-.26.58-.58v-10.43h-1.17Zm-14.32-10c.5,0,.98.12,1.43.34,1.87.93,4.06.93,5.93,0,1.58-.79,3.5-.15,4.29,1.43.22.44.34.93.34,1.43,0,1.62-.44,3.22-1.28,4.61l-.39.65c-.04.06-.06.12-.07.19l-1.54,8.23c-.08.42-.48.69-.9.61-.33-.06-.58-.34-.62-.67l-.9-8.14c-.11-1.04-1.05-1.78-2.08-1.67-.88.1-1.57.79-1.67,1.67l-.91,8.14c-.05.42-.43.73-.85.68-.34-.04-.61-.29-.67-.62l-1.54-8.24c-.01-.05-.03-.1-.06-.15h0s-.01-.02-.02-.03c0,0,0,0,0-.01l-.39-.65c-.83-1.39-1.28-2.99-1.28-4.61,0-1.76,1.43-3.19,3.19-3.19Z" fill="#eff1f4"/>
      <path class="f6" d="m241.6,157.84l-1.75-1.75-1.17-1.17-.83.83.75.75-2.09,2.09-.17-.17-1.75-1.75-.83.83,1.34,1.34-6.59,6.59c-.23.23-.23.6,0,.83l1.05,1.05-2.8,2.8.83.83,2.8-2.8,1.05,1.05c.23.23.6.23.83,0l6.59-6.59,1.34,1.34.83-.83-1.75-1.75-.17-.17,2.09-2.09.75.75.83-.83-1.17-1.17Zm-9.75,10.09l-2.09-2.09.93-.93.75.75.83-.83-.75-.75.93-.93.75.75.83-.83-.75-.75.93-.93.75.75.83-.83-.75-.75.93-.93.17.17,1.75,1.75.17.17-6.18,6.18Zm6.42-7.59l-.93-.93,2.09-2.09.93.93-2.09,2.09Z" fill="#eff1f4"/>
      <path class="f6" d="m231.56,156.58c-.09-.05-.19-.08-.29-.08h-2.69l.91-2.73-1.11-.37-1.17,3.5c-.1.31.06.64.37.74.06.02.12.03.19.03h2.5l-1.84,3.21,1.01.58,2.33-4.09c.16-.28.07-.64-.21-.8Z" fill="#eff1f4"/>
    </g>
    <path class="f5" d="m148,160.95l-1.15,1.15-3.82-3.82.31-.31c.67-.67.67-1.76,0-2.44l-2.91-2.91c-.67-.67-1.76-.67-2.44,0l-3.67,3.67c-.5.5-.64,1.25-.37,1.9l-.09.09c-.91.91-1.05,2.33-.34,3.4l-1.63,1.63c-.21.21-.21.55,0,.76.21.21.55.21.76,0l1.63-1.63c1.07.71,2.49.56,3.4-.34l.09-.09c.64.28,1.4.14,1.89-.36l.31-.31,3.82,3.82-1.15,1.15,13.76,13.75,5.35-5.35-13.76-13.75Zm-13.37.38h0c-.63-.63-.63-1.65,0-2.29,0,0,0,0,0,0l2.3,2.29c-.64.61-1.65.61-2.29,0Zm4.27-.45c-.23.23-.61.25-.86.04h0s-3-3-3-3c-.21-.25-.2-.63.04-.86l3.67-3.67c.25-.25.66-.25.91,0l2.91,2.91c.25.25.25.66,0,.91l-3.67,3.67Zm1.84-.31l1.53-1.53,3.82,3.82-1.53,1.53-3.83-3.82Zm18.34,15.28l-2.68,2.67-12.23-12.23,3.82-3.82,12.23,12.23-.38.38-10.7-10.7-.76.76,10.7,10.7Z" fill="#2b59a5"/>
    <path class="f1" d="m90.99,102.82c-4.98,0-14.41.7-14.41,3.36v3.84c0,.34.18.66.48.83v.61c0,.8.65,1.44,1.44,1.44h.57c.2.57.74.96,1.35.96h1.44c.25,0,.49-.07.71-.19.26.42.72.67,1.21.67h1.92c.25,0,.49-.07.71-.19.26.42.72.67,1.21.67h2.4c.36,0,.7-.13.96-.37.12.11.26.2.42.27-3.15,1.23-7.02,3.83-9.54,5.82-3.26,2.57-5.12,5.21-5.24,7.46,0,.02,0,.04,0,.06v.03c-.05.8.18,1.6.63,2.27h0s.05.07.07.1c0,0,0,0,.01.01h.01c.54.58,1.25.97,2.03,1.11.31.06.63.09.95.09,2.1,0,4.75-1.2,7.6-3.44,3.29-2.59,7.04-6.28,8.58-9.07h.06c.92,0,1.66-.74,1.66-1.66v-3.15c.48-.01.92-.26,1.18-.67.21.12.46.19.71.19h1.44c.61,0,1.15-.39,1.35-.96h.57c.8,0,1.44-.65,1.44-1.44v-.61c.3-.17.48-.49.48-.83v-3.84c0-2.66-9.43-3.36-14.41-3.36Zm0,.96c8.7,0,13.45,1.59,13.45,2.4v2.85c-.23-.21-.54-.33-.85-.32-.31,0-.61.1-.86.29-.35-.61-1-.98-1.71-.95-.66,0-1.28.28-1.72.76-.39-.64-1.11-1.02-1.86-.98-.69,0-1.36.28-1.85.77-.05.05-.08.1-.13.16-.42-.74-1.23-1.18-2.08-1.14-.77,0-1.5.3-2.04.84-.13.14-.26.29-.36.44-.53-.8-1.43-1.29-2.4-1.29-.85-.04-1.65.39-2.07,1.13-.5-.58-1.22-.91-1.98-.91-.75-.04-1.46.34-1.85.98-.44-.49-1.07-.76-1.72-.76-.7-.03-1.36.34-1.71.95-.25-.19-.55-.29-.86-.29-.31,0-.62.11-.85.32v-2.85c0-.82,4.75-2.4,13.45-2.4Zm3.84,6.77c-1.64.26-2.85,1.66-2.88,3.31h0c-.27,0-.48-.22-.48-.48v-2.88c0-.51.2-1,.56-1.36s.85-.56,1.36-.56c.39-.02.77.13,1.04.4.27.27.42.65.4,1.04v.53Zm-1.22,8.6h.14c-2.11,2.11-4.35,4.07-6.72,5.89-2.71,2.14-5.19,3.27-7.06,3.24.41-1.83,2.08-3.98,4.78-6.12,2.29-1.86,4.69-3.57,7.2-5.12v.45c0,.92.74,1.66,1.66,1.66Zm-15.59-7.69v-1.28c0-.09.02-.52.37-.52.37.06.62.39.59.77v1.51h-.48c-.27,0-.48-.22-.48-.48Zm3.84,1.44h-1.44c-.27,0-.48-.22-.48-.48v-2.4c-.02-.27.08-.54.28-.74.19-.19.46-.3.74-.28.77,0,1.39.62,1.39,1.39v2.03c0,.27-.22.48-.48.48Zm3.84.48h-1.92c-.27,0-.48-.22-.48-.48v-2.88c-.02-.33.11-.65.34-.89s.56-.36.89-.34c.91,0,1.65.74,1.65,1.65v2.45c0,.27-.22.48-.48.48Zm4.32.48h-2.4c-.27,0-.48-.22-.48-.48v-3.36c-.02-.39.13-.77.4-1.04s.65-.42,1.04-.4c1.06,0,1.92.86,1.92,1.92v2.88c0,.27-.22.48-.48.48Zm-7.57,7.42c3.28-2.59,6.91-4.78,9.49-5.75v.39c-2.73,1.63-5.34,3.46-7.8,5.48-2.95,2.33-4.71,4.65-5.14,6.74-.51-.14-.97-.42-1.32-.82.44-1.82,2.1-3.92,4.77-6.03Zm4.88,6.18c-3.07,2.43-5.83,3.55-7.8,3.16-.57-.11-1.09-.39-1.49-.81-.26-.38-.42-.83-.46-1.3.52.36,1.12.59,1.74.67h.05c2.21.28,5.05-.89,8.24-3.4,4.3-3.39,7.06-5.97,8.42-7.85-1.04,2.56-5.05,6.65-8.7,9.53Zm9.93-9.98c0,.2-.09.39-.24.53.03-.08.06-.17.09-.25.12-.43-.1-.87-.5-1.05-.4-.18-.88-.04-1.12.33-.27.4-.56.79-.88,1.16h-1.01c-.39,0-.7-.31-.7-.7v-3.55c0-1.34,1.07-2.44,2.41-2.47.02,0,.04,0,.06,0,.51-.03,1,.16,1.36.52s.55.85.53,1.36v4.14Zm1.4-4.58c0,.25-.19.45-.44.47v-.03c.06-1.44-1.01-2.67-2.44-2.82v-.08c0-.44.17-.86.48-1.17s.73-.49,1.17-.49c.33-.02.65.11.89.34.23.23.36.56.34.89v2.88Zm3.36-.48c0,.27-.22.48-.48.48h-1.44c-.27,0-.48-.22-.48-.48v-2.03c0-.77.62-1.39,1.39-1.39.27-.02.54.08.74.28s.3.46.28.74v2.4Zm1.92-.96c0,.27-.22.48-.48.48h-.48v-1.51c-.04-.37.22-.71.59-.77.36,0,.37.43.37.52v1.28Z" fill="#eff1f4"/>
    <path d="m281.95,65.1c2.65,0,4.69,2.33,4.36,4.97l-1.79,11.76-242.81-.04,2.27-14.34c.17-1.34,1.31-2.34,2.66-2.34h235.31" fill="#2b59a5"/>
    <path d="m206.62,74.21c.21-1.68-1.09-3.16-2.78-3.16h-86.98c-1.41,0-2.6,1.05-2.78,2.44-.21,1.68,1.09,3.16,2.78,3.16h86.98c1.41,0,2.6-1.05,2.78-2.44" fill="#a1d9f7"/>
    <path d="m252.24,74.21c.21-1.68-1.09-3.16-2.78-3.16h-7.94c-1.41,0-2.6,1.05-2.78,2.44-.21,1.68,1.09,3.16,2.78,3.16h7.94c1.41,0,2.6-1.05,2.78-2.44" fill="#a1d9f7"/>
    <path d="m46.64,65.78c-.99,0-1.84.75-1.97,1.74l-18.97,142.22c-.06.49.09.99.42,1.37s.8.59,1.3.59h237.58c.99,0,1.84-.75,1.97-1.74l18.66-139.99c.14-1.06-.19-2.13-.89-2.93-.71-.8-1.72-1.26-2.78-1.26H46.64Zm218.35,147.3H27.41c-.9,0-1.75-.39-2.34-1.06-.59-.68-.86-1.57-.74-2.46l18.97-142.22c.21-1.67,1.65-2.94,3.34-2.94h235.31c1.46,0,2.85.63,3.81,1.72.97,1.1,1.42,2.57,1.22,4.02l-18.66,139.99c-.22,1.68-1.65,2.94-3.34,2.94"/>
   
    <g class="g5"> 
      <path d="m379.17,163.68c.24-1.89-1.22-3.57-3.13-3.57h-168.65c-.97,0-1.78.72-1.91,1.68l-13.59,101.93c-.14,1.04.67,1.97,1.72,1.97h170.27c.96,0,1.78-.72,1.91-1.68l13.38-100.33" fill="#fff"/>
      <path d="m376.04,160.11c1.9,0,3.36,1.68,3.13,3.57l-1.28,8.42-174.03-.03,1.63-10.28c.13-.96.94-1.68,1.91-1.68h168.65" fill="#2b59a5"/>
      <path d="m193.44,251.7l-1.55,11.96c-.14,1.04.67,1.82,1.72,1.82h170.27c.97,0,1.78-.57,1.91-1.53l1.59-12.24h-173.94" fill="#2b59a5"/>
      <path d="m207.39,160.81c-.62,0-1.14.46-1.22,1.08l-13.6,101.93c-.04.3.05.6.26.83.2.23.48.36.79.36h170.27c.62,0,1.15-.46,1.22-1.08h0s13.38-100.34,13.38-100.34c.09-.7-.13-1.42-.59-1.95-.46-.53-1.14-.83-1.84-.83h-168.65Zm156.49,105.57h-170.27c-.7,0-1.36-.3-1.82-.83-.46-.53-.67-1.22-.58-1.92l13.6-101.93c.17-1.3,1.28-2.28,2.59-2.28h168.65c1.1,0,2.15.47,2.88,1.3.73.83,1.07,1.94.93,3.04l-13.38,100.34c-.17,1.3-1.28,2.28-2.59,2.28"/>
  
      <path d="m284.03,228.78c-.33,0-.66,0-.98-.03-4.55-.26-8.73-2.28-11.77-5.68s-4.57-7.78-4.31-12.33c.26-4.55,2.27-8.73,5.67-11.77,3.4-3.04,7.77-4.56,12.33-4.31.9.05,1.8.17,2.67.36.38.08.61.45.53.82-.08.38-.45.61-.82.53-.81-.17-1.64-.29-2.46-.33-4.18-.24-8.21,1.17-11.33,3.96-3.13,2.79-4.98,6.64-5.22,10.82-.23,4.18,1.17,8.21,3.96,11.33,2.79,3.13,6.63,4.98,10.81,5.22,8.64.49,16.06-6.15,16.55-14.78.02-.3.03-.59.03-.88,0-.38.31-.69.69-.69s.69.31.69.69c0,.32-.01.64-.03.96-.26,4.55-2.28,8.73-5.68,11.77-3.15,2.82-7.15,4.34-11.34,4.34"/>
 
 
    <g class="g2"> 
        <path d="m282.11,222.95c-.72-.04-1.36-.45-1.69-1.09l-6.17-11.96c-.52-1-.13-2.23.88-2.74,1-.52,2.23-.13,2.74.88l4.53,8.77,8.41-13.49c.6-.95,1.85-1.24,2.81-.65s1.24,1.85.65,2.81l-10.31,16.54c-.39.62-1.08.99-1.81.96-.01,0-.02,0-.03,0" fill="#2b59a5"/>
    </g>
          <g>
      <path d="m287.64,167.53s-.06,0-.09-.02c-.03-.01-.05-.03-.07-.05-.02-.02-.03-.04-.05-.07-.01-.03-.02-.06-.02-.09h0s0-.06.02-.09c.01-.03.03-.05.05-.07.02-.02.04-.04.07-.05.03-.01.06-.02.09-.02.02,0,.04,0,.05,0,.02,0,.03,0,.04.01.01,0,.03.01.04.02.01,0,.02.02.03.03l-.03.04s-.04-.03-.06-.04c-.02-.01-.05-.02-.08-.02-.02,0-.05,0-.07.01-.02,0-.04.02-.05.04-.02.02-.03.03-.04.06,0,.02-.01.04-.01.07h0s0,.05.01.07c0,.02.02.04.04.06.02.02.03.03.05.04.02,0,.04.01.07.01.03,0,.06,0,.08-.02.02-.01.04-.03.06-.05l.03.03s-.02.02-.04.03c-.01,0-.03.02-.04.02-.01,0-.03.01-.05.02-.02,0-.03,0-.05,0Zm.44-.44h.31v.04h-.26v.15h.24v.04h-.24v.15h.27v.04h-.32v-.43Zm.6,0h.05l.27.35v-.35h.05v.43h-.04l-.28-.36v.36h-.05v-.43Zm.79.05h-.15v-.05h.34v.05h-.15v.39h-.05v-.39Zm.47-.05h.31v.04h-.26v.15h.24v.04h-.24v.15h.27v.04h-.32v-.43Zm.6,0h.19s.05,0,.07.01c.02,0,.04.02.05.03.01.01.02.02.02.04,0,.01,0,.03,0,.05h0s0,.04,0,.05c0,.01-.01.03-.02.04-.01.01-.02.02-.04.03-.01,0-.03.01-.05.01l.13.18h-.06l-.13-.17h-.12v.17h-.05v-.43Zm.18.22s.03,0,.04,0c.01,0,.03-.01.04-.02,0,0,.02-.02.02-.03,0-.01,0-.02,0-.04h0s0-.05-.03-.06c-.02-.02-.05-.02-.08-.02h-.13v.18h.13Zm-8.12-.18h-.15v-.05h.34v.05h-.15v.39h-.05v-.39Zm.47-.05h.19s.05,0,.07.01c.02,0,.04.02.05.03.01.01.02.02.02.04,0,.01,0,.03,0,.05h0s0,.04,0,.05c0,.01-.01.03-.02.04-.01.01-.02.02-.04.03-.01,0-.03.01-.05.01l.13.18h-.06l-.13-.17h-.12v.17h-.05v-.43Zm.18.22s.03,0,.04,0c.01,0,.03-.01.04-.02,0,0,.02-.02.02-.03,0-.01,0-.02,0-.04h0s0-.05-.03-.06c-.02-.02-.05-.02-.08-.02h-.13v.18h.13Zm.61-.22h.05l.2.44h-.05l-.05-.11h-.24l-.05.11h-.05l.2-.44Zm.12.28l-.1-.22-.1.22h.2Zm.4-.28h.05v.43h-.05v-.43Zm.36,0h.05l.27.35v-.35h.05v.43h-.04l-.28-.36v.36h-.05v-.43Zm.68,0h.05v.43h-.05v-.43Zm.36,0h.05l.27.35v-.35h.05v.43h-.04l-.28-.36v.36h-.05v-.43Zm.88.44s-.06,0-.09-.02c-.03-.01-.05-.03-.07-.05-.02-.02-.03-.04-.04-.07-.01-.03-.02-.06-.02-.09h0s0-.06.02-.09.03-.05.04-.07c.02-.02.04-.04.07-.05.03-.01.06-.02.09-.02.02,0,.03,0,.05,0,.02,0,.03,0,.04.01.01,0,.03.01.04.02.01,0,.02.02.03.02l-.03.04s-.02-.01-.03-.02c0,0-.02-.01-.03-.02-.01,0-.02,0-.03-.01-.01,0-.03,0-.04,0-.02,0-.05,0-.07.01-.02,0-.04.02-.05.04-.01.02-.03.03-.03.06,0,.02-.01.04-.01.07h0s0,.05.01.07c0,.02.02.04.03.06.01.02.03.03.05.04.02,0,.04.01.07.01.02,0,.05,0,.07-.01.02,0,.04-.02.06-.03v-.11h-.13v-.04h.18v.17s-.05.03-.07.05c-.03.01-.06.02-.1.02Z" fill="#a1d9f7"/>
      <path d="m281.72,164.16h.52l2.19,2.26v-2.26h.35v2.58h-.52l-2.19-2.26v2.26h-.35v-2.58Zm7.38,1.63h.33v.2c0,.41.1.49.55.49h1.24c.4,0,.57-.07.57-.4v-1.92h.35v1.85c0,.59-.26.75-.89.75h-1.3c-.61,0-.85-.21-.85-.69v-.28Z" fill="#a1d9f7"/>
 
    </g>
        <g>
        <polygon points="286.93 164.45 288.2 166.74 288.59 166.74 287.15 164.16 286.71 164.16 285.27 166.74 285.67 166.74 286.93 164.45" fill="#a1d9f7"/>
        <path d="m289.11,168.66c0,.13-.03.25-.07.31-.03.05-.08.07-.13.07-.08,0-.19-.05-.29-.14l-.85-.69c-.22-.18-.52-.28-.83-.28s-.61.1-.83.28l-.85.69c-.11.09-.21.14-.29.14-.19,0-.2-.29-.2-.39v-.78h-.3v.78c0,.5.27.68.5.68.15,0,.32-.07.48-.2l.85-.69c.17-.14.4-.21.64-.21s.47.08.64.21l.85.69c.16.13.33.2.48.2h0c.15,0,.29-.07.38-.2.08-.12.12-.28.12-.48v-.78h-.3v.78Z" fill="#a1d9f7"/>
        <path d="m288.6,162.85c-.09,0-.18.01-.27.04-.47.14-1.11.26-1.4.26s-.93-.12-1.4-.26c-.09-.03-.18-.04-.27-.04-.45,0-.78.35-.8.83h.3c.02-.32.22-.53.51-.53.06,0,.12,0,.19.03.5.15,1.17.27,1.48.27s.98-.12,1.48-.27c.06-.02.13-.03.19-.03.3,0,.51.24.51.59v1.58h.3v-1.58c0-.51-.34-.88-.81-.88Z" fill="#a1d9f7"/>
      </g>
   
    </g>
    

    <g class="g6"> 
        <path d="m179.51,201.62c.23-1.8-1.16-3.4-2.97-3.4H15.79c-.92,0-1.69.68-1.81,1.6L1.01,296.98c-.13.99.64,1.87,1.64,1.87h162.3c.92,0,1.7-.68,1.81-1.6l12.75-95.63" fill="#fff"/>
        <path d="m176.54,198.22c1.81,0,3.21,1.59,2.97,3.4l-1.21,8.03-165.88-.03,1.55-9.8c.12-.92.9-1.6,1.81-1.6h160.75" fill="#2b59a5"/>
        <path class="v1" d="m161.89,230.14h-39.19c-.89,0-1.61-.72-1.61-1.61s.72-1.6,1.61-1.6h39.19c.89,0,1.61.72,1.61,1.6s-.72,1.61-1.61,1.61" fill="#2b59a5"/>
        <path class="v2" d="m158.74,243.01h-38.14c-.89,0-1.61-.72-1.61-1.61s.72-1.61,1.61-1.61h38.14c.89,0,1.61.72,1.61,1.61s-.72,1.61-1.61,1.61" fill="#2b59a5"/>
        <path class="v3"  d="m157.7,254.69h-8.68c-.89,0-1.61-.72-1.61-1.6s.72-1.61,1.61-1.61h8.68c.89,0,1.6.72,1.6,1.61s-.72,1.6-1.6,1.6" fill="#2b59a5"/>
        <path class="v4"  d="m156.2,266.96h-47.27c-.89,0-1.6-.72-1.6-1.61s.72-1.6,1.6-1.6h47.27c.89,0,1.61.72,1.61,1.6s-.72,1.61-1.61,1.61" fill="#2b59a5"/>
        <path d="m15.79,198.91c-.57,0-1.06.43-1.13,1L1.69,297.07c-.04.28.05.55.23.77.18.21.44.33.72.33h162.3c.57,0,1.06-.43,1.13-1l12.76-95.63c.08-.66-.12-1.33-.56-1.83-.44-.5-1.07-.79-1.73-.79H15.79Zm149.16,100.63H2.65c-.67,0-1.32-.29-1.76-.8-.45-.51-.65-1.18-.56-1.85l12.96-97.15c.16-1.26,1.23-2.2,2.49-2.2h160.75c1.06,0,2.07.45,2.77,1.25.7.8,1.03,1.86.89,2.92l-12.76,95.63c-.16,1.26-1.23,2.2-2.49,2.2"/>
    </g>
   <g class="man"> 
    <path d="m41.27,375.36l1.06,10.07,6.81.8v-11.94l-7.86,1.07" fill="#fff"/>
    <path d="m42.95,384.81l5.49.64v-10.38l-6.42.88.93,8.86Zm6.18,2.1s-.06,0-.08,0l-6.8-.8c-.32-.04-.57-.29-.61-.61l-1.05-10.07c-.04-.37.22-.7.59-.75l7.86-1.07c.2-.03.4.03.54.16.15.13.24.32.24.52v11.94c0,.2-.08.39-.23.52-.13.11-.29.17-.46.17"/>
    <path d="m50.2,403.75c-2.83.4-7.48.76-12.94,0-1.79-.25-2.98-1.99-2.55-3.74,1.2-4.89,3.28-14.16,6.83-18.45l.89,2.33,1.22-2.19c.17-.3.47-.51.81-.55l2.67-.34c.56-.07,1.08.3,1.19.85l.43,2.02.93-2.65,3.1,19.32c.22,1.65-.93,3.18-2.58,3.41" fill="#fff"/>
    <path d="m41.34,382.98c-2.79,4.17-4.59,11.57-5.7,16.14l-.26,1.06c-.16.66-.04,1.32.33,1.88.38.56.97.93,1.64,1.02,5.33.74,9.88.41,12.76,0,1.27-.18,2.16-1.36,1.99-2.63l-2.67-16.63-.03.09c-.1.29-.39.47-.7.46-.31-.02-.56-.24-.63-.55l-.42-2.02c-.04-.2-.23-.34-.43-.31l-2.67.34c-.13.02-.23.09-.29.2l-1.22,2.19c-.13.23-.39.38-.65.35-.27-.02-.49-.19-.59-.44l-.44-1.15Zm2.43,21.91c-2,0-4.23-.12-6.6-.45-1.05-.15-1.99-.73-2.59-1.6-.59-.87-.78-1.96-.53-2.98l.26-1.05c1.23-5.07,3.3-13.55,6.71-17.68.16-.19.41-.28.65-.24.24.04.44.21.53.44l.36.94.49-.9c.28-.49.77-.82,1.33-.89l2.67-.34c.79-.1,1.54.35,1.85,1.06l.14-.39c.1-.3.4-.49.71-.46.32.03.57.27.62.58l3.11,19.32c.27,2.04-1.15,3.92-3.16,4.2-1.68.24-3.91.45-6.53.45"/>
    <path d="m42.31,401.64c-1.83,0-3.82-.16-5.8-.61-.37-.08-.6-.45-.52-.82.08-.37.45-.6.82-.52,6.6,1.51,13.5-.43,13.57-.45.36-.1.75.1.85.47.1.36-.11.74-.47.85-.21.06-3.86,1.08-8.46,1.08"/>
    <path d="m40.69,394.16c-.37,0-.68-.3-.69-.67-.02-.38.29-.7.67-.71l6.38-.21c.38-.02.7.29.71.66.01.39-.29.7-.67.71l-6.38.21h-.02"/>
    <path d="m73.14,370l1.02,14.69h8.19l.38-14.69h-9.59" fill="#fff"/>
    <path d="m74.8,384h6.88l.34-13.31h-8.14l.92,13.31Zm7.55,1.38h-8.19c-.36,0-.66-.28-.69-.65l-1.02-14.69c-.01-.19.05-.38.18-.52s.31-.22.51-.22h9.59c.19,0,.36.07.49.21.13.13.2.31.19.5l-.38,14.69c-.01.38-.31.67-.69.67"/>
    <path d="m72.02,392.99c-.02,1.39.93,2.61,2.28,2.93,4.71,1.09,15.31,3.54,18.34,3.98,3.93.58,8.75-.61,10.82-2.92,2.08-2.3-4.64-7.78-7.83-9.78-4.73-2.96-9.29-8.83-11.19-9.09-1.91-.27-5.47,5.28-5.47,5.28l-5.82-2.45s-1.02,4.99-1.12,12.04" fill="#fff"/>
    <path d="m72.02,392.99h0,0Zm1.65-11.07c-.28,1.69-.88,5.83-.96,11.08-.02,1.06.72,2.01,1.75,2.24,4.49,1.04,15.27,3.53,18.28,3.98,3.78.56,8.36-.65,10.21-2.7.11-.13.26-.34.2-.78-.3-2.16-4.77-6.01-7.89-7.96-2.42-1.52-4.72-3.7-6.75-5.63-1.69-1.6-3.44-3.26-4.18-3.36-.88-.13-3.19,2.47-4.8,4.96-.18.28-.54.4-.84.27l-5.03-2.11Zm21.02,18.82c-.72,0-1.44-.05-2.14-.16-3.07-.46-13.89-2.95-18.4-3.99-1.66-.39-2.84-1.91-2.81-3.61.1-7.03,1.09-11.96,1.14-12.17.04-.2.17-.38.35-.47s.4-.1.59-.03l5.3,2.22c1.16-1.73,3.87-5.36,5.83-5.1,1.12.16,2.53,1.45,4.93,3.73,1.98,1.88,4.23,4.02,6.54,5.45,2.06,1.3,8.07,5.72,8.52,8.94.1.73-.08,1.38-.54,1.89-1.81,2-5.61,3.29-9.3,3.29"/>
    <path d="m94.61,398.03c-8.6,0-20.07-4.63-20.71-4.9-.35-.15-.52-.55-.38-.9.15-.35.55-.52.9-.38.21.08,20.77,8.4,26.73,3.01.29-.26.72-.23.97.05.26.29.23.72-.05.97-1.72,1.56-4.41,2.14-7.46,2.14"/>
    <path d="m85.54,389.14c-.19,0-.38-.08-.51-.22-.26-.28-.23-.72.05-.97l4.17-3.76c.28-.26.72-.23.97.05.26.28.23.72-.05.97l-4.16,3.76c-.14.12-.3.18-.46.18"/>
    <path d="m38.94,274.21s-2.54,45.93-3.86,61.79c-1.33,15.85,3.1,41.34,3.1,41.34l12.64-.67s.87-30.99,1.81-39.59c0,0,5.34-11.67,6.92-22.07s6.97-26.84,6.97-26.84c0,0,4.38,82.03,4.8,88.47,0,0,9.91.44,13.46-1.8,0,0,6.3-29.91,5.4-46.18-.91-16.28.08-56.71.08-56.71l-51.32,2.25" fill="#2b59a5"/>
    <path d="m39.6,274.87c-.31,5.55-2.6,46.51-3.83,61.18-1.19,14.25,2.34,36.63,2.99,40.57l11.4-.6c.13-4.47.93-31.16,1.79-39.02.01-.07.03-.14.06-.21.05-.11,5.32-11.7,6.86-21.89,1.57-10.34,6.94-26.79,7-26.95.1-.31.41-.51.74-.46.33.04.58.31.6.65.04.8,4.16,78.03,4.76,87.84,2.14.04,9.21.07,12.21-1.57.65-3.16,6.16-30.57,5.32-45.71-.83-14.91-.06-50.45.07-56.03l-49.96,2.19Zm-1.42,103.16c-.33,0-.62-.24-.68-.57-.04-.26-4.43-25.76-3.11-41.52,1.31-15.66,3.84-61.31,3.86-61.77.02-.35.31-.64.66-.65l51.33-2.25c.19-.01.38.06.51.19.14.14.21.32.21.51-.01.41-.98,40.59-.09,56.65.9,16.18-5.34,46.07-5.41,46.37-.04.18-.15.34-.31.44-3.7,2.33-13.45,1.92-13.86,1.9-.35-.02-.64-.29-.66-.64-.36-5.58-3.73-68.46-4.6-84.69-1.67,5.43-4.7,15.82-5.81,23.11-1.5,9.86-6.4,20.96-6.93,22.15-.92,8.63-1.78,39.13-1.79,39.43-.01.36-.29.65-.65.67l-12.64.67h-.04"/>
    <path d="m50.3,337.77h-3.86c-.38,0-.69-.31-.69-.69s.31-.69.69-.69h3.86c.38,0,.69.31.69.69s-.31.69-.69.69"/>
    <path d="m77.82,361.63h-.01c-.38,0-.68-.32-.68-.7.14-7.66,8.5-21.32,8.85-21.9.2-.32.63-.43.95-.23.33.2.43.63.23.95-.09.14-8.52,13.92-8.66,21.2,0,.38-.31.68-.69.68"/>
    <path d="m94.27,200.75c.92-.07,5.43,9.18,19.57,8.8,14.14-.39,25.47-16.21,25.47-16.21,0,0,4.88-8.23,8.59-11.21,3.7-2.98,4.29-3.37,4.29-3.37,0,0,1.16,1.55,0,3.37-1.17,1.82-4.37,5.23-4.37,5.23,0,0,3.53,1.94,1.94,5.98-1.83,4.65-6.99,4.28-6.99,4.28,0,0-10.48,46.42-53.79,24.36l5.3-21.22" fill="#fff"/>
    <path d="m89.77,221.6c12.53,6.26,23.44,7.3,32.44,3.07,15.18-7.13,19.83-27.02,19.88-27.22.07-.33.38-.56.72-.54.19.02,4.69.27,6.31-3.84,1.35-3.44-1.51-5.06-1.63-5.13-.18-.1-.31-.29-.35-.5-.03-.21.03-.42.18-.58.03-.03,3.17-3.38,4.29-5.13.49-.76.45-1.46.32-1.94-.58.45-1.66,1.29-3.59,2.85-3.57,2.86-8.38,10.94-8.43,11.03l-.03.05c-.47.66-11.7,16.11-26.02,16.5-11.53.32-16.78-5.54-19.02-8.04-.06-.07-.12-.14-.18-.2l-4.9,19.6Zm20.68,7c-6.63,0-13.91-2.01-21.79-6.02-.28-.15-.43-.47-.35-.78l5.3-21.22c.07-.29.32-.49.61-.52.54-.06.89.35,1.66,1.21,2.11,2.35,7.05,7.87,17.95,7.58,13.4-.36,24.43-15.23,24.92-15.9.36-.61,5.04-8.41,8.73-11.36,3.68-2.96,4.31-3.39,4.33-3.41.3-.21.71-.14.93.16.06.08,1.43,1.95.03,4.16-.9,1.41-2.93,3.68-3.9,4.74,1.32,1.08,2.74,3.28,1.53,6.35-1.61,4.09-5.59,4.65-7.1,4.71-.88,3.3-6.15,20.89-20.49,27.63-3.81,1.79-7.94,2.68-12.35,2.68"/>
    <path d="m24.22,221.97s4.24-27.39,19.22-34.13,35.26-5.8,40.85-2.44,20.16,18.58,20.16,18.58l-12.88,17.98s2.94,48.41.61,61.19c0,0-14.32,1.67-20.4-.72-6.08-2.39-26.05-5.74-35.6-1.36l1.73-61.29-13.71,2.18" fill="#2b59a5"/>
    <path d="m49.36,269.13c-.33,0-.62-.24-.68-.57-.07-.37.18-.73.56-.8,22.64-4,29.19-19.61,29.26-19.78.15-.35.55-.52.9-.38.35.15.52.55.38.9-.07.16-6.92,16.48-30.3,20.61-.04,0-.08.01-.12.01"/>
    <path d="m98.93,209.06c-.26-.33-.65-.53-1.07-.53h-25.41c-1.17,0-2.2.78-2.52,1.91l-8.6,30.67h27.53c.96,0,1.81-.64,2.07-1.57l8.21-29.31c.11-.41.03-.84-.22-1.18" fill="#7cc2ed"/>
    <path d="m62.24,240.42h26.63c.65,0,1.23-.44,1.41-1.07l8.21-29.31c.06-.2.02-.41-.11-.57-.12-.16-.32-.26-.52-.26h-25.41c-.86,0-1.62.58-1.85,1.41l-8.35,29.8Zm26.63,1.38h-27.53c-.21,0-.42-.1-.55-.27-.13-.18-.18-.4-.11-.6l8.59-30.68c.4-1.42,1.71-2.41,3.18-2.41h25.41c.63,0,1.24.3,1.62.8s.51,1.17.34,1.78l-8.21,29.31c-.34,1.22-1.47,2.07-2.73,2.07"/>
    <path d="m26.79,222.07l14.76-6.6s-2.08,25.02,27.78,13.46c0,0-1.1-3.21-.94-6.97s2.4-.12,2.71,2.93c.32,3.05,7.33,1.81,11.54.61,4.21-1.2,9.74-.42,0,4.96-9.74,5.38-11.88,2.98-11.88,2.98,0,0-12.44,17.42-27.92,13.72-19.04-4.55-16.05-25.09-16.05-25.09" fill="#fff"/>
    <path d="m27.43,222.54c-.13,1.27-.42,5.58.92,10.22,2.1,7.29,7.03,11.91,14.65,13.73,1.42.34,2.81.49,4.17.49,12.91,0,22.92-13.78,23.03-13.94.13-.17.32-.28.53-.29s.41.07.55.23c0,0,2.19,1.76,11.03-3.13,5.09-2.81,5.07-3.86,5.07-3.88-.21-.31-2.16-.5-4.55.18-2.01.57-8.76,2.31-11.34.56-.63-.42-.99-1.03-1.07-1.76-.16-1.54-.82-3.06-1.28-3.67-.03.16-.05.39-.07.7-.15,3.57.9,6.69.91,6.71.11.35-.06.73-.41.86-10.31,3.99-18.05,4.13-23.02.41-5.19-3.88-5.73-10.72-5.73-13.43l-13.4,5.99Zm19.83,25.84c-1.49,0-3.02-.17-4.58-.55-19.43-4.64-16.6-25.65-16.57-25.86.04-.23.19-.43.4-.53l14.76-6.6c.22-.1.48-.07.68.07s.31.38.29.62c-.01.09-.67,9.01,5.15,13.35,4.47,3.34,11.57,3.22,21.1-.36-.32-1.15-.91-3.69-.79-6.58.02-.55.09-2.22,1.27-2.26,1.51-.06,2.64,3.32,2.82,5.15.03.32.18.57.47.76,1.56,1.05,6.24.39,10.19-.74,1.84-.53,5.51-1.07,6.2.63.57,1.39-1.18,3.11-5.68,5.59-7.51,4.14-10.75,3.86-12.04,3.3-2.03,2.65-11.45,14.01-23.67,14.01"/>
    <path d="m72.22,171.65l.7,9.8c.16,1.28,1.08,2.32,2.32,2.65l3.44.9-2.23,1.7c-4.95,3.77-11.8,3.78-16.76.02l-4.3-1.88,5.05-1.76c1.23-.28,2.17-1.26,2.4-2.49l1.89-12.97,7.51,4.04" fill="#fff"/>
    <path d="m57.27,184.9l2.69,1.18c.05.02.1.05.14.08,4.69,3.56,11.24,3.55,15.93-.02l1.1-.84-2.07-.54c-1.53-.4-2.64-1.66-2.83-3.23l-.68-9.45-6.31-3.4-1.74,11.99c-.28,1.52-1.41,2.71-2.89,3.06l-3.35,1.17Zm10.79,5.3c-3.07,0-6.14-.97-8.72-2.9l-4.23-1.85c-.26-.11-.42-.38-.41-.66s.19-.53.46-.63l5.04-1.76s.05-.02.08-.02c.96-.21,1.69-.98,1.87-1.95l1.88-12.94c.04-.22.17-.41.38-.52.2-.1.44-.1.64.01l7.51,4.04c.21.11.34.32.36.56l.71,9.8c.11.97.82,1.78,1.8,2.03l3.44.9c.26.06.45.27.5.53.05.26-.05.52-.26.68l-2.23,1.7c-2.59,1.98-5.7,2.96-8.81,2.96"/>
    <path d="m78.96,151.83c-3.03-.24.71,2.96-10.42-.55-4.43-1.4-2.3,3.86-3.45,3.51-4.25-1.33-4.1-1.29-6.2-.79-1.39.33-2.35,2.87-2.14,4.78.28,2.53,2.34,3.22,4.05,8.58,1.2,3.76.83,6.03,2.32,6.6,1.5.58,2.66-1.42,4.35-.91,2.18.67,1.66,4.46,3.76,6.09,1.32,1.03,4.45,1.55,9.53-.79.83-.38,1.27-1.3,1.05-2.18-.28-1.13-.65-2.56-1.11-3.9-2.2-6.36-4.41-7.83-3.56-9.45,1.31-2.48,6.01-.94,6.83-2.98.86-2.12-.87-7.68-5.01-8.01"/>
    <path d="m68.19,160.57l.83,1.64c.39.78.73,1.57,1.01,2.39.53,1.54,1.45,4.17,2.08,5.61.92,2.1,7.64-.3,7.64-.3l.43-1.28.78-.3c.15-.06.29-.15.39-.27.26-.31.27-.74.06-1.06-1.11-1.73-3.43-5.63-4.22-9.09,0,0-4.91-1.38-9.01,2.66" fill="#fff"/>
    <path d="m69.04,160.72l.59,1.18c.41.8.76,1.63,1.05,2.47.5,1.46,1.44,4.13,2.06,5.55.38.86,3.64.41,6.46-.56l.32-.96c.07-.19.22-.35.41-.42l.78-.3c.06-.02.09-.05.11-.06.07-.09.05-.19.02-.25-1.22-1.9-3.34-5.51-4.21-8.89-1.13-.2-4.52-.52-7.59,2.23Zm5.25,11.05c-1.29,0-2.39-.33-2.81-1.29-.64-1.47-1.59-4.18-2.1-5.66-.27-.79-.6-1.56-.97-2.3l-.83-1.64c-.14-.27-.08-.59.13-.8,4.33-4.28,9.46-2.9,9.68-2.83.24.07.43.27.48.51.77,3.41,3.15,7.34,4.13,8.87.37.58.33,1.32-.11,1.86-.17.21-.41.38-.68.48l-.48.19-.33.97c-.07.2-.22.36-.42.43-1.06.38-3.63,1.21-5.69,1.21"/>
    <path d="m69.29,166.26s-1.99-3.95-3.58-2.65.7,5.58,3.58,2.65" fill="#fff"/>
   </g>

    <path d="m277.31,115.25c-.43.56-.93,1.23-1.35,2.5l-3.52,10.34c-.18.52.17,1.07.71,1.13,1.1.13,2.15-.48,2.59-1.49l1.59-3.71c3.1.24.61,7.47.54,8.06-.11.86-.4,2.08.09,2.84l.13.2c.52.79,1.7.74,2.14-.09l4.22-8.12c.55-1.04.72-2.23.48-3.39l-1.2-5.96c-.27-1.34.26-2.72,1.35-3.53l7.74-5.05c2.83-2.08-1.45-7.04-1.45-7.04-1.45-1.3-3.72-1.13-4.94.28l-9.13,13.03" fill="#fff"/>
    <path d="m246.23,64.11c1.24-2.78,4.56-3.95,7.34-2.71,2.15.96,4.93,2.33,5.74,3.33.97,1.2,2.54,4.94,1.23,7.8-1.18,2.57-4.45,3.24-6.69,1.52-1.17-.91-2.38-2.42-3.13-4.94-.42-1.4-1.36-2.61-2.7-3.19-.36-.16-.76-.28-1.18-.33-.56-.07-.92-.63-.73-1.17.03-.09.07-.2.13-.32" fill="#fff"/>
    <path d="m246.85,64.39c-.04.09-.08.18-.1.26-.03.07,0,.13.02.17.02.03.07.08.15.09.46.06.92.18,1.37.38,1.47.64,2.6,1.96,3.09,3.63.6,2.03,1.57,3.57,2.89,4.59.94.72,2.13.98,3.27.7,1.07-.27,1.92-.96,2.37-1.96,1.18-2.58-.31-6.06-1.14-7.08-.26-.32-1.32-1.28-5.48-3.14-2.47-1.1-5.35-.04-6.43,2.36Zm9.77,11.31c-1.14,0-2.26-.38-3.2-1.1-1.55-1.19-2.68-2.97-3.36-5.29-.38-1.28-1.23-2.28-2.32-2.76-.33-.15-.66-.23-.99-.28-.47-.06-.9-.32-1.15-.72-.26-.4-.31-.9-.16-1.35.04-.11.09-.24.15-.38,1.39-3.09,5.09-4.46,8.24-3.05,3.27,1.45,5.29,2.64,6,3.53,1.16,1.44,2.74,5.42,1.32,8.52-.63,1.37-1.82,2.36-3.3,2.73-.41.1-.83.15-1.24.15"/>
    <path  class="g5" d="m343.08,131.76c-.18-.36-.56-.51-.98-.51h-4.71c.17-5.05-.31-15.88-7.14-23.47-4.48-4.98-10.72-7.67-18.58-7.91-.31-.01-.63.07-.86.29-.24.21-.4.49-.42.8l-.7,8.88c-.05.61.4,1.1,1.03,1.13,4.68.19,8.16,1.74,10.63,4.49,4.26,4.74,4.56,12.13,4.45,15.8h-4.7c-.42,0-.83.15-1.06.51-.24.36-.27.77-.09,1.13l9.29,18.2c.19.37.57.59.99.59s.83-.23,1.07-.6l11.72-18.18c.23-.36.26-.77.07-1.14" fill="#fff"/>
    <path class="g5" d="m321.09,131.94c-.13,0-.38.03-.49.2-.1.16-.12.3-.05.44l9.29,18.2c.15.28.66.26.87-.07l11.72-18.18c.1-.15.11-.3.04-.44-.06-.11-.23-.14-.37-.14h-4.7c-.19,0-.36-.07-.5-.21-.13-.14-.2-.32-.19-.51.18-5.49-.48-15.79-6.96-22.99-4.38-4.86-10.46-7.45-18.09-7.68-.11,0-.28.02-.39.11-.08.07-.17.18-.18.33l-.71,8.88c-.01.13.04.22.08.27.07.07.17.12.29.13,4.74.19,8.48,1.78,11.12,4.71,4.08,4.56,4.77,11.37,4.63,16.29-.01.37-.32.67-.69.67h-4.71Zm9.13,20.42c-.69,0-1.3-.37-1.6-.96l-9.29-18.2c-.3-.58-.25-1.24.13-1.82.34-.52.94-.82,1.64-.82h4.03c.04-3.93-.53-10.47-4.29-14.66-2.41-2.68-5.73-4.08-10.15-4.26-.49-.02-.94-.23-1.26-.58-.31-.35-.46-.81-.42-1.29l.71-8.88c.04-.48.27-.93.65-1.26.35-.31.83-.48,1.34-.46,8.02.24,14.43,2.98,19.07,8.14,6.52,7.26,7.43,17.4,7.33,23.25h4c.72,0,1.3.32,1.59.88.3.58.27,1.25-.1,1.82l-11.72,18.18c-.36.57-.99.92-1.65.92"/>
    <path d="m229.93,382.18c-.32,0-.6-.22-.68-.55-.09-.38.15-.74.53-.83,2.68-.6,5.38-1.27,8.01-1.97.38-.1.76.12.85.49.1.38-.12.76-.49.85-2.66.71-5.37,1.38-8.07,1.98-.05.02-.1.02-.15.02"/>
    <path d="m352.43,74.15c-.2,0-.4-.09-.54-.26-10.37-12.88-23.19-24.02-38.11-33.12-.32-.2-.42-.62-.22-.94.2-.33.63-.43.94-.23,15.05,9.18,27.99,20.43,38.46,33.43.24.3.19.73-.1.97-.13.1-.28.15-.43.15"/>
    <path d="m337.92,69.87c-.19,0-.38-.08-.51-.23-13.53-15.11-30.56-27.11-50.61-35.68-.35-.15-.51-.56-.36-.91.15-.35.55-.52.9-.36,20.24,8.65,37.43,20.77,51.1,36.03.25.29.23.72-.06.97-.13.12-.29.18-.46.18"/>
    <path d="m237.96,380.19c-.3,0-.58-.2-.67-.51-.09-.36.12-.74.49-.84,36.78-9.89,69.06-30.44,90.9-57.86.24-.3.67-.35.97-.11.3.23.34.67.11.97-11.07,13.9-24.63,25.99-40.29,35.94-15.56,9.89-32.83,17.42-51.33,22.39-.06.02-.11.03-.18.03"/>
    <path d="m257.23,363.64c-.28,0-.54-.17-.64-.43-.14-.35.03-.76.38-.9,25.53-10.28,47.66-26.22,64-46.1.24-.3.68-.33.97-.09.29.24.33.68.09.97-16.49,20.06-38.82,36.14-64.55,46.51-.08.04-.17.05-.26.05"/>
    <path d="m216.94,382.39c-.12,1.33.86,2.52,2.19,2.64s2.52-.87,2.64-2.2c.06-.65-.14-1.28-.55-1.77-.42-.5-1-.8-1.65-.86-.65-.06-1.27.14-1.77.55-.49.42-.8,1-.86,1.65Zm2.42,4.03c-.11,0-.23-.01-.34-.02-2.09-.19-3.64-2.04-3.45-4.13.09-1.01.57-1.93,1.35-2.58s1.77-.95,2.78-.86c1.02.09,1.93.57,2.58,1.35s.96,1.77.86,2.78c-.18,1.97-1.84,3.46-3.78,3.46"/>
    <path d="m189.91,37.94c-.12,0-.24-.03-.36-.1l-2.46-1.51c-.33-.2-.43-.63-.23-.95.2-.32.63-.42.95-.22l2.46,1.51c.32.2.42.62.22.95-.13.21-.36.33-.59.33"/>
    <path d="m198.52,43.23c-.12,0-.24-.04-.35-.1l-2.46-1.51c-.32-.2-.43-.63-.23-.95s.63-.43.95-.23l2.46,1.51c.32.2.42.63.22.95-.13.21-.35.33-.59.33"/>
    <path d="m189.62,45.39c-.12,0-.24-.03-.35-.1-.32-.2-.43-.62-.23-.95l1.49-2.47c.2-.32.63-.43.95-.23s.43.62.23.95l-1.49,2.47c-.13.21-.36.33-.59.33"/>
    <path d="m194.85,36.74c-.12,0-.24-.03-.35-.1-.33-.2-.43-.63-.23-.95l1.49-2.47c.19-.32.62-.43.94-.23.33.2.43.62.23.94l-1.49,2.47c-.13.21-.36.33-.59.33"/>
    <path d="m152.85,51.97c-.12,1.33.86,2.52,2.2,2.64s2.51-.86,2.63-2.2c.06-.65-.14-1.27-.55-1.77s-1-.8-1.65-.86c-.65-.06-1.27.14-1.77.55-.49.42-.8,1-.86,1.64Zm2.42,4.03c-.11,0-.23,0-.34-.02-2.09-.19-3.64-2.05-3.44-4.13h0c.09-1.02.57-1.93,1.35-2.58.78-.66,1.77-.96,2.78-.87,1.01.09,1.93.57,2.58,1.35.65.78.96,1.77.86,2.78-.18,1.97-1.84,3.46-3.78,3.46"/>
    <path d="m150.24,377.83c-.11,0-.22-.03-.33-.08-.33-.18-.46-.6-.28-.93l1.04-1.93c.18-.33.6-.46.94-.28.33.18.46.6.28.93l-1.05,1.93c-.13.23-.36.36-.6.36"/>
    <path d="m145.23,387.07c-.11,0-.22-.03-.33-.08-.33-.18-.46-.6-.28-.93l1.04-1.93c.18-.33.6-.46.94-.27.33.18.46.59.28.93l-1.05,1.93c-.13.23-.36.36-.6.36"/>
    <path d="m153.87,384.5c-.11,0-.22-.03-.32-.08l-1.94-1.04c-.33-.18-.46-.59-.28-.93.18-.33.59-.46.93-.28l1.94,1.04c.33.18.46.59.28.93-.13.23-.36.36-.61.36"/>
    <path d="m144.58,379.51c-.11,0-.22-.03-.32-.08l-1.94-1.04c-.33-.18-.46-.59-.28-.93.18-.34.6-.46.93-.29l1.94,1.04c.34.18.46.6.29.93-.13.23-.36.36-.61.36"/>
    <g>
      <path d="m67.08,75.43s-.08,0-.12-.02c-.04-.02-.07-.04-.1-.07-.03-.03-.05-.06-.06-.1-.02-.04-.02-.08-.02-.12h0s0-.08.02-.12c.02-.04.04-.07.06-.1.03-.03.06-.05.1-.07.04-.02.08-.02.12-.02.03,0,.05,0,.07,0,.02,0,.04.01.06.02.02,0,.04.02.05.03.02.01.03.02.05.04l-.05.05s-.05-.04-.08-.06c-.03-.02-.06-.02-.11-.02-.03,0-.06,0-.09.02-.03.01-.05.03-.07.05-.02.02-.04.05-.05.08-.01.03-.02.06-.02.1h0s0,.07.02.1c.01.03.03.06.05.08.02.02.05.04.07.05.03.01.06.02.09.02.04,0,.08,0,.11-.02.03-.02.06-.04.09-.06l.04.04s-.03.03-.05.04c-.02.01-.03.02-.05.03-.02,0-.04.02-.06.02-.02,0-.05,0-.07,0Zm.62-.61h.43v.06h-.37v.21h.33v.06h-.33v.21h.37v.06h-.44v-.6Zm.83,0h.06l.38.48v-.48h.07v.6h-.05l-.39-.49v.49h-.07v-.6Zm1.09.06h-.2v-.06h.47v.06h-.2v.54h-.07v-.54Zm.65-.06h.43v.06h-.37v.21h.33v.06h-.33v.21h.37v.06h-.44v-.6Zm.83,0h.26s.07,0,.1.02c.03.01.05.03.07.04.01.01.03.03.03.05,0,.02.01.04.01.07h0s0,.05-.01.07c0,.02-.02.04-.03.05-.01.01-.03.03-.05.04-.02,0-.04.02-.07.02l.18.25h-.08l-.17-.23h-.17v.23h-.07v-.6Zm.25.31s.04,0,.06,0c.02,0,.04-.01.05-.02.01-.01.02-.02.03-.04,0-.02.01-.03.01-.05h0s-.01-.07-.04-.09c-.03-.02-.06-.03-.11-.03h-.19v.24h.18Zm-11.25-.24h-.2v-.06h.47v.06h-.2v.54h-.07v-.54Zm.65-.06h.26s.07,0,.1.02c.03.01.05.03.07.04.01.01.03.03.03.05,0,.02.01.04.01.07h0s0,.05-.01.07c0,.02-.02.04-.03.05-.01.01-.03.03-.05.04-.02,0-.04.02-.07.02l.18.25h-.08l-.17-.23h-.17v.23h-.07v-.6Zm.25.31s.04,0,.06,0c.02,0,.04-.01.05-.02.01-.01.02-.02.03-.04,0-.02.01-.03.01-.05h0s-.01-.07-.04-.09c-.03-.02-.06-.03-.11-.03h-.19v.24h.18Zm.85-.31h.06l.27.6h-.07l-.07-.16h-.33l-.07.16h-.07l.27-.6Zm.17.39l-.14-.31-.14.31h.27Zm.55-.38h.07v.6h-.07v-.6Zm.5,0h.06l.38.48v-.48h.07v.6h-.05l-.39-.49v.49h-.07v-.6Zm.94,0h.07v.6h-.07v-.6Zm.5,0h.06l.38.48v-.48h.07v.6h-.05l-.39-.49v.49h-.07v-.6Zm1.21.61s-.09,0-.13-.02c-.04-.02-.07-.04-.1-.07-.03-.03-.05-.06-.06-.1-.01-.04-.02-.08-.02-.12h0s0-.08.02-.12.03-.07.06-.1c.03-.03.06-.05.09-.07.04-.02.08-.03.12-.03.03,0,.05,0,.07,0,.02,0,.04,0,.06.02.02,0,.03.02.05.03.02.01.03.02.05.03l-.04.05s-.02-.02-.04-.03c-.01,0-.03-.02-.04-.02-.01,0-.03-.01-.05-.01-.02,0-.04,0-.06,0-.03,0-.06,0-.09.02-.03.01-.05.03-.07.05-.02.02-.04.05-.05.08-.01.03-.02.06-.02.09h0s0,.07.02.1c.01.03.03.06.05.08.02.02.05.04.07.05.03.01.06.02.1.02.03,0,.07,0,.1-.02.03-.01.06-.03.08-.04v-.15h-.18v-.06h.25v.24s-.06.05-.1.06c-.04.02-.09.03-.14.03Z" fill="#a1d9f7"/>
      <path d="m58.88,70.77h.72l3.03,3.13v-3.13h.48v3.57h-.72l-3.03-3.13v3.13h-.48v-3.57Zm10.22,2.25h.45v.28c0,.56.14.68.76.68h1.72c.56,0,.79-.09.79-.55v-2.66h.48v2.57c0,.82-.35,1.04-1.23,1.04h-1.8c-.85,0-1.18-.29-1.18-.96v-.39Z" fill="#a1d9f7"/>
      <g>
        <polygon points="66.09 71.16 67.85 74.33 68.39 74.33 66.39 70.77 65.79 70.77 63.8 74.33 64.34 74.33 66.09 71.16" fill="#a1d9f7"/>
        <path d="m69.11,76.99c0,.19-.03.34-.1.43-.05.07-.1.1-.18.1-.11,0-.26-.07-.41-.19l-1.18-.95c-.31-.25-.72-.39-1.15-.39s-.84.14-1.15.39l-1.18.95c-.15.12-.3.19-.41.19-.26,0-.28-.41-.28-.53v-1.08h-.41v1.08c0,.7.37.95.69.95.21,0,.44-.1.67-.28l1.18-.95c.24-.19.55-.3.89-.3s.66.1.89.3l1.18.95c.23.18.46.28.67.28h0c.21,0,.4-.1.52-.28.11-.17.17-.39.17-.66v-1.08h-.41v1.08Z" fill="#a1d9f7"/>
        <path d="m68.41,68.95c-.12,0-.25.02-.38.06-.65.19-1.54.35-1.93.35s-1.28-.16-1.94-.35c-.13-.04-.25-.06-.38-.06-.62,0-1.08.48-1.11,1.15h.41c.03-.44.3-.74.7-.74.08,0,.17.01.26.04.69.2,1.61.37,2.05.37s1.36-.17,2.05-.37c.09-.03.18-.04.26-.04.42,0,.7.33.7.81v2.19h.41v-2.19c0-.71-.47-1.22-1.11-1.22Z" fill="#a1d9f7"/>
      </g>
    </g>
    <g>
      <path class="f2" d="m173.18,112.41c-.35-1.91-1.1-3.4-2.11-4.21-1.8-1.44-3.34-.93-4.82-.44-.77.26-1.57.52-2.47.54-.9-.02-1.7-.28-2.47-.54-1.48-.49-3.02-1-4.82.44-.78.63-1.41,1.67-1.81,2.99-.41-1.32-1.03-2.36-1.81-2.99-1.8-1.44-3.34-.93-4.82-.44-.77.26-1.57.52-2.47.54-.45,0-.88-.08-1.3-.18.22-.12.45-.22.69-.3l.55-.18s0,0,0,0c.4-.13.67-.5.67-.92,0-.42-.27-.79-.67-.91l-.55-.18c-1.14-.37-2.04-1.27-2.4-2.4l-.18-.56c-.13-.4-.5-.67-.92-.67h0c-.42,0-.79.27-.91.67l-.18.55c-.37,1.14-1.27,2.04-2.4,2.4l-.55.18c-.4.13-.67.5-.67.91,0,.42.27.79.67.92l.56.18c.18.06.36.13.54.22-.07.05-.15.11-.22.17-1.01.81-1.76,2.3-2.11,4.21-.41,2.23-.24,4.84.49,7.36.76,2.64,2.07,5.04,3.79,6.94.4.44.99.65,1.58.55.59-.1,1.09-.49,1.33-1.05.36-.84.65-1.62.86-2.3.19-.59.73-.98,1.34-.98.3,0,.59.09.83.27.24.18.42.42.51.71.21.68.51,1.45.86,2.3.24.55.73.94,1.32,1.04.1.02.2.02.29.02.49,0,.96-.2,1.29-.57h0c1.71-1.9,3.02-4.3,3.79-6.94.07-.24.13-.49.19-.73.07.3.16.61.25.91.18.6.74,1.02,1.37,1.02h.41v.63c0,.97.79,1.76,1.76,1.76h2.55l.07,1.22-.21.03c-.4.05-.69.41-.64.81.04.37.36.65.73.65.03,0,.06,0,.09,0l.13-.02.07,1.23-.38.04c-.4.05-.69.41-.64.81.04.37.36.65.73.65.03,0,.06,0,.09,0l.29-.03v.21c.07,1,.9,1.78,1.9,1.78h1.08c1,0,1.83-.78,1.89-1.78l.05-.78.55-.06c.4-.05.69-.41.64-.81-.05-.4-.41-.69-.81-.64l-.29.03.08-1.24.38-.04c.4-.05.69-.41.64-.81-.05-.4-.41-.69-.81-.64h-.12s.04-.58.04-.58h2.34c.97,0,1.76-.79,1.76-1.76v-.63h.62c.63,0,1.19-.42,1.37-1.01.77-2.58.96-5.25.55-7.54Zm-31.69-8.02c.5,1,1.32,1.82,2.32,2.32-.6.3-1.13.71-1.58,1.21-.3.34-.55.71-.75,1.11-.24-.47-.54-.91-.91-1.28-.05-.05-.11-.11-.16-.16t0,0c-.37-.35-.8-.65-1.25-.88,1-.5,1.82-1.32,2.32-2.32Zm8.14,21.33c-.09.1-.2.1-.26.09-.06,0-.17-.05-.22-.17-.34-.8-.62-1.53-.82-2.16-.18-.59-.54-1.09-1.04-1.45-.49-.36-1.08-.55-1.7-.55-.01,0-.02,0-.03,0,.32-.3.71-.51,1.18-.51.4,0,.73-.33.73-.73s-.33-.73-.73-.73c-2.54,0-3.54,2.99-3.71,3.55-.07.13-.12.28-.17.42-.2.64-.48,1.37-.82,2.16-.06.13-.16.17-.22.18-.06,0-.17.01-.26-.09-3.09-3.42-4.7-8.79-3.92-13.05.28-1.54.86-2.75,1.58-3.33.17-.14.34-.25.51-.34.04.05.09.11.13.17.01.02.02.03.04.05.03.04.06.09.09.13.01.02.02.03.03.05.04.06.07.12.11.18h0c.03.06.06.12.09.19,0,.02.02.04.03.06.02.05.04.1.06.14,0,.02.02.04.02.06.03.07.05.13.07.2l.18.55c.13.4.5.67.91.67h0c.37,0,.69-.2.86-.52.02-.05.04-.09.06-.14l.18-.56c.02-.05.04-.11.06-.16,0-.01.01-.03.02-.04.02-.05.04-.09.06-.14,0,0,0-.02,0-.02.02-.05.05-.1.07-.15,0-.01.01-.02.02-.04.02-.04.04-.08.07-.12,0-.01.01-.02.02-.03.03-.05.06-.1.09-.14,0-.01.01-.02.02-.03.01-.02.03-.04.04-.06.74.24,1.57.47,2.54.49h.03c1.13-.02,2.08-.34,2.92-.61,1.36-.45,2.26-.75,3.44.2.72.58,1.3,1.79,1.58,3.33.78,4.26-.83,9.63-3.92,13.05Zm15.13,3.11c-.01.23-.2.4-.43.4h-1.08c-.23,0-.41-.18-.43-.4l-.02-.29,1.99-.23-.03.52Zm.12-2.01l-2.17.25-.07-1.23,2.31-.27-.08,1.24Zm.16-2.73l-2.49.29-.06-1.05h2.6l-.05.76Zm4.14-2.52c0,.16-.13.29-.29.29h-10.42c-.16,0-.29-.13-.29-.29v-.63h11v.63Zm2.06-2.09h-14.91c-.7-2.35-.88-4.77-.5-6.82.28-1.54.86-2.75,1.58-3.33,1.18-.95,2.08-.65,3.44-.2.84.28,1.79.59,2.92.61h.03c1.13-.02,2.08-.33,2.92-.61,1.36-.45,2.26-.75,3.44.2.72.58,1.3,1.79,1.58,3.33.38,2.05.2,4.48-.5,6.82Z" fill="#eff1f4"/>
      <path d="m151.29,111.26c-.31.17-.43.56-.26.88.04.08,1,1.95-.04,5.09-.11.34.07.7.41.82.07.02.14.03.2.03.27,0,.52-.17.61-.44,1.24-3.72,0-6.02-.05-6.12-.17-.31-.57-.43-.88-.26Z" fill="#eff1f4"/>
      <path d="m151.15,120.09s-.04-.09-.07-.13c-.03-.04-.06-.08-.09-.11-.03-.03-.07-.06-.11-.09-.04-.03-.08-.05-.13-.07-.04-.02-.09-.03-.14-.04-.09-.02-.19-.02-.29,0-.05,0-.09.02-.14.04-.04.02-.09.04-.13.07-.04.03-.08.06-.11.09-.03.03-.06.07-.09.11-.03.04-.05.08-.07.13-.02.04-.03.09-.04.14,0,.05-.01.1-.01.14s0,.1.01.14c0,.05.02.09.04.14s.04.09.07.13.06.08.09.11c.03.03.07.06.11.09.04.03.08.05.13.07.04.02.09.03.14.04.05,0,.1.01.14.01s.1,0,.14-.01c.05,0,.09-.02.14-.04.04-.02.09-.04.13-.07.04-.03.08-.06.11-.09.03-.03.06-.07.09-.11.03-.04.05-.08.07-.13s.03-.09.04-.14.01-.1.01-.14,0-.1-.01-.14c0-.05-.02-.09-.04-.14Z" fill="#eff1f4"/>
    </g>
    <path  class="f3" d="m234.12,113.58v-7.31c0-2.35-1.91-4.26-4.26-4.26-1.01,0-1.95.33-2.65.93-.36.31-.84.46-1.42.46s-1.06-.16-1.42-.46c-.7-.6-1.64-.93-2.65-.93-2.35,0-4.26,1.91-4.26,4.26v7.31c0,.59.35,1.43,1.99,2.15-.09.31-.14.63-.14.96v1.05h-1.53l3.08,11.46c.24.89,1.05,1.51,1.97,1.51,1.12,0,2.04-.91,2.04-2.04v-4.45c0-.51.42-.93.93-.93s.93.42.93.93v4.45c0,1.12.91,2.04,2.04,2.04.92,0,1.73-.62,1.97-1.51l3.09-11.46h-1.53v-1.05c0-.33-.05-.66-.14-.96,1.63-.72,1.99-1.57,1.99-2.15Zm-1.53,5.09l-2.77,10.29c-.13.48-.57.82-1.07.82-.61,0-1.11-.5-1.11-1.11v-4.45c0-1.02-.83-1.85-1.85-1.85s-1.85.83-1.85,1.85v4.45c0,.61-.5,1.11-1.11,1.11-.5,0-.94-.34-1.07-.82l-2.77-10.29h10.51v-.93h-9.26v-1.05c0-1.46,1.19-2.65,2.65-2.65.51,0,1,.14,1.41.41,1.05.69,1.94.69,2.99,0,.41-.27.9-.41,1.41-.41,1.46,0,2.65,1.19,2.65,2.65v1.05h-.93v.93h2.17Zm-.82-3.79c-.62-1.05-1.77-1.76-3.08-1.76-.7,0-1.36.19-1.92.56-.37.24-.71.37-.99.37s-.62-.13-.99-.37c-.56-.37-1.22-.56-1.92-.56-1.31,0-2.45.71-3.08,1.76-.89-.4-1.43-.88-1.43-1.3,0-.87,2.09-1.94,5.6-2.24h.04s1.77,2.02,1.77,2.02l1.77-2.02h.05c3.5.3,5.6,1.38,5.6,2.24,0,.42-.53.9-1.43,1.3Zm1.43-2.86c-1.11-.83-3.04-1.32-4.89-1.54l1.75-2h-2.87v-2.78h-.93v3.7h1.76l-2.22,2.54-2.22-2.54h1.76v-3.7h-.93v2.78h-2.87l1.75,2c-1.85.22-3.79.71-4.89,1.54v-5.76c0-1.84,1.5-3.34,3.34-3.34.79,0,1.52.25,2.05.71.53.45,1.21.68,2.02.68s1.49-.23,2.02-.68c.54-.46,1.26-.71,2.05-.71,1.84,0,3.34,1.5,3.34,3.34v5.76Z" fill="#eff1f4"/>

  </g>
</svg>