<svg xmlns="http://www.w3.org/2000/svg" width="493.518" height="436.004" viewBox="0 0 493.518 436.004">
<style> 
.man {
    transform-origin: center;
    animation-name:transtX;
    transform-box: fill-box;
    animation-fill-mode: both;
    animation-duration: 6.5s;
    animation-iteration-count: infinite;
}

@keyframes  transtX{
	0% {
   transform: translateX(0px);
   }
	50% {
       transform: translateX(-30px);

   }
	100% { 
       transform: translateX(0px);

   }
}

.g1 {
   transform-origin: center;
    animation-name:transt1;
    transform-box: fill-box;
    animation-fill-mode: both;
    animation-duration: 6.5s;
    animation-iteration-count: infinite; 
}

@keyframes  transt1{
	0% {
   transform: scalex(-1);
   }
	50% {
       transform: scalex(1);

   }
	100% { 
       transform:scalex(-1);

   }
}
.g2{
   transform-origin: center;
    animation-name:transt2;
    transform-box: fill-box;
    animation-fill-mode: both;
    animation-duration: 6.5s;
    animation-iteration-count: infinite; 
}

@keyframes  transt2{
	0% {
   transform: scalex(1);
   }
	50% {
       transform: scalex(-1);

   }
	100% { 
       transform:scalex(1);

   }
}
.man2{
   transform-origin: center;
    animation-name:man2;
    transform-box: fill-box;
    animation-fill-mode: both;
    animation-duration: 6.5s;
    animation-iteration-count: infinite; 
}
@keyframes  man2{
	0% {
   transform: translateX(0px);
   }
	50% {
       transform: translateX(30px);

   }
	100% { 
       transform: translateX(0px);

   }
}

</style>

  <g id="vector" transform="translate(1.052 12.055)">
    <path id="Path_16976" data-name="Path 16976" d="M486.924,248.836c2.393-31.759-5-64.88-14.891-94.491-14.7-43.916-43.246-88.95-91.311-99.341-27.718-6-55.914.425-79.675,15.444-22.857,14.444-40.683,33.1-68.762,36.716-28.42,3.659-57.584,2.127-86.152,2.127-73.389,0-133.047,77.165-118.146,157.531S113.14,402.963,172.745,402.963c53.563,0,97.629-32.142,148.5-40.768,25.229-4.254,50.564.787,75.516-5.627,29.015-7.445,56.307-25.229,72.379-50.979C480.1,288.072,485.425,268.725,486.924,248.836Z" transform="translate(-26.741 -64.829)" fill="#5bb0e4" opacity="0.24"/>
    <g id="freepik--background-complete--inject-66" transform="translate(0 63.837)">
      <rect id="Rectangle_7018" data-name="Rectangle 7018" width="32.621" height="0.246" transform="translate(410.501 338.315)" fill="#ebebeb"/>
      <rect id="Rectangle_7019" data-name="Rectangle 7019" width="8.559" height="0.246" transform="translate(317.671 340.994)" fill="#ebebeb"/>
      <rect id="Rectangle_7020" data-name="Rectangle 7020" width="18.901" height="0.246" transform="translate(390.615 329.175)" fill="#ebebeb"/>
      <rect id="Rectangle_7021" data-name="Rectangle 7021" width="42.539" height="0.246" transform="translate(51.67 330.829)" fill="#ebebeb"/>
      <rect id="Rectangle_7022" data-name="Rectangle 7022" width="6.235" height="0.246" transform="translate(102.985 330.829)" fill="#ebebeb"/>
      <rect id="Rectangle_7023" data-name="Rectangle 7023" width="92.269" height="0.246" transform="translate(129.489 334.986)" fill="#ebebeb"/>
      <path id="Path_16706" data-name="Path 16706" d="M235.4,333.539H45.214a5.624,5.624,0,0,1-5.624-5.624V60.575A5.624,5.624,0,0,1,45.214,55H235.4a5.624,5.624,0,0,1,5.624,5.624V327.915A5.624,5.624,0,0,1,235.4,333.539ZM45.214,55.2a5.388,5.388,0,0,0-5.378,5.378V327.915a5.388,5.388,0,0,0,5.378,5.378H235.4a5.388,5.388,0,0,0,5.378-5.378V60.575A5.388,5.388,0,0,0,235.4,55.2Z" transform="translate(-0.596 -55)" fill="#ebebeb"/>
      <path id="Path_16707" data-name="Path 16707" d="M451.7,333.539H261.514a5.624,5.624,0,0,1-5.624-5.624V60.575A5.624,5.624,0,0,1,261.514,55H451.7a5.624,5.624,0,0,1,5.624,5.624V327.915A5.624,5.624,0,0,1,451.7,333.539ZM261.514,55.2a5.388,5.388,0,0,0-5.378,5.378V327.915a5.388,5.388,0,0,0,5.378,5.378H451.7a5.388,5.388,0,0,0,5.378-5.378V60.575A5.388,5.388,0,0,0,451.7,55.2Z" transform="translate(-3.855 -55)" fill="#ebebeb"/>
      <rect id="Rectangle_7024" data-name="Rectangle 7024" width="492.467" height="0.246" transform="translate(0 322.467)" fill="#ebebeb"/>
      <path id="Path_16708" data-name="Path 16708" d="M373.933,373.191,346.276,367.4V224.24h-8.864V367.4l-27.657,5.791a6.983,6.983,0,0,0-5.545,6.835h75.229A6.983,6.983,0,0,0,373.933,373.191Z" transform="translate(-4.583 -57.55)" fill="#e0e0e0"/>
      <path id="Path_16709" data-name="Path 16709" d="M341.76,137.35h15.759a26.534,26.534,0,0,1,26.534,26.534v36.374a26.534,26.534,0,0,1-26.534,26.534H341.76V137.35Z" transform="translate(-5.149 -56.241)" fill="#e6e6e6"/>
      <path id="Path_16710" data-name="Path 16710" d="M357.568,216.784H341.76v10.834h15.808a26.534,26.534,0,0,0,26.524-26.534V190.25a26.534,26.534,0,0,1-26.524,26.534Z" transform="translate(-5.149 -57.038)" fill="#e0e0e0"/>
      <rect id="Rectangle_7025" data-name="Rectangle 7025" width="53.236" height="89.432" rx="14.98" transform="translate(300.001 81.109)" fill="#f0f0f0"/>
      <circle id="Ellipse_1600" data-name="Ellipse 1600" cx="17.64" cy="17.64" r="17.64" transform="translate(308.983 86.477)" fill="#e0e0e0"/>
      <circle id="Ellipse_1601" data-name="Ellipse 1601" cx="17.64" cy="17.64" r="17.64" transform="translate(308.983 128.672)" fill="#e0e0e0"/>
      <circle id="Ellipse_1602" data-name="Ellipse 1602" cx="14.705" cy="14.705" r="14.705" transform="translate(311.919 89.412)" fill="#ebebeb"/>
      <path id="Path_16711" data-name="Path 16711" d="M337.409,160.62a5.91,5.91,0,1,1-5.91-5.91A5.91,5.91,0,0,1,337.409,160.62Z" transform="translate(-4.905 -56.502)" fill="#e0e0e0"/>
      <circle id="Ellipse_1603" data-name="Ellipse 1603" cx="14.705" cy="14.705" r="14.705" transform="translate(311.919 131.607)" fill="#ebebeb"/>
      <path id="Path_16712" data-name="Path 16712" d="M337.409,203.46a5.91,5.91,0,1,1-5.91-5.91,5.91,5.91,0,0,1,5.91,5.91Z" transform="translate(-4.905 -57.148)" fill="#e0e0e0"/>
      <path id="Path_16713" data-name="Path 16713" d="M425.067,82.466H68.738A2.728,2.728,0,0,1,66,79.738h0A2.728,2.728,0,0,1,68.738,77H425.067a2.728,2.728,0,0,1,2.738,2.738h0a2.728,2.728,0,0,1-2.738,2.728Z" transform="translate(-0.994 -55.331)" fill="#e6e6e6"/>
     
      <g class="g2"> 
      <path id="Path_16714" data-name="Path 16714" d="M128.865,115.795h0a9.6,9.6,0,0,1-13.582,0l-3.556-3.556a9.6,9.6,0,0,1,0-13.572h0a9.6,9.6,0,0,1,13.582,0l3.556,3.546A9.6,9.6,0,0,1,128.865,115.795Z" transform="translate(-1.641 -55.616)" fill="#e0e0e0"/>
      <path id="Path_16715" data-name="Path 16715" d="M119.128,112.076a4.875,4.875,0,1,0,6.895,6.895l6.028-6.028a4.875,4.875,0,1,0-6.895-6.895Z" transform="translate(-1.773 -55.748)" fill="#f5f5f5"/>
      <path id="Path_16716" data-name="Path 16716" d="M119.788,99.727a4,4,0,0,1-8,0V81.85h8Z" transform="translate(-1.684 -55.405)" fill="#f0f0f0"/>
      <path id="Path_16717" data-name="Path 16717" d="M118.013,99.966a2.2,2.2,0,1,1-2.2-2.2A2.2,2.2,0,0,1,118.013,99.966Z" transform="translate(-1.712 -55.644)" fill="#e0e0e0"/>
      </g>
      <g class="g1"> 
        <path id="Path_16718" data-name="Path 16718" d="M217.545,115.795h0a9.6,9.6,0,0,1-13.582,0l-3.556-3.556a9.6,9.6,0,0,1,0-13.572h0a9.6,9.6,0,0,1,13.582,0l3.556,3.546a9.6,9.6,0,0,1,0,13.582Z" transform="translate(-2.977 -55.616)" fill="#e0e0e0"/>
        <path id="Path_16719" data-name="Path 16719" d="M207.808,112.076a4.875,4.875,0,1,0,6.895,6.895l6.028-6.028a4.875,4.875,0,1,0-6.895-6.895Z" transform="translate(-3.109 -55.748)" fill="#f5f5f5"/>
        <path id="Path_16720" data-name="Path 16720" d="M208.468,99.727a4,4,0,0,1-8,0V81.85h8Z" transform="translate(-3.02 -55.405)" fill="#f0f0f0"/>
        <path id="Path_16721" data-name="Path 16721" d="M206.693,99.966a2.2,2.2,0,1,1-2.2-2.2,2.2,2.2,0,0,1,2.2,2.2Z" transform="translate(-3.048 -55.644)" fill="#e0e0e0"/>
      </g>
      <path id="Path_16722" data-name="Path 16722" d="M379.067,115.795h0a9.6,9.6,0,0,0,13.582,0l3.546-3.556a9.593,9.593,0,0,0,0-13.572h0a9.593,9.593,0,0,0-13.572,0l-3.556,3.546a9.6,9.6,0,0,0,0,13.582Z" transform="translate(-5.669 -55.616)" fill="#e0e0e0"/>
      <path id="Path_16723" data-name="Path 16723" d="M388.911,112.075a4.875,4.875,0,1,1-6.895,6.895l-5.988-6.1a4.875,4.875,0,1,1,6.895-6.895Z" transform="translate(-5.644 -55.747)" fill="#f5f5f5"/>
      <path id="Path_16724" data-name="Path 16724" d="M388.37,99.727a4,4,0,1,0,8,0V81.85h-8Z" transform="translate(-5.851 -55.405)" fill="#f0f0f0"/>
      <path id="Path_16725" data-name="Path 16725" d="M390.2,99.966a2.2,2.2,0,1,0,2.2-2.2A2.2,2.2,0,0,0,390.2,99.966Z" transform="translate(-5.879 -55.644)" fill="#e0e0e0"/>
      <path id="Path_16726" data-name="Path 16726" d="M290.387,115.795h0a9.6,9.6,0,0,0,13.582,0l3.546-3.556a9.593,9.593,0,0,0,0-13.572h0a9.593,9.593,0,0,0-13.572,0l-3.556,3.546A9.6,9.6,0,0,0,290.387,115.795Z" transform="translate(-4.333 -55.616)" fill="#e0e0e0"/>
      <path id="Path_16727" data-name="Path 16727" d="M300.231,112.075a4.875,4.875,0,1,1-6.895,6.895l-5.988-6.1a4.875,4.875,0,1,1,6.895-6.895Z" transform="translate(-4.308 -55.747)" fill="#f5f5f5"/>
      <path id="Path_16728" data-name="Path 16728" d="M299.69,99.727a4,4,0,1,0,8,0V81.85h-8Z" transform="translate(-4.515 -55.405)" fill="#f0f0f0"/>
      <path id="Path_16729" data-name="Path 16729" d="M301.52,99.966a2.2,2.2,0,1,0,2.2-2.2A2.2,2.2,0,0,0,301.52,99.966Z" transform="translate(-4.543 -55.644)" fill="#e0e0e0"/>
    </g>
    <g id="freepik--Stage--inject-66" transform="translate(43.219 305.421)">
      <path id="Path_16730" data-name="Path 16730" d="M424.853,300.28h0c12.6,0,21.57,9.386,20.91,21.9l-1.448,27.342a7.939,7.939,0,0,1-7.879,7.525H385.81l10.46-34.867C399.964,309.666,412.246,300.28,424.853,300.28Z" transform="translate(-49.032 -300.28)" fill="#fff" opacity="0.3"/>
      <rect id="Rectangle_7026" data-name="Rectangle 7026" width="116.518" height="11.337" transform="translate(0 102.128)" fill="#407bff"/>
      <rect id="Rectangle_7027" data-name="Rectangle 7027" width="116.518" height="11.337" transform="translate(0 102.128)" fill="#fff" opacity="0.3"/>
      <rect id="Rectangle_7028" data-name="Rectangle 7028" width="188.91" height="11.337" transform="translate(106.688 102.128)" fill="#407bff"/>
      <rect id="Rectangle_7029" data-name="Rectangle 7029" width="188.91" height="11.337" transform="translate(106.688 102.128)" fill="#fff" opacity="0.7"/>
    </g>
    <g id="freepik--Board--inject-66" transform="translate(69.162 145.911)">
      <path id="Path_16731" data-name="Path 16731" d="M87.146,400.072h0a.985.985,0,0,1-.9-1.064L106.067,161.57h1.97v1.97h-.158L88.18,399.175A.985.985,0,0,1,87.146,400.072Z" transform="translate(-70.461 -138.68)" fill="#263238"/>
      <path id="Path_16732" data-name="Path 16732" d="M175.246,400.072h0a.985.985,0,0,0,.906-1.064L156.335,161.57h-1.97v1.97h.167L167.2,315.377H103.444L90.64,161.57H88.67v1.97h.158l19.7,235.635a.985.985,0,0,0,1.064.9h0a.985.985,0,0,0,.9-1.064l-6.816-81.661h63.755l6.826,81.828a.985.985,0,0,0,.995.9Z" transform="translate(-70.498 -138.68)" fill="#263238"/>
      <path id="Path_16733" data-name="Path 16733" d="M179.578,283.711H85.428L73.54,141.27h94.15Z" transform="translate(-70.27 -138.374)" fill="#407bff"/>
      <path id="Path_16734" data-name="Path 16734" d="M179.578,283.711H85.428L73.54,141.27h94.15Z" transform="translate(-70.27 -138.374)" fill="#fff" opacity="0.8"/>
      <path id="Path_16735" data-name="Path 16735" d="M167.561,144.574H73.342a3.122,3.122,0,0,1-3.122-3.122h0a3.122,3.122,0,0,1,3.122-3.122h94.219a3.122,3.122,0,0,1,3.122,3.122h0A3.122,3.122,0,0,1,167.561,144.574Z" transform="translate(-70.22 -138.33)" fill="#407bff"/>
      <path id="Path_16736" data-name="Path 16736" d="M167.561,144.574H73.342a3.122,3.122,0,0,1-3.122-3.122h0a3.122,3.122,0,0,1,3.122-3.122h94.219a3.122,3.122,0,0,1,3.122,3.122h0A3.122,3.122,0,0,1,167.561,144.574Z" transform="translate(-70.22 -138.33)" fill="#fff" opacity="0.5"/>
      <path id="Path_16737" data-name="Path 16737" d="M129.689,231.149l-1.4-16.675a.985.985,0,0,1,.906-1.064h0a.985.985,0,0,1,1.064.9l1.389,16.675a.985.985,0,0,1-.9,1.064h0A.985.985,0,0,1,129.689,231.149Z" transform="translate(-71.095 -139.461)" fill="#407bff"/>
      <path id="Path_16738" data-name="Path 16738" d="M113.309,214.221a24.761,24.761,0,0,1-24.151-22.21,20.034,20.034,0,0,1,20.26-22.2,24.751,24.751,0,0,1,24.151,22.2,20.053,20.053,0,0,1-20.26,22.21Zm-3.8-43.426A19.157,19.157,0,0,0,90.143,192.01a23.638,23.638,0,0,0,23.077,21.225,19.157,19.157,0,0,0,19.364-21.225,23.638,23.638,0,0,0-23.077-21.215Z" transform="translate(-70.504 -138.804)" fill="#407bff"/>
      <path id="Path_16739" data-name="Path 16739" d="M144.629,214.221a24.761,24.761,0,0,1-24.151-22.21,20.043,20.043,0,0,1,20.26-22.2,24.751,24.751,0,0,1,24.151,22.2,20.043,20.043,0,0,1-20.26,22.21Zm-3.8-43.426a19.157,19.157,0,0,0-19.364,21.215,23.638,23.638,0,0,0,23.077,21.225A19.157,19.157,0,0,0,163.9,192.01a23.638,23.638,0,0,0-23.067-21.215Z" transform="translate(-70.975 -138.804)" fill="#407bff"/>
      <path id="Path_16740" data-name="Path 16740" d="M121,192.6l9.317-10.2c-.177-.305-.374-.611-.561-.906l-8.864,9.7a5.405,5.405,0,0,0,.059.985A1.276,1.276,0,0,1,121,192.6Z" transform="translate(-70.983 -138.98)" fill="#407bff"/>
      <path id="Path_16741" data-name="Path 16741" d="M131.533,184.645c-.158-.335-.315-.67-.492-.985l-9.751,10.687c.069.424.158.837.256,1.241Z" transform="translate(-70.989 -139.013)" fill="#407bff"/>
      <path id="Path_16742" data-name="Path 16742" d="M132.5,187.123c-.118-.374-.246-.739-.384-1.1L122,197.12c.118.374.246.739.374,1.1Z" transform="translate(-71 -139.049)" fill="#407bff"/>
      <path id="Path_16743" data-name="Path 16743" d="M129.016,180.337l-.64-.827-7.279,7.978c-.079.561-.128,1.123-.158,1.694Z" transform="translate(-70.984 -138.95)" fill="#407bff"/>
      <path id="Path_16744" data-name="Path 16744" d="M127.519,178.459c-.227-.256-.463-.5-.709-.749l-4.413,4.846a19.48,19.48,0,0,0-.8,2.393Z" transform="translate(-70.994 -138.923)" fill="#407bff"/>
      <path id="Path_16745" data-name="Path 16745" d="M132.506,201.385a20.82,20.82,0,0,0,.68-2.265L127,205.9c.227.256.463.512.7.758Z" transform="translate(-71.075 -139.246)" fill="#407bff"/>
      <path id="Path_16746" data-name="Path 16746" d="M130.068,206.16l-1.438,1.576.1.1a19.941,19.941,0,0,0,1.34-1.674Z" transform="translate(-71.1 -139.352)" fill="#407bff"/>
      <path id="Path_16747" data-name="Path 16747" d="M133.233,189.871c-.079-.414-.177-.818-.276-1.221L122.94,199.632q.227.5.473.985Z" transform="translate(-71.014 -139.088)" fill="#407bff"/>
      <path id="Path_16748" data-name="Path 16748" d="M133.576,196.625c.059-.542.1-1.093.108-1.645L125.45,204c.207.286.414.561.63.837Z" transform="translate(-71.052 -139.184)" fill="#407bff"/>
      <path id="Path_16749" data-name="Path 16749" d="M133.645,192.979v-.65l-.089-.749L124.14,201.9q.266.463.561.916Z" transform="translate(-71.032 -139.132)" fill="#407bff"/>
      <path id="Path_16750" data-name="Path 16750" d="M162.238,241.4H100.266a3.6,3.6,0,0,1-3.506-3.231h0a2.955,2.955,0,0,1,2.955-3.221h61.972a3.6,3.6,0,0,1,3.506,3.221h0a2.955,2.955,0,0,1-2.955,3.231Z" transform="translate(-70.62 -139.786)" fill="#407bff"/>
      <path id="Path_16751" data-name="Path 16751" d="M155.864,254.671H112.606a3.6,3.6,0,0,1-3.506-3.231h0a2.955,2.955,0,0,1,2.955-3.221h43.239a3.585,3.585,0,0,1,3.506,3.221h0a2.955,2.955,0,0,1-2.935,3.231Z" transform="translate(-70.806 -139.986)" fill="#407bff"/>
      <path id="Path_16752" data-name="Path 16752" d="M162.238,241.4H100.266a3.6,3.6,0,0,1-3.506-3.231h0a2.955,2.955,0,0,1,2.955-3.221h61.972a3.6,3.6,0,0,1,3.506,3.221h0a2.955,2.955,0,0,1-2.955,3.231Z" transform="translate(-70.62 -139.786)" fill="#407bff"/>
      <path id="Path_16753" data-name="Path 16753" d="M155.864,254.671H112.606a3.6,3.6,0,0,1-3.506-3.231h0a2.955,2.955,0,0,1,2.955-3.221h43.239a3.585,3.585,0,0,1,3.506,3.221h0a2.955,2.955,0,0,1-2.935,3.231Z" transform="translate(-70.806 -139.986)" fill="#407bff"/>
    </g>


    <g class="man"> 
        <g id="freepik--character-1--inject-66" transform="translate(160.259 143.615)">
          <path id="Path_16754" data-name="Path 16754" d="M234.582,394.084l6.146-1.94-2.482-14.114-6.156,1.94Z" transform="translate(-163.755 -139.646)" fill="#ce7a63"/>
          <path id="Path_16755" data-name="Path 16755" d="M240.889,391.546l-6.895,2.177a.512.512,0,0,0-.355.561l.926,5.417a.985.985,0,0,0,1.33.729c2.393-.8,3.516-1.3,6.56-2.255,1.871-.591,9.849-2.955,12.45-3.733s1.97-3.27.768-3.152c-5.141.542-11.563,1.064-13.612.286a1.753,1.753,0,0,0-1.172-.03Z" transform="translate(-163.779 -139.845)" fill="#263238"/>
          <path id="Path_16756" data-name="Path 16756" d="M232.09,379.97l6.156-1.94,1.28,7.279-6.156,1.94Z" transform="translate(-163.755 -139.646)" opacity="0.2"/>
          <path id="Path_16757" data-name="Path 16757" d="M229.656,235s4.019,51.217,4.974,69.083c1.044,19.571,6.895,76.825,6.895,76.825l-11.376,3.073S219.127,328.529,216.3,309.51c-3.073-20.684-9.111-74.471-9.111-74.471Z" transform="translate(-163.38 -137.491)" fill="#263238"/>
          <path id="Path_16758" data-name="Path 16758" d="M230.118,386.266l12.184-3.28.2-4.846-13.8,4.639Z" transform="translate(-163.704 -139.647)" fill="#263238"/>
          <path id="Path_16759" data-name="Path 16759" d="M243.462,391.883a8.348,8.348,0,0,1-1.694.305.158.158,0,0,1-.128-.236c.167-.2,1.635-1.9,2.453-1.852a.492.492,0,0,1,.433.286.808.808,0,0,1,0,.817,1.861,1.861,0,0,1-1.064.68Zm-1.34,0c1.152-.138,1.97-.423,2.177-.8a.542.542,0,0,0,0-.532.236.236,0,0,0-.207-.138c-.463-.049-1.369.778-1.97,1.448Z" transform="translate(-163.899 -139.827)" fill="#407bff"/>
          <path id="Path_16760" data-name="Path 16760" d="M241.8,392.164h-.069a.168.168,0,0,1-.108-.089c0-.079-.571-1.753-.089-2.531a.867.867,0,0,1,.571-.384.5.5,0,0,1,.611.256c.305.611-.325,2.147-.847,2.7Zm.266-2.689a.522.522,0,0,0-.286.217,3.26,3.26,0,0,0,.049,2.029,3.112,3.112,0,0,0,.621-2.147c0-.079-.1-.158-.315-.118Z" transform="translate(-163.895 -139.813)" fill="#407bff"/>
          <path id="Path_16761" data-name="Path 16761" d="M215.531,250.982c-2.344-9.14-4.738-6.954-6.441-2.955q.266,4.211.571,8.864c1.4,12.006,3.171,26.869,4.718,38.885C217.275,283.741,218.851,263.707,215.531,250.982Z" transform="translate(-163.409 -137.635)" opacity="0.6"/>
          <path id="Path_16762" data-name="Path 16762" d="M187.53,396.9h6.294l2.088-14.567h-6.284Z" transform="translate(-163.084 -139.71)" fill="#ce7a63"/>
          <path id="Path_16763" data-name="Path 16763" d="M194.191,396.38H187.12a.512.512,0,0,0-.5.433l-.827,5.594a.985.985,0,0,0,.985,1.113c2.462,0,3.644-.187,6.757-.187,1.911,0,10.027.207,12.666.207s2.8-2.61,1.694-2.856c-4.925-1.054-11.012-2.521-12.666-3.94a1.645,1.645,0,0,0-1.034-.364Z" transform="translate(-163.058 -139.922)" fill="#263238"/>
          <path id="Path_16764" data-name="Path 16764" d="M189.634,382.33h6.294l-1.074,7.515H188.56Z" transform="translate(-163.099 -139.71)" opacity="0.2"/>
          <path id="Path_16765" data-name="Path 16765" d="M218.032,234.62s-3.6,48.084-6.205,66.1c-2.837,19.7-14.153,85.088-14.153,85.088H186.15s5.91-63.765,6.895-83.3c1.1-21.2,3.231-67.891,3.231-67.891Z" transform="translate(-163.063 -137.485)" fill="#263238"/>
          <path id="Path_16766" data-name="Path 16766" d="M185.676,388.053h12.45l1.074-4.373-13.809.68Z" transform="translate(-163.052 -139.731)" fill="#263238"/>
          <path id="Path_16767" data-name="Path 16767" d="M196.463,397.476a7.379,7.379,0,0,1-1.655-.227.138.138,0,0,1-.108-.118.187.187,0,0,1,.079-.148c.207-.138,2.1-1.359,2.837-1.054a.473.473,0,0,1,.305.414.867.867,0,0,1-.246.8,1.842,1.842,0,0,1-1.211.335Zm-1.241-.443a3.053,3.053,0,0,0,2.265-.1.571.571,0,0,0,.148-.522.227.227,0,0,0-.148-.207C197.093,396,195.98,396.569,195.222,397.032Z" transform="translate(-163.192 -139.915)" fill="#407bff"/>
          <path id="Path_16768" data-name="Path 16768" d="M194.838,397.227h-.069a.148.148,0,0,1-.069-.118c0-.079,0-1.891.709-2.5a.778.778,0,0,1,.64-.207.512.512,0,0,1,.492.443c.079.689-.985,1.97-1.625,2.374A.128.128,0,0,1,194.838,397.227Zm1.083-2.551a.5.5,0,0,0-.325.128,3.5,3.5,0,0,0-.591,1.97c.591-.463,1.3-1.458,1.241-1.911,0-.079-.049-.187-.256-.207Z" transform="translate(-163.192 -139.892)" fill="#407bff"/>
          <path id="Path_16769" data-name="Path 16769" d="M232.515,182.65c1.536,3.556,3.28,7.259,5.122,10.687a48.972,48.972,0,0,0,2.955,4.925,20.83,20.83,0,0,0,3.162,3.94,5.776,5.776,0,0,0,.66.532c.177.128.3.177.3.187s-.118.049,0,.059a.985.985,0,0,0,.453-.089,6.2,6.2,0,0,0,1.724-1.064,19.838,19.838,0,0,0,1.97-1.773,75.213,75.213,0,0,0,7.16-9.308l3.94,1.852a45.927,45.927,0,0,1-5.772,11.819,23.949,23.949,0,0,1-2.265,2.778,14.587,14.587,0,0,1-3.29,2.59,8.864,8.864,0,0,1-2.462.985,7.672,7.672,0,0,1-3.112,0,10.765,10.765,0,0,1-4.472-2.157,27.144,27.144,0,0,1-5.013-5.378,60.471,60.471,0,0,1-3.615-5.594c-1.074-1.9-2.088-3.8-3-5.742s-1.8-3.841-2.62-5.91Z" transform="translate(-163.638 -136.702)" fill="#ce7a63"/>
          <path id="Path_16770" data-name="Path 16770" d="M242.87,197.717l-9.938,7.417s-.384-.414-.985-1.143c-.463-.542-1.054-1.251-1.743-2.078-3.861-4.708-9.5-13.3-9.554-17.5-.069-6.274,6.441-7.2,13.789-.788,3.152,2.768,4.806,7.367,6.4,10.214.532.936.985,1.763,1.33,2.4C242.594,197.136,242.87,197.717,242.87,197.717Z" transform="translate(-163.583 -136.65)" fill="#407bff"/>
          <path id="Path_16771" data-name="Path 16771" d="M242.87,197.717l-9.938,7.417s-.384-.414-.985-1.143c-.463-.542-1.054-1.251-1.743-2.078-3.861-4.708-9.5-13.3-9.554-17.5-.069-6.274,6.441-7.2,13.789-.788,3.152,2.768,4.806,7.367,6.4,10.214.532.936.985,1.763,1.33,2.4C242.594,197.136,242.87,197.717,242.87,197.717Z" transform="translate(-163.583 -136.65)" fill="#fff" opacity="0.6"/>
          <path id="Path_16772" data-name="Path 16772" d="M220.55,185.185c2.246-1.487,3.89,2.364,8.333,5.6,1.97,1.448,6.313,10.893,5.959,12.972l-1.921,1.428S220.5,191.439,220.55,185.185Z" transform="translate(-163.581 -136.735)" opacity="0.3"/>
          <path id="Path_16773" data-name="Path 16773" d="M255.93,191.025l2.167-6.895,5.614,4.127s-3.063,6.166-5.141,5.6Z" transform="translate(-164.115 -136.724)" fill="#ce7a63"/>
          <path id="Path_16774" data-name="Path 16774" d="M243.044,196.99l-10.864,8.126,1.349,1.418,10.342-7.633Z" transform="translate(-163.757 -136.918)" fill="#407bff"/>
          <path id="Path_16775" data-name="Path 16775" d="M243.044,196.99l-10.864,8.126,1.349,1.418,10.342-7.633Z" transform="translate(-163.757 -136.918)" fill="#fff" opacity="0.8"/>
          <path id="Path_16776" data-name="Path 16776" d="M230.036,234.138H196.381c-.236-2.955.453-12.8-.059-25.234a160.426,160.426,0,0,0-3.349-27.45c-.148-.68-.305-1.349-.463-2.029,0,0,1.7-.345,4.147-.7,2.029-.3,4.58-.611,7.072-.729a128.194,128.194,0,0,1,14.3,0c2.2.207,4.344.571,6.057.906,2.2.443,3.487.818,3.487.818S235.867,198.681,230.036,234.138Z" transform="translate(-163.159 -136.629)" fill="#407bff"/>
          <path id="Path_16777" data-name="Path 16777" d="M230.036,234.138H196.381c-.236-2.955.453-12.8-.059-25.234a160.426,160.426,0,0,0-3.349-27.45c-.148-.68-.305-1.349-.463-2.029,0,0,1.7-.345,4.147-.7,2.029-.3,4.58-.611,7.072-.729a128.194,128.194,0,0,1,14.3,0c2.2.207,4.344.571,6.057.906,2.2.443,3.487.818,3.487.818S235.867,198.681,230.036,234.138Z" transform="translate(-163.159 -136.629)" fill="#fff" opacity="0.6"/>
          <path id="Path_16778" data-name="Path 16778" d="M264.049,181.41l3.162,3.881-3.467,2.886-5.614-4.117Z" transform="translate(-164.148 -136.683)" fill="#ce7a63"/>
          <path id="Path_16779" data-name="Path 16779" d="M197.164,186.048c-.335,2.137-.768,4.1-1.231,6.126s-.985,4.009-1.635,6.018a62.254,62.254,0,0,1-2.2,6,30.414,30.414,0,0,1-3.388,6.067,12.942,12.942,0,0,1-3.171,3.053,8.3,8.3,0,0,1-2.689,1.152,7.289,7.289,0,0,1-3.26,0,8.864,8.864,0,0,1-4.284-2.689,15.483,15.483,0,0,1-2.177-3.093,30.178,30.178,0,0,1-2.482-6.1c-.305-.985-.552-2.039-.768-3.063s-.424-1.97-.561-3.112l4.235-1.162a55.264,55.264,0,0,0,5.476,9.633,10.283,10.283,0,0,0,1.507,1.586c.463.384.867.463.749.355a.7.7,0,0,0-.305-.079c-.079,0-.079,0,0-.079a6.44,6.44,0,0,0,.985-1.211,23.076,23.076,0,0,0,2.147-4.472c.64-1.674,1.192-3.457,1.7-5.269.985-3.6,1.891-7.436,2.6-11.081Z" transform="translate(-162.81 -136.732)" fill="#ce7a63"/>
          <path id="Path_16780" data-name="Path 16780" d="M174.011,195.665l-2.157-6.895L166.23,192.9s3.073,6.166,5.151,5.6Z" transform="translate(-162.763 -136.794)" fill="#ce7a63"/>
          <path id="Path_16781" data-name="Path 16781" d="M165.872,186.05l-3.162,3.881,3.467,2.9L171.8,188.7Z" transform="translate(-162.71 -136.753)" fill="#ce7a63"/>
          <path id="Path_16782" data-name="Path 16782" d="M196.329,208.909a160.428,160.428,0,0,0-3.349-27.45c2.256-.187,6.1,0,6.737,3.664C200.4,189.024,199.54,198.213,196.329,208.909Z" transform="translate(-163.166 -136.683)" opacity="0.3"/>
          <path id="Path_16783" data-name="Path 16783" d="M200.363,190.2A113.769,113.769,0,0,1,195.5,202.77c-.4.926-.778,1.743-1.083,2.4l-.877,1.871-12.6-6.373s.138-.522.394-1.408c.187-.67.433-1.537.749-2.551,1.852-5.91,5.7-16.547,9.849-17.286C198.019,178.265,202.609,182.717,200.363,190.2Z" transform="translate(-162.985 -136.651)" fill="#407bff"/>
          <path id="Path_16784" data-name="Path 16784" d="M200.363,190.2A113.769,113.769,0,0,1,195.5,202.77c-.4.926-.778,1.743-1.083,2.4l-.877,1.871-12.6-6.373s.138-.522.394-1.408c.187-.67.433-1.537.749-2.551,1.852-5.91,5.7-16.547,9.849-17.286C198.019,178.265,202.609,182.717,200.363,190.2Z" transform="translate(-162.985 -136.651)" fill="#fff" opacity="0.6"/>
          <path id="Path_16785" data-name="Path 16785" d="M212.123,182.675c-8.313-.227-9.564-4.284-9.613-4.462v-.177l1.418-.089a128.194,128.194,0,0,1,14.3,0l.808.089a2.679,2.679,0,0,1,.936,2.413c-.364,1.418-2.315,1.891-4.019,2.088Z" transform="translate(-163.31 -136.628)" fill="#fff"/>
          <path id="Path_16786" data-name="Path 16786" d="M181.231,198.65,195,205.692l-1.556,1.911-12.8-6.648Z" transform="translate(-162.98 -136.943)" fill="#407bff"/>
          <path id="Path_16787" data-name="Path 16787" d="M181.231,198.65,195,205.692l-1.556,1.911-12.8-6.648Z" transform="translate(-162.98 -136.943)" fill="#fff" opacity="0.8"/>
          <path id="Path_16788" data-name="Path 16788" d="M211.557,183.37l5.575-.621-1.231,3.743s3.831,19.955,4.58,26.672c.443,4.028.837,16.173.837,16.173l-2.906,3.2L214.1,230.49s.1-13.671.079-18.221c0-6.451-.325-25.776-.325-25.776l-2.5-2.413Z" transform="translate(-163.443 -136.703)" fill="#263238"/>
          <path id="Path_16789" data-name="Path 16789" d="M210.04,186.969l4.058-3.693,5,3.447s5.181-4.925,1.33-8.5c-.739-.108-1.5-.2-2.275-.276a128.2,128.2,0,0,0-14.3,0c-.985.049-1.97.128-2.955.227C201.225,179.562,202.693,184.122,210.04,186.969Z" transform="translate(-163.285 -136.628)" fill="#407bff"/>
          <path id="Path_16790" data-name="Path 16790" d="M210.04,186.969l4.058-3.693,5,3.447s5.181-4.925,1.33-8.5c-.739-.108-1.5-.2-2.275-.276a128.2,128.2,0,0,0-14.3,0c-.985.049-1.97.128-2.955.227C201.225,179.562,202.693,184.122,210.04,186.969Z" transform="translate(-163.285 -136.628)" fill="#fff" opacity="0.8"/>
          <path id="Path_16791" data-name="Path 16791" d="M212.4,181.6c-8.008-.138-9.061-3.851-9.061-3.851,3.112-3.073,1.921-11.465.857-16.074l3.831,3.171,5.21,4.334a15.767,15.767,0,0,0-.335,2.1c-.276,2.827.453,5.4,4.609,6.382,0,0,4.925,3.27-2.384,3.861Z" transform="translate(-163.322 -136.386)" fill="#ce7a63"/>
          <path id="Path_16792" data-name="Path 16792" d="M213.31,169.224a15.762,15.762,0,0,0-.335,2.1c-1.97-.384-4.541-2.462-4.806-4.442a8.785,8.785,0,0,1-.069-1.97Z" transform="translate(-163.393 -136.435)" opacity="0.2"/>
          <path id="Path_16793" data-name="Path 16793" d="M202.606,154.784c1.33,6.116,1.793,9.751,5.407,12.548a8.145,8.145,0,0,0,13.169-5.91c.483-5.693-1.773-14.774-8.214-16.478a8.234,8.234,0,0,0-10.362,9.839Z" transform="translate(-163.308 -136.129)" fill="#ce7a63"/>
          <path id="Path_16794" data-name="Path 16794" d="M212.41,155.535c.079.5.4.877.739.837s.532-.473.453-.985-.4-.877-.739-.837S212.331,154.993,212.41,155.535Z" transform="translate(-163.459 -136.278)" fill="#263238"/>
          <path id="Path_16795" data-name="Path 16795" d="M218.19,154.855c.079.5.414.877.739.837s.532-.483.463-.985-.414-.877-.739-.837S218.121,154.353,218.19,154.855Z" transform="translate(-163.546 -136.268)" fill="#263238"/>
          <path id="Path_16796" data-name="Path 16796" d="M216.39,155.34a19.127,19.127,0,0,0,3.073,4.009,2.856,2.856,0,0,1-2.334.729Z" transform="translate(-163.519 -136.29)" fill="#ba4d3c"/>
          <path id="Path_16797" data-name="Path 16797" d="M210.326,153.881a.227.227,0,0,1-.138,0,.3.3,0,0,1-.118-.4,2.827,2.827,0,0,1,2.226-1.507.286.286,0,0,1,.315.276.3.3,0,0,1-.286.315,2.275,2.275,0,0,0-1.733,1.2.315.315,0,0,1-.266.118Z" transform="translate(-163.423 -136.24)" fill="#263238"/>
          <path id="Path_16798" data-name="Path 16798" d="M220.333,152.562a.325.325,0,0,1-.246-.128,2.482,2.482,0,0,0-1.881-1.143.3.3,0,0,1,0-.591h0a3.044,3.044,0,0,1,2.364,1.4.3.3,0,0,1-.079.414A.335.335,0,0,1,220.333,152.562Z" transform="translate(-163.542 -136.22)" fill="#263238"/>
          <path id="Path_16799" data-name="Path 16799" d="M204.693,159.638s2.709,1.783,2.462-.374-1.231-9.416-1.231-9.416l3.014-2.462s12.8.089,12.016-6.422-6.786-1.359-6.786-1.359,1.221-3.674-3.083-3.6a4.767,4.767,0,0,0-4.8,4.117s-4.058-2.393-6.057-.246a7.042,7.042,0,0,0-1.517,5.358s-9.849,1.389-3.447,10.834S206.416,166.641,204.693,159.638Z" transform="translate(-163.168 -135.999)" fill="#263238"/>
          <path id="Path_16800" data-name="Path 16800" d="M201.167,161.358a6.747,6.747,0,0,0,3.881,2.315c1.97.325,2.364-1.468,1.379-3.191-.877-1.556-2.955-3.6-4.669-3.142S199.916,159.851,201.167,161.358Z" transform="translate(-163.277 -136.32)" fill="#ce7a63"/>
          <path id="Path_16801" data-name="Path 16801" d="M210.279,168c-.877-2.226-2.088-6.146-.8-9.524s6.038,2.462,7.692,2.462,3.063-2.59,4.058-.808-3.25,12.036-4.147,9.347c0,0-1.2,1.842-2.3.158,0,0-.749,1.418-1.911,0C212.87,169.633,211.215,170.362,210.279,168Z" transform="translate(-163.406 -136.322)" fill="#263238"/>
          <path id="Path_16802" data-name="Path 16802" d="M210.279,168c-.877-2.226-2.088-6.146-.8-9.524s6.038,2.462,7.692,2.462,3.063-2.59,4.058-.808-3.25,12.036-4.147,9.347c0,0-1.2,1.842-2.3.158,0,0-.749,1.418-1.911,0C212.87,169.633,211.215,170.362,210.279,168Z" transform="translate(-163.406 -136.322)" fill="#fff" opacity="0.3"/>
          <path id="Path_16803" data-name="Path 16803" d="M218.761,161.83a37.49,37.49,0,0,0-7.131-.621,4.135,4.135,0,0,0,4.383,2.955,2.462,2.462,0,0,0,2.748-2.334Z" transform="translate(-163.447 -136.379)" fill="#263238"/>
          <path id="Path_16804" data-name="Path 16804" d="M214.824,162.92a4.974,4.974,0,0,1,2.955.847,2.955,2.955,0,0,1-1.7.433,4.787,4.787,0,0,1-2.955-.847,2.876,2.876,0,0,1,1.7-.433Z" transform="translate(-163.47 -136.405)" fill="#a02724"/>
          <path id="Path_16805" data-name="Path 16805" d="M218.518,161.781a1.074,1.074,0,0,1-.847.758,27.772,27.772,0,0,1-4.688-.552,1.468,1.468,0,0,1-1.162-.808A42.173,42.173,0,0,1,218.518,161.781Z" transform="translate(-163.45 -136.378)" fill="#fff"/>
        </g>
    </g>


    <g id="freepik--character-3--inject-66" transform="translate(323.061 225.23)">
      <path id="Path_16806" data-name="Path 16806" d="M407.984,237.59c-.374-.089-.837.246-.985.808s-.059,1.143.315,1.231.837-.246.985-.808S408.309,237.678,407.984,237.59Z" transform="translate(-329.192 -219.144)" fill="#2e353a"/>
      <path id="Path_16807" data-name="Path 16807" d="M405.878,243.7a2.876,2.876,0,0,1-2.1-1.261,19.022,19.022,0,0,0,3.94-3.172Z" transform="translate(-329.145 -219.17)" fill="#a02724"/>
      <path id="Path_16808" data-name="Path 16808" d="M410.474,236.67a2.738,2.738,0,0,0-1.467-1.97.345.345,0,1,1,.256-.64,3.339,3.339,0,0,1,1.891,2.521h0a.345.345,0,0,1-.276.394h-.187a.364.364,0,0,1-.217-.305Z" transform="translate(-329.22 -219.091)" fill="#2e353a"/>
      <path id="Path_16809" data-name="Path 16809" d="M424.4,264.228c.384,1.7.64,2.512-.886,3.25a16.6,16.6,0,0,1-10.263,1.7c-3.634-.621-4.284-1.921-4.137-2.955a2.718,2.718,0,0,1,1.674-1.743,4.462,4.462,0,0,0,2.689-4.147,7.939,7.939,0,0,0-.059-2.817l6.5-4.3,4.925-5.466a42.284,42.284,0,0,0-.443,16.478Z" transform="translate(-329.225 -219.297)" fill="#b55b52"/>
      <path id="Path_16810" data-name="Path 16810" d="M403.87,268.2s2.4-6.629,6.3-8.165,15.591-.67,15.591-.67a48.7,48.7,0,0,0,2.187,7.023Z" transform="translate(-329.146 -219.469)" fill="#407bff"/>
      <path id="Path_16811" data-name="Path 16811" d="M427.751,240.153a9.849,9.849,0,0,0-10.194-9.593c-7.525.276-11.928,9.938-12.6,16.527-.749,7.308,6.451,13.444,13.356,10.115,4.59-2.216,5.91-6.215,8.628-12.8A9.85,9.85,0,0,0,427.751,240.153Z" transform="translate(-329.162 -219.038)" fill="#b55b52"/>
      <path id="Path_16812" data-name="Path 16812" d="M426.561,262.3q.621,2.1,1.418,4.137l-22.25,1.674a19.891,19.891,0,0,1,2.059-3.733C413.166,262.2,422.563,262.191,426.561,262.3Z" transform="translate(-329.174 -219.516)" opacity="0.2"/>
      <path id="Path_16813" data-name="Path 16813" d="M422.507,254.17a8.727,8.727,0,0,0-3.6,0,2.669,2.669,0,0,1-2.955-1.428l-3.516-7.308s-5.043-1.674,1.133-11.75c0,0-11.75-3.891-3.073-11.878s3.073,2.817,3.073,2.817,10.972-5.91,5.486,1.576c0,0,16.744.847,12.617,9.928,0,0,6.895.138-6.609,17.079a2.6,2.6,0,0,1-2.561.965Z" transform="translate(-329.198 -218.862)" fill="#263238"/>
      <path id="Path_16814" data-name="Path 16814" d="M415.126,241.06c-1.891-.276-3.94,1.625-4.59,3.319-.739,1.97.227,4.137,2.216,3.6a6.539,6.539,0,0,0,3.713-2.778C417.529,243.522,417.017,241.335,415.126,241.06Z" transform="translate(-329.243 -219.196)" fill="#b55b52"/>
      <path id="Path_16815" data-name="Path 16815" d="M425.282,273.131c.857,1.714,1.812,3.6,2.669,5.407s1.724,3.674,2.5,5.516,1.546,3.674,2.177,5.486a31.1,31.1,0,0,1,1.408,5.151,9.742,9.742,0,0,1,.167,1.8,1.246,1.246,0,0,0,0,.158h0l.049-.089a17.726,17.726,0,0,1-1.468,1.359c-.7.473-1.487.985-2.315,1.438-3.349,1.881-7.21,3.565-10.933,5.279l1.251,5.2a52.091,52.091,0,0,0,6.579-.916,49.956,49.956,0,0,0,6.55-1.733,27.79,27.79,0,0,0,3.359-1.379,16.627,16.627,0,0,0,3.634-2.334,9.112,9.112,0,0,0,1.97-2.462,4.724,4.724,0,0,0,.227-.443l.167-.384c.108-.256.187-.492.266-.739a10.566,10.566,0,0,0,.345-1.389,17.062,17.062,0,0,0,.158-4.521,38.952,38.952,0,0,0-1.448-7.17c-.65-2.216-1.408-4.334-2.216-6.412s-1.674-4.078-2.6-6.047-1.891-3.94-3.024-5.91Z" transform="translate(-329.382 -219.603)" fill="#b55b52"/>
      <path id="Path_16816" data-name="Path 16816" d="M421.867,305.379l-8.007-2.059-.66,7.2s5.4,2.226,8.727-1.261Z" transform="translate(-329.287 -220.135)" fill="#b55b52"/>
      <path id="Path_16817" data-name="Path 16817" d="M410.614,304.374l-1.7,5.811,4.265.335.66-7.2Z" transform="translate(-329.222 -220.135)" fill="#b55b52"/>
      <path id="Path_16818" data-name="Path 16818" d="M442.278,281.544l-13.641,6.766s-.719-.187-6.116-8.815c-6.254-10.036-2.827-15.68,4.718-15.956C434.95,263.254,437.718,272.8,442.278,281.544Z" transform="translate(-329.378 -219.535)" fill="#407bff"/>
      <path id="Path_16819" data-name="Path 16819" d="M438.169,283.766l-6.53,3.24-3.319-3.92L432,273.247l1.024-1.123,2.561-.374Z" transform="translate(-329.514 -219.659)" opacity="0.2"/>
      <path id="Path_16820" data-name="Path 16820" d="M352.156,390.145,345.37,387.2l-5.22,16.35,6.8,2.945Z" transform="translate(-328.186 -221.398)" fill="#b55b52"/>
      <path id="Path_16821" data-name="Path 16821" d="M352.2,390.145,345.41,387.2l-2.6,8.175,6.855,2.689Z" transform="translate(-328.226 -221.398)" opacity="0.2"/>
      <path id="Path_16822" data-name="Path 16822" d="M339.209,400.868c-2.029,1.7-6.166,2.955-9.347,3.122-2.443.118-2.649,2.955.414,3.447s8.4.276,10.647.364c3.644.138,4.925.739,7.761.689a1.32,1.32,0,0,0,1.251-1.359l-.611-6.54a.542.542,0,0,0-.561-.492l-8.3.266a2.187,2.187,0,0,0-1.251.5Z" transform="translate(-328.003 -221.593)" fill="#263238"/>
      <path id="Path_16823" data-name="Path 16823" d="M414.193,321.7s5.693,6.757,1.1,17.453c-5.191,12.125-32.72,6.8-47.75,10.657-2.147,21.412-14.636,43.337-14.636,43.337l-10.45-4.1s4.531-17.049,7.929-47.277c1.665-14.863,39.4-16.5,39.4-16.5Z" transform="translate(-328.221 -220.412)" fill="#263238"/>
      <path id="Path_16824" data-name="Path 16824" d="M354.964,392.249l-13.306-4.659-.808,4.875,12.125,4.4Z" transform="translate(-328.197 -221.404)" fill="#263238"/>
      <path id="Path_16825" data-name="Path 16825" d="M384.858,397.295l-7.328-.355,1.2,17.3,7.328.355Z" transform="translate(-328.749 -221.545)" fill="#b55b52"/>
      <path id="Path_16826" data-name="Path 16826" d="M376.557,412.648c-2.029,1.694-5.457,4.048-8.6,4.5-2.019.286-3.536,3.339.236,3.339s7.879-.355,10.086-.424c3.644-.118,4.856.207,7.742.207h0a1.31,1.31,0,0,0,1.251-1.379l-.6-6.55a.532.532,0,0,0-.571-.483l-8.283.266A2.069,2.069,0,0,0,376.557,412.648Z" transform="translate(-328.574 -221.77)" fill="#263238"/>
      <path id="Path_16827" data-name="Path 16827" d="M385.528,406.829l-7.3.01-.7-9.889,7.328.355Z" transform="translate(-328.749 -221.545)" opacity="0.2"/>
      <path id="Path_16828" data-name="Path 16828" d="M432.865,322.89s6.008,12.243.167,20.034c-5.289,7.072-32.286,7.545-46.006,7.545,1.359,16.744-.148,51.118-.148,51.118l-11.021-.148s-7.761-33.064-9.357-56.2c-.886-12.8,44.854-21.363,44.854-21.363Z" transform="translate(-328.583 -220.43)" fill="#263238"/>
      <path id="Path_16829" data-name="Path 16829" d="M388.479,400.473l-15.089-.443.65,4.511,13.868.2Z" transform="translate(-328.687 -221.592)" fill="#263238"/>
      <path id="Path_16830" data-name="Path 16830" d="M434.539,322.638,389.4,324.52l4.245-50.675A11.071,11.071,0,0,1,404.676,263.7h22.5a7.88,7.88,0,0,1,7.83,7.879Z" transform="translate(-328.928 -219.538)" fill="#407bff"/>
      <path id="Path_16831" data-name="Path 16831" d="M395.723,271.43l-1.182,2.669c-.433.916-.877,1.832-1.339,2.738-.926,1.8-1.842,3.6-2.837,5.348s-1.97,3.467-3.083,5.112a48.07,48.07,0,0,1-3.388,4.669,26.5,26.5,0,0,1-1.812,2.058,1.172,1.172,0,0,1-1.064.148,18.416,18.416,0,0,1-2.384-.808,82.055,82.055,0,0,1-10.48-5.8l-3.634,3.94a49.044,49.044,0,0,0,4.6,4.974,39.3,39.3,0,0,0,5.466,4.353,21.972,21.972,0,0,0,3.428,1.852,12.213,12.213,0,0,0,4.856,1.044,8.293,8.293,0,0,0,3.506-.808,8.1,8.1,0,0,0,1.694-1.1l.709-.6c.926-.817,1.812-1.655,2.63-2.521a64.9,64.9,0,0,0,8.264-11.061c1.152-1.97,2.255-3.89,3.25-5.91.5-.985.985-1.97,1.468-3.014s.9-1.97,1.369-3.172Z" transform="translate(-328.553 -219.654)" fill="#b55b52"/>
      <path id="Path_16832" data-name="Path 16832" d="M369.205,289.546l-3.565-7.466-5.91,4.127s1.763,5.565,6.57,5.91Z" transform="translate(-328.481 -219.815)" fill="#b55b52"/>
      <path id="Path_16833" data-name="Path 16833" d="M362.725,280.26l-5.545,2.433,2.482,3.487,5.939-4.127Z" transform="translate(-328.443 -219.787)" fill="#b55b52"/>
      <path id="Path_16834" data-name="Path 16834" d="M400.915,290.595l-12.745-8.333s-.207-.729,4.5-9.731c5.476-10.48,12.075-10.391,16.133-4.038C412.971,275.013,406.135,282.233,400.915,290.595Z" transform="translate(-328.909 -219.544)" fill="#407bff"/>
      <path id="Path_16835" data-name="Path 16835" d="M456.447,419.345h0a.9.9,0,0,0,.364-1.221L422,354.1a.9.9,0,0,0-1.221-.355h0a.887.887,0,0,0-.364,1.212l34.817,64.021a.886.886,0,0,0,1.211.364Z" transform="translate(-329.394 -220.893)" fill="#407bff"/>
      <g id="Group_7067" data-name="Group 7067" transform="translate(90.915 132.743)" opacity="0.2">
        <path id="Path_16836" data-name="Path 16836" d="M456.447,419.345h0a.9.9,0,0,0,.364-1.221L422,354.1a.9.9,0,0,0-1.221-.355h0a.887.887,0,0,0-.364,1.212l34.817,64.021a.886.886,0,0,0,1.211.364Z" transform="translate(-420.309 -353.636)"/>
      </g>
      <path id="Path_16837" data-name="Path 16837" d="M439.853,390.745l-3.063-5.654,1.024-1.891,3.063,5.654Z" transform="translate(-329.642 -221.338)" opacity="0.2"/>
      <path id="Path_16838" data-name="Path 16838" d="M405.907,419.345h0a.9.9,0,0,0,.364-1.221L371.464,354.1a.9.9,0,0,0-1.221-.355h0a.887.887,0,0,0-.364,1.212L404.7,418.98a.886.886,0,0,0,1.211.364Z" transform="translate(-328.632 -220.893)" fill="#407bff"/>
      <g id="Group_7068" data-name="Group 7068" transform="translate(41.137 132.743)" opacity="0.2">
        <path id="Path_16839" data-name="Path 16839" d="M405.907,419.345h0a.9.9,0,0,0,.364-1.221L371.464,354.1a.9.9,0,0,0-1.221-.355h0a.887.887,0,0,0-.364,1.212L404.7,418.98a.886.886,0,0,0,1.211.364Z" transform="translate(-369.769 -353.636)"/>
      </g>
      <path id="Path_16840" data-name="Path 16840" d="M389.353,390.745l-3.073-5.654L387.3,383.2l3.073,5.654Z" transform="translate(-328.881 -221.338)" opacity="0.2"/>
      <path id="Path_16841" data-name="Path 16841" d="M371.464,419l34.808-64.021a.886.886,0,0,0-.364-1.211h0a.886.886,0,0,0-1.211.355l-34.817,64.021a.9.9,0,0,0,.364,1.221h0a.9.9,0,0,0,1.221-.364Z" transform="translate(-328.632 -220.893)" fill="#407bff"/>
      <g id="Group_7069" data-name="Group 7069" transform="translate(41.136 132.763)" opacity="0.2">
        <path id="Path_16842" data-name="Path 16842" d="M371.464,419l34.808-64.021a.886.886,0,0,0-.364-1.211h0a.886.886,0,0,0-1.211.355l-34.817,64.021a.9.9,0,0,0,.364,1.221h0a.9.9,0,0,0,1.221-.364Z" transform="translate(-369.768 -353.656)"/>
      </g>
      <path id="Path_16843" data-name="Path 16843" d="M421.974,419l34.808-64.021a.886.886,0,0,0-.364-1.211h0a.886.886,0,0,0-1.212.355l-34.817,64.021a.9.9,0,0,0,.364,1.221h0a.9.9,0,0,0,1.221-.364Z" transform="translate(-329.393 -220.893)" fill="#407bff"/>
      <g id="Group_7070" data-name="Group 7070" transform="translate(90.885 132.763)" opacity="0.2">
        <path id="Path_16844" data-name="Path 16844" d="M421.974,419l34.808-64.021a.886.886,0,0,0-.364-1.211h0a.886.886,0,0,0-1.212.355l-34.817,64.021a.9.9,0,0,0,.364,1.221h0a.9.9,0,0,0,1.221-.364Z" transform="translate(-420.278 -353.656)"/>
      </g>
      <path id="Path_16845" data-name="Path 16845" d="M413.831,350.82H373.449a4.639,4.639,0,0,0-4.639,4.639h45.071Z" transform="translate(-328.618 -220.85)" fill="#407bff"/>
      <path id="Path_16846" data-name="Path 16846" d="M442.976,290.53h0c14.213,0,24.328,10.588,23.638,24.692l-1.625,30.838a8.963,8.963,0,0,1-8.953,8.49H398.91l11.819-39.328C414.915,301.118,428.763,290.53,442.976,290.53Z" transform="translate(-329.071 -219.942)" fill="#407bff"/>
      <path id="Path_16847" data-name="Path 16847" d="M442.976,290.53h0c14.213,0,24.328,10.588,23.638,24.692l-1.625,30.838a8.963,8.963,0,0,1-8.953,8.49H398.91l11.819-39.328C414.915,301.118,428.763,290.53,442.976,290.53Z" transform="translate(-329.071 -219.942)" fill="#fff" opacity="0.3"/>
    </g>
    <g class="man2"> 
      <g id="freepik--character-2--inject-66" transform="translate(223.353 240.942)">
        <path id="Path_16848" data-name="Path 16848" d="M320.264,266.194c.985,3.487,1.221,7.22-3.782,8.569,0,0-4.669,6.579.936,10.982a42.47,42.47,0,0,1,13.139-11.406c-3.25-2.906-2.62-11.218-1.871-15.759Z" transform="translate(-228.094 -235.173)" fill="#ce7a63"/>
        <path id="Path_16849" data-name="Path 16849" d="M314.033,248c-.384-.1-.857.256-1.044.837s0,1.182.355,1.28.857-.256,1.044-.837S314.407,248.059,314.033,248Z" transform="translate(-228.068 -235.013)" fill="#2e353a"/>
        <path id="Path_16850" data-name="Path 16850" d="M312.92,247.18l1.271.857C313.284,248.519,312.92,247.18,312.92,247.18Z" transform="translate(-228.068 -235.001)" fill="#2e353a"/>
        <path id="Path_16851" data-name="Path 16851" d="M312.63,254.287a2.6,2.6,0,0,1-1.97-1.064,16.4,16.4,0,0,0,3.29-3.053Z" transform="translate(-228.034 -235.046)" fill="#ba4d3c"/>
        <path id="Path_16852" data-name="Path 16852" d="M315.448,244.069a2.837,2.837,0,0,1,1.231,2.3h0a.345.345,0,0,0,.345.355h0a.355.355,0,0,0,.355-.345,3.546,3.546,0,0,0-1.527-2.955.364.364,0,0,0-.5.069.374.374,0,0,0,0,.355A.3.3,0,0,0,315.448,244.069Z" transform="translate(-228.104 -234.944)" fill="#2e353a"/>
        <path id="Path_16853" data-name="Path 16853" d="M335.772,248.2a10.263,10.263,0,0,0-11.1-9.347c-7.958.6-12.371,10.943-12.9,17.886-.591,7.712,7.436,12.647,14.675,8.864,4.856-2.521,5.791-5.555,8.589-12.587a10.145,10.145,0,0,0,.739-4.816Z" transform="translate(-228.05 -234.875)" fill="#ce7a63"/>
        <path id="Path_16854" data-name="Path 16854" d="M339.721,257.267c10.421-13.159-2.374-16.941-2.374-16.941-4.009-5.565-10.627-6.7-16.695-4.373s-4.255,6.382-2.049,6.786c-4.137,5.466-1.763,8.185-.4,8.579C316.063,265.067,329.3,270.455,339.721,257.267Z" transform="translate(-228.118 -234.815)" fill="#263238"/>
        <path id="Path_16855" data-name="Path 16855" d="M321.561,251.955A2.669,2.669,0,0,0,319.227,249c-1.97-.207-3.565,2.2-4.009,3.94-.492,1.9.571,3.664,2.551,3.034a5.91,5.91,0,0,0,3.437-2.955A2.689,2.689,0,0,0,321.561,251.955Z" transform="translate(-228.101 -235.029)" fill="#ce7a63"/>
        <path id="Path_16856" data-name="Path 16856" d="M332.46,275.531a4.432,4.432,0,0,1-1.97-3.812s-14.587-2.127-17.62,1.162c0,0,4.383-.227,2.64,3.388Z" transform="translate(-228.067 -235.361)" fill="#407bff"/>
        <path id="Path_16857" data-name="Path 16857" d="M332.46,275.531a4.432,4.432,0,0,1-1.97-3.812s-14.587-2.127-17.62,1.162c0,0,4.383-.227,2.64,3.388Z" transform="translate(-228.067 -235.361)" fill="#fff" opacity="0.6"/>
        <path id="Path_16858" data-name="Path 16858" d="M317.429,318.744l-.089,3.762a95.754,95.754,0,0,0,13.789.67,38.852,38.852,0,0,0,7.239-.778,14.277,14.277,0,0,0,2.068-.63,7.876,7.876,0,0,0,1.2-.571,5.8,5.8,0,0,0,1.458-1.133,5.091,5.091,0,0,0,.768-1.113,6.885,6.885,0,0,0,.305-.739,7.264,7.264,0,0,0,.128-.808l.128-.867.266-1.724c.512-4.59.778-9.1.985-13.622s.315-9.022.3-13.562H338.28L338.063,301c-.108,4.452-.2,8.864-.423,13.257l-.1,1.448a6.478,6.478,0,0,1-.857.345,42.093,42.093,0,0,1-6.057,1.251C326.293,317.956,321.831,318.34,317.429,318.744Z" transform="translate(-228.134 -235.611)" fill="#ce7a63"/>
        <path id="Path_16859" data-name="Path 16859" d="M331.88,285.016c0,4.649,2.8,13.356,2.8,13.356l11.543-7.1c.512-5.959-.719-13.622-6.441-15.483C335.938,274.527,331.919,280.062,331.88,285.016Z" transform="translate(-228.353 -235.43)" fill="#263238"/>
        <path id="Path_16860" data-name="Path 16860" d="M340.173,281.739l2.65,2.62.512,8.766-8.658,5.319s-2.8-8.707-2.8-13.356a11.1,11.1,0,0,1,.65-3.546l3.94-1.2Z" transform="translate(-228.353 -235.501)" opacity="0.6"/>
        <path id="Path_16861" data-name="Path 16861" d="M306.658,321.295a1.477,1.477,0,0,1,.788-1.97l3.27-1.389a3.5,3.5,0,0,1,2.216-.158l7.141,1.97.877,2.4c-1.113,2.768-5.831,2.246-5.831,2.246l-3.4,1.034a2.226,2.226,0,0,1-2.393-.729l-2.472-3.063a1.43,1.43,0,0,1-.2-.345Z" transform="translate(-227.971 -236.063)" fill="#ce7a63"/>
        <path id="Path_16862" data-name="Path 16862" d="M311.8,275.652c1.487-.246,3.034-.483,4.55-.67a99.1,99.1,0,0,1,14-.424c2.295.049,4.55.217,6.53.424h.158a6.53,6.53,0,0,1,5.614,7.338c-2.8,19.965-4.018,28.465-3.2,39.88l-30.907.936c-3.575-18.6-5.072-29.7-5.545-36.226a10.608,10.608,0,0,1,8.805-11.258Z" transform="translate(-227.918 -235.413)" fill="#263238"/>
        <path id="Path_16863" data-name="Path 16863" d="M275.333,392l-7.3-.689-4.915,17.975,7.3.689Z" transform="translate(-227.317 -237.173)" fill="#ce7a63"/>
        <path id="Path_16864" data-name="Path 16864" d="M252.4,375.52l-6.185-5.86-8.273,12.568,4.944,4.294Z" transform="translate(-226.938 -236.847)" fill="#ce7a63"/>
        <path id="Path_16865" data-name="Path 16865" d="M335.554,323.16a3.27,3.27,0,0,1,3.2,2.462c4.176,16.291-.542,26.13-12.075,26.13-10.834,0-40.3-9.652-49.572-12.656-7.761,22.427-30.159,42.5-30.159,42.5l-5.91-5.4s13.05-25.135,22.063-47.454c5.181-12.8,55.215-5.417,55.215-5.417S328.335,323.16,335.554,323.16Z" transform="translate(-226.985 -236.117)" fill="#407bff"/>
        <path id="Path_16866" data-name="Path 16866" d="M335.554,323.16a3.27,3.27,0,0,1,3.2,2.462c4.176,16.291-.542,26.13-12.075,26.13-10.834,0-40.3-9.652-49.572-12.656-7.761,22.427-30.159,42.5-30.159,42.5l-5.91-5.4s13.05-25.135,22.063-47.454c5.181-12.8,55.215-5.417,55.215-5.417S328.335,323.16,335.554,323.16Z" transform="translate(-226.985 -236.117)" fill="#fff" opacity="0.6"/>
        <path id="Path_16867" data-name="Path 16867" d="M328.394,322.93c11.74,15.513,10.834,28.809-1.32,28.809-10.834,0-24.288.63-38.925-.3-3.221,23.54-15.483,50.97-15.483,50.97l-8.086-.758s7.377-34.414,7.948-58.485c.345-14.547,41.416-13.277,41.416-13.277S321.184,323,328.394,322.93Z" transform="translate(-227.339 -236.143)" fill="#407bff"/>
        <path id="Path_16868" data-name="Path 16868" d="M328.394,322.93c11.74,15.513,10.834,28.809-1.32,28.809-10.834,0-24.288.63-38.925-.3-3.221,23.54-15.483,50.97-15.483,50.97l-8.086-.758s7.377-34.414,7.948-58.485c.345-14.547,41.416-13.277,41.416-13.277S321.184,323,328.394,322.93Z" transform="translate(-227.339 -236.143)" fill="#fff" opacity="0.6"/>
        <path id="Path_16869" data-name="Path 16869" d="M339.413,320.84l-31.3.985c-.305,0-.512.177-.512.364l.394,2.748c0,.167.266.286.542.286l31.8-.936c.364,0,.611-.227.492-.443l-.877-2.748a.522.522,0,0,0-.542-.256Z" transform="translate(-227.988 -236.111)" fill="#263238"/>
        <path id="Path_16870" data-name="Path 16870" d="M282.69,308.25a72.189,72.189,0,0,0,9.4,5.112,39.393,39.393,0,0,0,5.25,1.97,14.132,14.132,0,0,0,3.26.561,6.785,6.785,0,0,0,2.472-.315,4.925,4.925,0,0,0,1.812-1.1,4.086,4.086,0,0,0,.433-.492l.2-.276.138-.207.187-.335a34.661,34.661,0,0,0,4.009-10.834,51.556,51.556,0,0,0,.827-5.486c.079-.985.148-1.842.2-2.768a24.75,24.75,0,0,0,0-2.837l-7.663.108c0,.67-.049,1.546-.089,2.334s-.1,1.615-.177,2.423c-.148,1.615-.345,3.221-.591,4.826a45.855,45.855,0,0,1-1.034,4.609,25.61,25.61,0,0,1-1.31,3.585,8.307,8.307,0,0,1-1.3-.128,42.238,42.238,0,0,1-4.669-1.093c-3.2-.916-6.481-1.97-9.711-3.073Z" transform="translate(-227.612 -235.665)" fill="#ce7a63"/>
        <path id="Path_16871" data-name="Path 16871" d="M315.36,285.023c2.295,3.536-3.043,12.627-3.043,12.627l-9.623-1.083s-1.97-12.1,2.738-17.079C307.963,276.819,312.967,281.339,315.36,285.023Z" transform="translate(-227.907 -235.476)" fill="#263238"/>
        <path id="Path_16872" data-name="Path 16872" d="M276.125,305.855h0a.453.453,0,0,1-.286-.571l5.082-15.129a.463.463,0,0,1,.571-.286h0a.443.443,0,0,1,.286.561l-5.053,15.129a.482.482,0,0,1-.355.305A.571.571,0,0,1,276.125,305.855Z" transform="translate(-227.509 -235.644)" fill="#2e353a"/>
        <path id="Path_16873" data-name="Path 16873" d="M277.657,297.43a1.6,1.6,0,0,0-1.724,1.458l-.433,4.2a1.606,1.606,0,0,0,.837,1.576l3.536,1.862s6.057,5.713,8.658,4.275l-1.871-4.078L283,300.4a3.743,3.743,0,0,0-1.812-1.605l-3.034-1.251a1.714,1.714,0,0,0-.493-.118Z" transform="translate(-227.504 -235.758)" fill="#ce7a63"/>
        <path id="Path_16874" data-name="Path 16874" d="M237.673,379.53c-2.462-.2-6.038-2.078-8.273-4.028-1.714-1.517-3.684.227-1.97,2.571s5.437,5.663,6.895,7.2c2.344,2.462,2.778,3.674,4.728,5.525a1.231,1.231,0,0,0,1.733-.039l3.861-4.767a.5.5,0,0,0-.059-.7l-5.772-5.279A1.969,1.969,0,0,0,237.673,379.53Z" transform="translate(-226.77 -236.926)" fill="#407bff"/>
        <path id="Path_16875" data-name="Path 16875" d="M262.357,409.076c-1.734,1.763-4.688,4.265-7.574,4.984-1.852.453-2.955,3.428.532,3.083s7.249-1.064,9.317-1.339c3.378-.443,4.541-.256,7.22-.522h0a1.212,1.212,0,0,0,1.034-1.379l-1.172-6.018a.512.512,0,0,0-.571-.4l-7.673.985A1.891,1.891,0,0,0,262.357,409.076Z" transform="translate(-227.166 -237.416)" fill="#407bff"/>
        <path id="Path_16876" data-name="Path 16876" d="M359.777,419.5h0a.9.9,0,0,0,.355-1.221l-34.808-64.021a.906.906,0,0,0-1.221-.355h0a.906.906,0,0,0-.364,1.221l34.817,64.021A.906.906,0,0,0,359.777,419.5Z" transform="translate(-228.229 -236.608)" fill="#407bff"/>
        <g id="Group_7071" data-name="Group 7071" transform="translate(95.402 117.192)" opacity="0.2">
          <path id="Path_16877" data-name="Path 16877" d="M359.777,419.5h0a.9.9,0,0,0,.355-1.221l-34.808-64.021a.906.906,0,0,0-1.221-.355h0a.906.906,0,0,0-.364,1.221l34.817,64.021A.906.906,0,0,0,359.777,419.5Z" transform="translate(-323.632 -353.799)"/>
        </g>
        <path id="Path_16878" data-name="Path 16878" d="M343.213,390.9l-3.073-5.654,1.024-1.891,3.073,5.654Z" transform="translate(-228.478 -237.053)" opacity="0.2"/>
        <path id="Path_16879" data-name="Path 16879" d="M309.267,419.5h0a.906.906,0,0,0,.364-1.221l-34.817-64.021a.906.906,0,0,0-1.221-.355h0a.906.906,0,0,0-.364,1.221l34.817,64.021A.906.906,0,0,0,309.267,419.5Z" transform="translate(-227.468 -236.608)" fill="#407bff"/>
        <g id="Group_7072" data-name="Group 7072" transform="translate(45.653 117.192)" opacity="0.2">
          <path id="Path_16880" data-name="Path 16880" d="M309.267,419.5h0a.906.906,0,0,0,.364-1.221l-34.817-64.021a.906.906,0,0,0-1.221-.355h0a.906.906,0,0,0-.364,1.221l34.817,64.021A.906.906,0,0,0,309.267,419.5Z" transform="translate(-273.122 -353.799)"/>
        </g>
        <path id="Path_16881" data-name="Path 16881" d="M292.7,390.9l-3.073-5.654,1.024-1.891,3.073,5.654Z" transform="translate(-227.717 -237.053)" opacity="0.2"/>
        <path id="Path_16882" data-name="Path 16882" d="M274.814,419.15l34.817-64.021a.906.906,0,0,0-.364-1.221h0a.906.906,0,0,0-1.221.355l-34.817,64.021a.906.906,0,0,0,.364,1.221h0A.906.906,0,0,0,274.814,419.15Z" transform="translate(-227.468 -236.608)" fill="#407bff"/>
        <g id="Group_7073" data-name="Group 7073" transform="translate(45.653 117.192)" opacity="0.2">
          <path id="Path_16883" data-name="Path 16883" d="M274.814,419.15l34.817-64.021a.906.906,0,0,0-.364-1.221h0a.906.906,0,0,0-1.221.355l-34.817,64.021a.906.906,0,0,0,.364,1.221h0A.906.906,0,0,0,274.814,419.15Z" transform="translate(-273.122 -353.799)"/>
        </g>
        <path id="Path_16884" data-name="Path 16884" d="M325.324,419.15l34.808-64.021a.9.9,0,0,0-.355-1.221h0a.906.906,0,0,0-1.221.355l-34.817,64.021a.906.906,0,0,0,.364,1.221h0A.906.906,0,0,0,325.324,419.15Z" transform="translate(-228.229 -236.608)" fill="#407bff"/>
        <g id="Group_7074" data-name="Group 7074" transform="translate(95.402 117.192)" opacity="0.2">
          <path id="Path_16885" data-name="Path 16885" d="M325.324,419.15l34.808-64.021a.9.9,0,0,0-.355-1.221h0a.906.906,0,0,0-1.221.355l-34.817,64.021a.906.906,0,0,0,.364,1.221h0A.906.906,0,0,0,325.324,419.15Z" transform="translate(-323.632 -353.799)"/>
        </g>
        <path id="Path_16886" data-name="Path 16886" d="M317.181,351H276.8a4.639,4.639,0,0,0-4.649,4.639h45.071Z" transform="translate(-227.453 -236.566)" fill="#407bff"/>
        <path id="Path_16887" data-name="Path 16887" d="M346.325,290.69h0c14.213,0,24.328,10.588,23.589,24.692l-1.625,30.848a8.953,8.953,0,0,1-8.953,8.48H302.21l11.819-39.328C318.264,301.278,332.122,290.69,346.325,290.69Z" transform="translate(-227.906 -235.657)" fill="#407bff"/>
        <path id="Path_16888" data-name="Path 16888" d="M346.325,290.69h0c14.213,0,24.328,10.588,23.589,24.692l-1.625,30.848a8.953,8.953,0,0,1-8.953,8.48H302.21l11.819-39.328C318.264,301.278,332.122,290.69,346.325,290.69Z" transform="translate(-227.906 -235.657)" fill="#fff" opacity="0.3"/>
      </g>
    </g>
  </g>
</svg>
