<svg width="185" height="27" viewBox="0 0 185 27" fill="none" xmlns="http://www.w3.org/2000/svg">
<path d="M91.12 6.7001C88.89 5.8501 86.66 5.4501 83.97 6.0401C81.81 6.5001 80.1 7.35011 78.98 9.52011C79.5 9.91011 79.9 10.3101 80.36 10.7001C81.08 11.3601 81.8 11.9501 82.79 12.7401C83.58 11.6201 84.95 10.3801 86.46 10.3101C88.17 10.2401 89.81 11.2301 90.07 12.6101C90.2 13.2001 90.27 15.5601 90.27 15.5601L89.35 15.7601C89.28 15.7601 89.09 15.8301 88.83 15.7601C88.76 15.7601 88.76 15.6901 88.7 15.6901C88.64 15.6901 88.63 15.6901 88.57 15.6201C86.54 14.9001 84.63 14.5001 82.8 14.5001C82.14 14.5001 81.49 14.5701 80.83 14.6301C78.8 14.9601 76.44 16.0701 76.44 19.7501C76.44 21.1301 76.77 22.1801 77.36 23.0301C78.48 24.5401 80.05 25.4601 82.15 25.4601C84.45 25.4601 86.48 24.8701 88.45 23.2901C88.52 23.2901 88.91 22.9001 89.04 22.8301L90.29 21.8501V25.4601H95.47V12.7201C95.34 9.90011 93.76 7.6601 91.14 6.6801L91.12 6.7001ZM89.48 18.5201C88.36 20.4901 86.59 21.6101 84.49 21.6101H84.23C83.84 21.6101 83.38 21.5401 82.92 21.4801C81.35 21.0901 80.49 19.8401 80.56 18.1301L80.63 17.4101H90.14L89.48 18.5301V18.5201Z" fill="black"/>
<path d="M145.04 6.7001C142.81 5.8501 140.58 5.4501 137.89 6.0401C135.73 6.5001 134.02 7.35011 132.9 9.52011C133.42 9.91011 133.82 10.3101 134.28 10.7001C135 11.3601 135.72 11.9501 136.71 12.7401C137.5 11.6201 138.87 10.3801 140.38 10.3101C142.09 10.2401 143.73 11.2301 143.99 12.6101C144.12 13.2001 144.19 15.5601 144.19 15.5601L143.27 15.7601C143.2 15.7601 143.01 15.8301 142.75 15.7601C142.68 15.7601 142.68 15.6901 142.62 15.6901C142.56 15.6901 142.55 15.6901 142.49 15.6201C140.46 14.9001 138.55 14.5001 136.72 14.5001C136.06 14.5001 135.41 14.5701 134.75 14.6301C132.72 14.9601 130.35 16.0701 130.35 19.7501C130.35 21.1301 130.68 22.1801 131.27 23.0301C132.39 24.5401 133.96 25.4601 136.06 25.4601C138.36 25.4601 140.39 24.8701 142.36 23.2901C142.43 23.2901 142.82 22.9001 142.95 22.8301L144.2 21.8501V25.4601H149.38V12.7201C149.25 9.90011 147.74 7.6601 145.05 6.6801L145.04 6.7001ZM143.4 18.5201C142.29 20.4901 140.51 21.6101 138.41 21.6101H138.15C137.76 21.6101 137.3 21.5401 136.84 21.4801C135.26 21.0901 134.41 19.8401 134.48 18.1301L134.55 17.4101H144.06L143.4 18.5301V18.5201Z" fill="black"/>
<path d="M180.33 6.7001C178.1 5.8501 175.87 5.4501 173.18 6.0401C171.01 6.5001 169.31 7.35011 168.19 9.52011C168.71 9.91011 169.11 10.3101 169.57 10.7001C170.29 11.3601 171.01 11.9501 172 12.7401C172.79 11.6201 174.16 10.3801 175.67 10.3101C177.38 10.2401 179.02 11.2301 179.28 12.6101C179.41 13.2001 179.48 15.5601 179.48 15.5601L178.56 15.7601C178.49 15.7601 178.3 15.8301 178.04 15.7601C177.97 15.7601 177.97 15.6901 177.91 15.6901C177.85 15.6901 177.85 15.6901 177.78 15.6201C175.75 14.9001 173.84 14.5001 172.01 14.5001C171.35 14.5001 170.7 14.5701 170.04 14.6301C168.01 14.9601 165.64 16.0701 165.64 19.7501C165.64 21.1301 165.97 22.1801 166.56 23.0301C167.68 24.5401 169.25 25.4601 171.35 25.4601C173.65 25.4601 175.68 24.8701 177.65 23.2901C177.72 23.2901 178.11 22.9001 178.24 22.8301L179.49 21.8501V25.4601H184.67V12.7201C184.54 9.90011 182.96 7.6601 180.34 6.6801L180.33 6.7001ZM178.69 18.5201C177.58 20.4901 175.8 21.6101 173.7 21.6101H173.44C173.05 21.6101 172.59 21.5401 172.13 21.4801C170.55 21.0901 169.7 19.8401 169.77 18.1301L169.84 17.4101H179.35L178.69 18.5301V18.5201Z" fill="black"/>
<path d="M163.41 7.3501C161.77 7.4201 160.52 8.14009 159.74 9.58009C159.68 9.71009 159.08 10.8301 159.08 10.8301L157.83 10.5701V7.62009H152.84V25.4101H157.83V18.4501C157.83 17.8601 157.76 17.2701 157.83 16.6101C157.96 14.3101 159.73 12.6101 161.9 12.3401C162.62 12.2701 164.33 12.2101 164.52 12.2101V7.3501H163.41Z" fill="black"/>
<path d="M72.49 21.2701C72.1 21.2701 71.64 21.27 71.18 21.14C69.87 20.94 69.02 20.2901 68.69 19.2401C68.56 18.7801 68.43 18.32 68.43 17.86V9.92004H69.22C70.86 9.85004 72.63 9.72004 74.34 9.26004L73.29 5.65004L68.5 6.37004V0.920044H62.86V6.24005H58.92V9.92004H62.72V19.44C62.72 20.69 63.05 21.8 63.7 22.79C64.49 23.97 65.54 24.69 67.18 25.09C69.09 25.59 70.93 25.4701 73.02 25.4901V21.29H72.5L72.49 21.2701Z" fill="black"/>
<path d="M115.85 15.3601C115.85 13.5901 117.03 12.1401 118.67 12.0101C120.64 11.8101 122.02 12.8001 122.41 14.6401C122.48 14.9701 122.48 15.3001 122.48 15.6201V25.4001H127.47V13.3801C127.47 12.6601 127.4 12.1301 127.34 11.6701C126.95 9.44008 125.76 8.12008 123.73 7.53008C121.56 6.94008 117.96 7.40008 116.25 10.3501L115.46 11.8601C115.07 9.63008 113.75 8.05009 111.79 7.46009C109.62 6.87009 106.35 7.39008 104.71 10.2801L103.99 11.5901V7.59008H98.74V25.3801H103.92V15.7301C103.92 15.4001 103.92 15.0701 103.99 14.7501C104.19 13.4401 105.04 12.4501 106.29 12.1201C107.73 11.7301 109.18 12.1901 109.96 13.2401C110.55 14.0301 110.62 14.8801 110.62 15.5401V25.3901H115.87" fill="black"/>
<path d="M2.89001 7.8101C1.84001 8.9901 1.05 10.2401 0.529999 11.6201L17.06 25.3401C17.85 24.8101 18.63 24.2901 19.29 23.5701L19.62 23.2401C25.92 16.6701 21.78 9.58011 19.29 7.22011C14.76 2.82011 7.55 2.9501 3.22 7.4801L2.89001 7.8101Z" fill="black"/>
<path d="M48.55 15.4301C48.55 21.5901 43.76 26.5901 37.69 26.9001C31.62 27.2101 25.99 22.3401 25.62 16.1401C25.22 9.52006 30.48 3.94006 37.08 3.94006C43.44 4.01006 48.56 9.13005 48.56 15.4301H48.55Z" fill="black"/>
</svg>
