<svg width="306" height="175" viewBox="0 0 306 175" fill="none" xmlns="http://www.w3.org/2000/svg">
<path d="M287.78 173.99C287.78 173.99 317.73 130.27 299.56 85.2499C287.72 55.9099 243.29 39.8299 218.22 55.9099C207.54 62.7599 173.28 56.1399 154.99 27.7899C119.44 -27.3001 -4.61005 6.15992 17.98 90.7399C28.91 131.67 -15.2801 133.16 7.23993 174.08L287.78 173.99Z" fill="#DFEBFA"/>
<path d="M103.8 41.22H104.42C111.528 41.22 117.29 35.4601 117.29 28.355C117.29 21.2498 111.528 15.49 104.42 15.49H103.8C96.692 15.49 90.9299 21.2498 90.9299 28.355C90.9299 35.4601 96.692 41.22 103.8 41.22Z" fill="#C0D8FB"/>
<path d="M103.83 40.1101H104.4C110.889 40.1101 116.15 34.8495 116.15 28.3601C116.15 21.8708 110.889 16.6101 104.4 16.6101H103.83C97.3405 16.6101 92.0799 21.8708 92.0799 28.3601C92.0799 34.8495 97.3405 40.1101 103.83 40.1101Z" fill="#DFEBFD"/>
<path d="M104.66 18.9499C104.66 18.6499 104.42 18.3999 104.11 18.3999C103.8 18.3999 103.56 18.6499 103.56 18.9499C103.56 19.2499 103.8 19.4999 104.11 19.4999C104.42 19.4999 104.66 19.2499 104.66 18.9499Z" fill="#B7D3F3"/>
<path d="M100.26 19.73C100.11 19.46 99.7799 19.37 99.5199 19.52C99.2599 19.67 99.1599 20 99.3099 20.27C99.4599 20.54 99.7899 20.63 100.05 20.48C100.31 20.33 100.41 20 100.26 19.73Z" fill="#B7D3F3"/>
<path d="M96.48 22.75C96.23 22.59 95.89 22.66 95.73 22.91C95.57 23.17 95.64 23.51 95.89 23.67C96.14 23.83 96.48 23.76 96.64 23.51C96.8 23.26 96.73 22.91 96.48 22.75Z" fill="#B7D3F3"/>
<path d="M94.6099 27.4199C94.3099 27.4199 94.0599 27.6699 94.0599 27.9699C94.0599 28.2699 94.2999 28.5199 94.6099 28.5199C94.9199 28.5199 95.1599 28.2699 95.1599 27.9699C95.1599 27.6699 94.9199 27.4199 94.6099 27.4199Z" fill="#B7D3F3"/>
<path d="M95.57 32.8399C95.36 33.0499 95.36 33.3999 95.57 33.6199C95.78 33.8299 96.13 33.8299 96.34 33.6199C96.55 33.4099 96.55 33.0599 96.34 32.8399C96.13 32.6299 95.78 32.6299 95.57 32.8399Z" fill="#B7D3F3"/>
<path d="M98.9999 36.2998C98.7899 36.5098 98.7899 36.8598 98.9999 37.0798C99.2099 37.2898 99.5599 37.2898 99.7699 37.0798C99.9799 36.8698 99.9799 36.5198 99.7699 36.2998C99.5599 36.0898 99.2099 36.0898 98.9999 36.2998Z" fill="#B7D3F3"/>
<path d="M104.66 38.0798C104.66 37.7798 104.42 37.5298 104.11 37.5298C103.8 37.5298 103.56 37.7798 103.56 38.0798C103.56 38.3798 103.8 38.6298 104.11 38.6298C104.42 38.6298 104.66 38.3798 104.66 38.0798Z" fill="#B7D3F3"/>
<path d="M107.99 19.73C108.14 19.46 108.47 19.37 108.73 19.52C108.99 19.67 109.09 20 108.94 20.27C108.79 20.54 108.46 20.63 108.2 20.48C107.94 20.33 107.84 20 107.99 19.73Z" fill="#B7D3F3"/>
<path d="M111.77 22.75C112.02 22.59 112.36 22.66 112.52 22.91C112.68 23.17 112.61 23.51 112.36 23.67C112.11 23.83 111.77 23.76 111.61 23.51C111.45 23.25 111.52 22.91 111.77 22.75Z" fill="#B7D3F3"/>
<path d="M113.64 27.4199C113.94 27.4199 114.19 27.6699 114.19 27.9699C114.19 28.2699 113.95 28.5199 113.64 28.5199C113.33 28.5199 113.09 28.2699 113.09 27.9699C113.09 27.6699 113.33 27.4199 113.64 27.4199Z" fill="#B7D3F3"/>
<path d="M112.68 32.8401C112.89 33.0501 112.89 33.4001 112.68 33.6201C112.47 33.8301 112.12 33.8301 111.91 33.6201C111.7 33.4101 111.7 33.0601 111.91 32.8401C112.12 32.6301 112.47 32.6301 112.68 32.8401Z" fill="#B7D3F3"/>
<path d="M109.25 36.3001C109.46 36.5101 109.46 36.8601 109.25 37.0801C109.04 37.2901 108.69 37.2901 108.48 37.0801C108.27 36.8701 108.27 36.5201 108.48 36.3001C108.69 36.0901 109.04 36.0901 109.25 36.3001Z" fill="#B7D3F3"/>
<path d="M103.72 28.5202C104.024 28.5202 104.27 28.2739 104.27 27.9702C104.27 27.6664 104.024 27.4202 103.72 27.4202C103.416 27.4202 103.17 27.6664 103.17 27.9702C103.17 28.2739 103.416 28.5202 103.72 28.5202Z" fill="#B7D3F3"/>
<path d="M103.79 21.1001H103.64V27.9601H103.79V21.1001Z" fill="#B7D3F3"/>
<path d="M103.65 28.1302L103.92 27.7802L100.31 24.9202L100.03 25.2802L103.65 28.1302Z" fill="#B7D3F3"/>
<path d="M75.2999 110.52C75.2999 110.52 79.45 99.03 70.44 96.14C70.44 96.14 64.21 94.97 60.17 96.79C60.17 96.79 69.73 104.46 68.2 106.16C66.67 107.86 58.16 96.84 58.16 96.84C58.16 96.84 46.2 100.09 43.16 103.29C43.16 103.29 56.07 107.68 54.17 108.95C52.27 110.22 38.63 106.28 38.63 106.28C38.63 106.28 28.58 112.19 31.62 118.57C34.66 124.95 39.1199 125.58 40.6799 124.79C42.2399 124 50.39 116.74 51.1 118C51.81 119.26 47.72 125.82 43.79 127.54C43.79 127.54 54.51 133.08 58.63 128.74C62.75 124.4 61.75 120.4 64.34 117.77C66.94 115.14 69.6199 114.13 68.8699 116.09C68.1199 118.05 62.98 121.63 62.38 125.51C61.78 129.38 60.98 132.15 65.89 129.39C70.8 126.63 77.83 119.59 76.56 115.05L75.29 110.52H75.2999Z" fill="#C8DBF4"/>
<path d="M36.9599 116.75C36.9599 116.75 65.7099 104.56 75.2899 110.52C75.2899 110.52 78.32 114.28 84.17 116.52L85.5499 118.14C85.5499 118.14 78.4899 114.69 76.5599 115.05C76.5599 115.05 75.5 103.57 36.95 116.75H36.9599Z" fill="#C8DBF4"/>
<path d="M84.18 116.52C84.18 116.52 92.19 118.81 95.74 126.97L94.64 127.5C94.64 127.5 89.42 119.65 84.54 117.65C79.67 115.65 84.18 116.52 84.18 116.52Z" fill="#C8DBF4"/>
<path d="M96.8199 104.63C96.8199 104.63 86.3299 98.72 91.2299 90.69C91.2299 90.69 95.1499 85.76 99.3399 84.5C99.3399 84.5 97.0999 96.47 99.3399 96.75C101.58 97.03 100.88 83.24 100.88 83.24C100.88 83.24 111.93 77.89 116.27 78.31C116.27 78.31 109.42 89.99 111.65 89.71C113.89 89.43 121.58 77.6 121.58 77.6C121.58 77.6 132.91 75.49 134.73 82.25C136.55 89.01 133.61 92.39 131.93 92.81C130.25 93.23 119.48 93.09 119.76 94.5C120.04 95.91 127.31 98.16 131.37 96.89C131.37 96.89 126.89 108.01 121.02 107.45C115.15 106.89 113.33 103.23 109.69 102.95C106.05 102.67 103.4 103.65 105.21 104.64C107.03 105.63 113.18 104.96 116.12 107.48C119.06 109.99 121.44 111.54 115.98 112.67C110.52 113.8 100.73 113.09 98.7799 108.87L96.8199 104.65V104.63Z" fill="#C8DBF4"/>
<path d="M129.55 84.3601C129.55 84.3601 100.18 93.9301 96.8199 104.63C96.8199 104.63 96.9599 109.42 94.0199 114.91V117.02C94.0199 117.02 97.0999 109.84 98.7799 108.85C98.7799 108.85 92.2099 99.5601 129.55 84.3501V84.3601Z" fill="#C8DBF4"/>
<path d="M94.0199 114.91C94.0199 114.91 89.4899 121.83 92.0699 130.26L93.2399 129.94C93.2399 129.94 92.1099 120.66 94.4799 115.99C96.8499 111.32 94.0199 114.91 94.0199 114.91Z" fill="#C8DBF4"/>
<path d="M84.67 89.53C84.67 89.53 99.96 80.91 92.83 69.21C92.83 69.21 87.12 62.03 81 60.18C81 60.18 84.26 77.63 81 78.04C77.74 78.45 78.76 58.34 78.76 58.34C78.76 58.34 62.65 50.54 56.33 51.16C56.33 51.16 66.32 68.19 63.06 67.78C59.8 67.37 48.58 50.13 48.58 50.13C48.58 50.13 32.06 47.05 29.41 56.9C26.76 66.75 31.04 71.68 33.49 72.29C35.94 72.91 51.64 72.7 51.23 74.75C50.82 76.8 40.22 80.09 34.3 78.24C34.3 78.24 40.83 94.45 49.39 93.63C57.95 92.81 60.61 87.47 65.91 87.06C71.21 86.65 75.09 88.09 72.44 89.52C69.79 90.96 60.82 89.99 56.53 93.66C52.25 97.32 48.78 99.58 56.73 101.22C64.68 102.86 78.96 101.84 81.81 95.68L84.66 89.52L84.67 89.53Z" fill="#D4E4F8"/>
<path d="M36.96 59.97C36.96 59.97 79.78 73.93 84.68 89.52C84.68 89.52 84.48 96.5 88.76 104.5V107.58C88.76 107.58 84.27 97.11 81.83 95.68C81.83 95.68 91.41 82.13 36.97 59.97H36.96Z" fill="#D4E4F8"/>
<path d="M88.7499 104.51C88.7499 104.51 95.3499 114.6 91.5899 126.89L89.8899 126.43C89.8899 126.43 91.5399 112.9 88.0799 106.09C84.6199 99.2799 88.7499 104.51 88.7499 104.51Z" fill="#D4E4F8"/>
<path d="M95.4399 123.99C96.0099 125.34 101.45 126.6 109.53 127.71C110.95 127.91 112.46 128.1 114.03 128.28C141.52 131.54 216.81 133.36 221.45 132.4C227.86 131.07 240.62 66.1698 240.62 66.1698C240.62 66.1698 203.05 65.5098 173.21 65.1998C163 65.0898 127.5 64.8198 120.91 64.8198C110.71 64.8198 94.5199 121.8 95.4399 123.99Z" fill="#F2F7FC"/>
<path d="M105.84 115.66C105.84 115.66 117.37 71.1898 118.21 67.4498C118.58 65.7798 119.72 65.1798 120.88 65.0298C118.85 64.8298 117.38 64.8198 117.38 64.8198C113.39 64.8198 109.84 67.5198 108.56 71.5398C105.77 80.2998 100.22 97.1398 95.01 113.6C95.27 113.6 105.85 115.66 105.85 115.66H105.84Z" fill="white"/>
<path d="M35.9299 155.27C37.7699 166.43 49.8 173.53 62.14 173.53H86.5799L84.6899 109.08C84.6899 109.08 61.3599 101.43 55.4999 108.16C50.3699 114.06 36.4599 137.43 35.7199 151.25C35.6499 152.64 35.7199 153.98 35.9399 155.26L35.9299 155.27Z" fill="white"/>
<path d="M35.9299 155.27C37.7699 166.43 49.8 173.53 62.14 173.53H74.1299C66.1399 168.4 58.9099 152.6 35.9399 155.27H35.9299Z" fill="#D4E4F8"/>
<path d="M100.8 115.4C100.8 115.4 67.83 99.4799 61.59 109.88C58.27 115.4 49.15 137.44 48.48 151.27C47.83 164.71 60.13 173.54 72.78 173.54H95.25L100.8 115.41V115.4Z" fill="#AAC8E8"/>
<path d="M57.3598 162.44C57.7198 162.73 58.0999 163.02 58.4799 163.31C63.2399 166.84 69.4499 169.65 76.5599 171.4C81.9299 172.72 87.8099 173.42 93.9499 173.37H104.64H104.78H155.36L184.35 173.39H184.78L185.79 168.08L194.97 114.67C194.97 114.67 67.9198 111.79 57.5798 117.73C52.7798 120.49 50.0599 131.9 48.5499 144.48C47.7499 151.18 51.1499 157.47 57.3499 162.45L57.3598 162.44Z" fill="#E1EFFF"/>
<path opacity="0.5" d="M57.36 162.44C57.72 162.73 58.1 163.02 58.48 163.31C63.24 166.84 69.45 169.65 76.56 171.4C81.93 172.72 87.81 173.42 93.95 173.37H104.64H104.78H155.36L184.35 173.39H184.78L185.79 168.08C168.02 164.62 143.43 161.11 117.77 161.38C93.27 161.64 72.76 161.61 57.35 162.44H57.36Z" fill="#BCD4F6"/>
<path d="M127.54 65.76C127.79 65.68 128.15 65.48 128.45 65.28H121.76C121.76 65.28 124.33 63.82 126 63.07C127.67 62.32 131.76 63.07 131.76 63.07C131.76 63.07 146.9 60.8 155.39 61.02C157.67 61.08 173.86 58.42 178.52 59.36C180.98 59.86 183.21 60.25 184.64 60.48C185.51 60.62 186.33 59.99 186.4 59.1V59.08C186.67 56 187.05 54.28 187.05 54.28L192.75 51.51C193.93 52.14 195.03 52.73 195.61 53.04C195.58 53.36 195.56 53.67 195.55 53.98C195.5 55.55 195.66 56.96 195.94 58.19C196.45 60.46 198.2 62.24 200.44 62.83H200.47C196.2 66.54 174.48 72.98 174.11 71.09C173.61 68.55 131.76 65.27 131.76 65.27C131.76 65.27 130.59 65.72 130.3 66.14C130.01 66.56 127.67 66.5 127.24 66.56C126.81 66.62 127.03 65.91 127.54 65.75V65.76Z" fill="#FFB27D"/>
<path d="M112.69 159.26C112.69 159.26 108.28 167.27 106.32 168.18C104.77 168.9 100.56 169.61 98.2199 171.42C95.4999 173.52 100.21 173.41 101.24 173.41C101.24 173.41 106.5 172.78 109 172.83C110.44 172.86 114.72 173.41 114.72 173.41C118.09 173.41 120.66 170.33 120.03 166.99C120.03 166.96 120.02 166.93 120.01 166.9C119.4 163.8 118.93 159.81 118.93 159.81L112.7 159.26H112.69Z" fill="#ED7D2B"/>
<path d="M167.69 64.0801C167.78 66.1601 168.36 68.4501 170.2 69.6501C173.11 71.5501 172.37 76.5101 172.36 78.4601L184.82 60.5001C184.82 60.5001 181.36 59.6101 177.23 59.1601C174.71 58.8801 168.09 59.6401 168.09 59.6401C168.09 59.6401 167.58 61.7301 167.68 64.0801H167.69Z" fill="#699DEE"/>
<path d="M131.97 162.4C131.97 162.4 127.57 167.28 125.62 168.18C124.22 168.83 120.46 169.2 118.22 170.84C115.86 172.57 117.67 173.42 119.04 173.42C119.04 173.42 125.33 173.92 129.33 172.79C130.42 172.48 133.41 173.1 134.47 173.33C134.79 173.4 136.85 173.57 137.17 173.53C139.61 173.22 139.72 170.86 139.49 168.33C139.45 167.86 139.38 167.38 139.29 166.92C138.68 163.82 138.31 160.94 138.31 160.94L131.96 162.41L131.97 162.4Z" fill="#F99746"/>
<path d="M110.29 159.71C110.29 159.71 111.88 160.83 113.28 161.3C115.48 162.04 119.58 161.7 119.58 161.7C119.58 161.7 130.05 141.26 132.26 136.09C134.35 131.19 136.11 120.44 136.11 120.44C137.71 120.35 149.67 122.06 160.18 120.91C165.77 120.3 170.5 118.91 172.1 116.07C176.72 107.88 161.97 98.76 161.97 98.76C161.97 98.76 133.13 103.99 126.8 108.62C120.79 113.01 110.3 159.72 110.3 159.72L110.29 159.71Z" fill="#233862"/>
<path d="M130.4 162.16C130.4 162.16 132.64 163.34 134.09 163.59C136.73 164.04 139.57 163.15 139.57 163.15C139.57 163.15 141.18 153.36 147.78 137.69C149.44 133.76 149.18 125.7 149.4 125.6C149.4 125.6 185.48 125.91 189.66 117.76C190.34 116.44 191.1 112.71 191.01 111.5C190.57 105.05 182.25 102.56 182.25 102.56C182.25 102.56 144.65 109.25 138.19 113.72C131.73 118.18 130.38 162.17 130.38 162.17L130.4 162.16Z" fill="#2A4E96"/>
<path d="M158.92 99.02C161.11 102.96 163.39 106.07 171.78 107.53C182.35 109.37 188.14 111.62 191.07 112.51C193.31 113.19 199.75 104.93 202.81 97.57C205.78 90.44 208.31 79.32 208.33 78.46C208.6 65.22 198.59 62.04 198.59 62C198.59 62 191.16 67.09 187.12 65.32C183.13 63.58 184.77 60.58 184.83 60.5L174.11 71.09C174.11 71.09 171.69 80.39 168.78 87.14C164.37 97.37 158.32 97.93 158.92 99.02Z" fill="#699DEE"/>
<path d="M187.05 54.28C187.05 54.28 186.67 56.01 186.4 59.08C191.23 58.92 195.06 53.88 195.09 53.56C194.51 53.25 193.92 52.13 192.74 51.5L187.04 54.27L187.05 54.28Z" fill="#ED985F"/>
<path d="M185.92 57.3801C185.92 57.3801 196.09 57.0901 195.81 50.7201C195.53 44.3501 196.66 40.0201 190.15 39.9401C183.64 39.8601 182.49 42.3401 182.07 44.4901C181.65 46.6401 183.26 57.3001 185.92 57.3801Z" fill="#FFB27D"/>
<path d="M195.27 53.29C195.27 53.29 195.68 51.17 194.54 49.77C194.54 49.77 195.29 47.69 194.5 47.23C193.71 46.76 193.29 48.53 192.94 48.2C192.59 47.86 191.06 46.29 190.6 44.21C190.13 42.13 183.08 43.59 182.24 43.84C182.1 43.88 181.92 43.87 181.71 43.82C179.94 43.36 179.42 41.06 180.78 39.84C180.86 39.77 180.94 39.69 181.01 39.62C181.76 38.86 186.95 33.76 192.89 36.24C198.83 38.72 199.27 41.79 198.57 44.28C197.87 46.77 197.91 52.8 195.27 53.3V53.29Z" fill="#2B478B"/>
<path d="M188.06 53.4699C188.06 53.4699 187.4 54.3899 186.02 54.6399C184.64 54.8799 184.34 53.7999 184.34 53.7999C184.34 53.7999 185.6 53.3799 188.05 53.4699H188.06Z" fill="white"/>
<path d="M205.82 69.36C205.82 69.36 207.57 72.86 205.93 79.25C202.71 91.87 189.76 102.11 187.89 101.16C186.02 100.21 181.11 100.35 183.77 94.62C186.42 88.89 197.16 67.74 197.16 67.74L205.81 69.36H205.82Z" fill="#FFB27D"/>
<path d="M190.09 81.67C193.48 83.57 195.97 85.09 201.16 85.08C205.07 85.08 208.28 84.3 208.28 84.3C208.28 84.3 212.29 67.88 204.8 64.5C202.22 63.34 198.6 62 198.6 62C198.6 62 184.03 78.25 190.1 81.66L190.09 81.67Z" fill="#699DEE"/>
<path d="M163.46 96.03C163.46 96.03 181.55 94.09 183.97 94.18C186.4 94.27 188.86 100.84 188.52 101.18C188.18 101.52 180.9 101.88 176.4 101.57C171.46 101.22 165.17 99.62 165.17 99.62L163.46 96.04V96.03Z" fill="#FFB27D"/>
<path d="M159.71 155.62C161.69 166.44 172.57 173.3 183.71 173.3H206.18L204.42 108.28C204.42 108.28 182.98 101.2 177.59 107.93C172.87 113.83 160.08 137.2 159.4 151.02C159.32 152.62 159.43 154.15 159.7 155.62H159.71Z" fill="white"/>
<path d="M159.71 155.62C161.69 166.44 172.57 173.3 183.71 173.3H201.69C193.27 167.9 181.94 152.98 159.7 155.62H159.71Z" fill="#D4E4F8"/>
<path d="M234.2 173.53C239.84 173.5 245.89 172.28 250.48 168.81C254.94 165.44 257.58 160.32 259.19 155.05C262.62 143.8 262.52 131.46 262.15 119.81C261.75 107.2 260.62 94.5799 259.17 82.0499C258.69 77.9099 258.56 72.5599 256.43 68.8299C254.76 65.9199 248.52 64.9499 245.51 65.0299C243 65.0999 240.58 67.2699 238.47 68.5199C237.05 69.3599 235.63 70.1999 234.21 71.0299C232.83 71.8399 232.78 73.2699 232.3 74.7899C228.25 87.5399 224.27 100.31 220.18 113.05C215.37 111.02 210.47 109.18 205.44 107.8C200.7 106.5 195.29 105.23 190.38 106.25C185.27 107.32 183.72 112.28 181.85 116.6C179.38 122.33 177.24 128.21 175.48 134.2C173.77 140.03 172.05 146.34 172.19 152.47C172.32 158 174.83 163.11 178.9 166.78C184.09 171.46 190.92 173.52 197.76 173.52H234.22L234.2 173.53Z" fill="#BCD4F6"/>
<path d="M230.6 115.66C230.6 115.66 242.13 71.1898 242.97 67.4498C243.34 65.7798 244.48 65.1798 245.64 65.0298C243.61 64.8298 242.14 64.8198 242.14 64.8198C238.15 64.8198 234.6 67.5198 233.32 71.5398C230.53 80.2998 225.38 96.4598 220.17 112.92C220.43 112.92 230.61 115.66 230.61 115.66H230.6Z" fill="white"/>
<path d="M162.01 104.72H185.46C185.46 103.68 184.62 102.84 183.59 102.84H162.01V104.72Z" fill="#ED7D2B"/>
<path d="M162.08 79.01H125.82L134.52 104.72H171.01L162.08 79.01Z" fill="#ED7D2B"/>
<path d="M125.29 79.01L133.98 104.72H170.48L161.55 79.01H125.29Z" fill="#F99746"/>
<path d="M144.84 91.6201C145.07 92.6001 146.04 93.4001 147.01 93.4001C147.98 93.4001 148.59 92.6001 148.37 91.6201C148.14 90.6401 147.17 89.8401 146.2 89.8401C145.23 89.8401 144.62 90.6401 144.84 91.6201Z" fill="white"/>
<path d="M221.26 113.29V114.82C221.26 115.36 221.43 115.79 221.64 115.79H277.08C277.29 115.79 277.46 115.35 277.46 114.82V113.29C277.46 112.76 277.29 112.32 277.08 112.32H221.64C221.43 112.32 221.26 112.76 221.26 113.29Z" fill="#BCD4F6"/>
<path d="M221.26 113.29V114.82C221.26 115.36 221.42 115.79 221.61 115.79H265.62C265.81 115.79 265.97 115.35 265.97 114.82V113.29C265.97 112.76 265.81 112.32 265.62 112.32H221.61C221.42 112.32 221.26 112.76 221.26 113.29Z" fill="#D4E4F8"/>
<path d="M235.29 173.53H274.65V115.79H235.29V173.53Z" fill="#A4C4F4"/>
<path d="M224.26 173.53H263.62V115.79H224.26V173.53Z" fill="#F3F8FF"/>
<path d="M226.38 170.34H261.51V117.42H226.38V170.34ZM261.13 169.96H226.76V117.81H261.13V169.96Z" fill="#B7D3F3"/>
<path d="M261.32 134.93H226.57V135.31H261.32V134.93Z" fill="#B7D3F3"/>
<path d="M261.32 152.78H226.57V153.16H261.32V152.78Z" fill="#B7D3F3"/>
<path d="M240.38 120.84H246.83C247.14 120.84 247.4 120.58 247.4 120.27C247.4 119.96 247.14 119.7 246.83 119.7H240.38C240.07 119.7 239.81 119.96 239.81 120.27C239.81 120.58 240.07 120.84 240.38 120.84Z" fill="#B7D3F3"/>
<path d="M240.38 138.29H246.83C247.14 138.29 247.4 138.03 247.4 137.72C247.4 137.41 247.14 137.15 246.83 137.15H240.38C240.07 137.15 239.81 137.41 239.81 137.72C239.81 138.03 240.07 138.29 240.38 138.29Z" fill="#B7D3F3"/>
<path d="M240.38 156.48H246.83C247.14 156.48 247.4 156.22 247.4 155.91C247.4 155.6 247.14 155.34 246.83 155.34H240.38C240.07 155.34 239.81 155.6 239.81 155.91C239.81 156.22 240.07 156.48 240.38 156.48Z" fill="#B7D3F3"/>
<path d="M130.92 34.1399L128.35 43.1799C128.31 43.3099 128.3 43.4499 128.31 43.5799C128.34 44.0599 128.66 44.4799 129.14 44.6199L144.74 49.1099C145.22 49.2499 145.72 49.0599 146 48.6699C146.07 48.5599 146.13 48.4499 146.17 48.3199L148.74 39.2899C148.92 38.6699 148.56 38.0299 147.95 37.8499L132.35 33.3599C131.74 33.1799 131.1 33.5399 130.92 34.1499V34.1399Z" fill="#CDE0FB"/>
<path d="M128.31 43.5699C128.34 44.0499 128.66 44.4699 129.14 44.6099L144.74 49.0999C145.22 49.2399 145.72 49.0499 146 48.6599L138.06 41.3799L128.31 43.5799V43.5699Z" fill="#BED7FB"/>
<path d="M130.92 34.1399L137.9 42.8699L148.6 39.7399L148.73 39.2799C148.91 38.6599 148.55 38.0199 147.94 37.8399L132.34 33.3499C131.73 33.1699 131.09 33.5299 130.91 34.1399H130.92Z" fill="#F3F8FF"/>
<path d="M271.84 112.32H260.76C259.62 112.32 258.7 111.4 258.7 110.26C258.7 109.15 259.6 108.24 260.72 108.24H271.84V112.32Z" fill="#FCECDB"/>
<path d="M248.89 109.92V110.53C248.89 110.86 248.98 111.17 249.13 111.43C249.44 111.96 250.01 112.32 250.67 112.32H272.19C272.33 112.32 272.45 112.2 272.45 112.06V111.97C272.45 111.83 272.33 111.71 272.19 111.71H259.07C259 111.62 258.94 111.53 258.89 111.43C258.77 111.2 258.7 110.93 258.7 110.65V109.87C258.7 109.73 258.72 109.59 258.75 109.45C258.81 109.23 258.91 109.02 259.05 108.84H272.19C272.33 108.84 272.45 108.72 272.45 108.58V108.49C272.45 108.35 272.33 108.23 272.19 108.23H250.56C249.8 108.23 249.15 108.74 248.96 109.45C248.92 109.6 248.9 109.75 248.9 109.91L248.89 109.92Z" fill="#699DEE"/>
<path d="M248.95 109.46H258.74C258.8 109.24 258.9 109.03 259.04 108.85H272.18C272.32 108.85 272.44 108.73 272.44 108.59V108.5C272.44 108.36 272.32 108.24 272.18 108.24H250.55C249.79 108.24 249.14 108.75 248.95 109.46Z" fill="#548EE2"/>
<path d="M271.84 110.28L270.24 110.35L271.84 110.39V110.28Z" fill="#F4D2B8"/>
<path d="M271.84 110.92L268.04 110.99L271.84 111.03V110.92Z" fill="#F4D2B8"/>
<path d="M246.51 103.58H258.55C259.82 103.58 260.86 104.61 260.86 105.89C260.86 107.19 259.8 108.25 258.5 108.25H246.52V103.58H246.51Z" fill="#FCECDB"/>
<path d="M260.55 105.39V106.39C260.55 106.82 260.31 107.19 259.96 107.39C259.79 107.49 259.59 107.54 259.38 107.54H245.82C245.66 107.54 245.53 107.67 245.53 107.83V107.95C245.53 108.11 245.66 108.24 245.82 108.24H269.25C269.92 108.24 270.52 107.9 270.88 107.39C271.11 107.07 271.24 106.67 271.24 106.24V105.45C271.24 105.16 271.17 104.88 271.05 104.63C270.75 104 270.11 103.57 269.37 103.57H245.82C245.66 103.57 245.53 103.7 245.53 103.86V103.98C245.53 104.14 245.66 104.27 245.82 104.27H259.43C259.76 104.27 260.05 104.41 260.26 104.63C260.44 104.83 260.55 105.09 260.56 105.38L260.55 105.39Z" fill="#F99746"/>
<path d="M246.51 105.91L248.24 105.99L246.51 106.04V105.91Z" fill="#F4D2B8"/>
<path d="M246.51 104.84L250.64 104.92L246.51 104.97V104.84Z" fill="#F4D2B8"/>
<path d="M250.6 104.9C250.6 104.9 250.33 105.05 250.24 105.29C250.22 105.33 250.21 105.38 250.21 105.43C250.19 105.75 250.21 106.48 250.21 106.48L249.4 106.11L248.6 106.48V105.49C248.6 105.3 248.67 105.12 248.8 105C248.86 104.94 248.94 104.9 249.02 104.9H250.6Z" fill="#F99746"/>
<path d="M250.6 104.9C250.6 104.9 250.33 105.05 250.24 105.29H248.62C248.62 105.29 248.68 104.96 249.02 104.9H250.6Z" fill="#ED7D2B"/>
<path d="M224.85 102.31H237.59C237.62 102.58 237.64 102.84 237.64 103.12V104.36C238.49 104.18 239.66 104.04 240.26 104.41C241.27 105.04 240.96 106.88 240.01 108.01C239.06 109.15 236.03 109.9 236.03 109.9C235.07 111 233.74 111.77 232.25 112.01C231.91 112.07 231.57 112.1 231.22 112.1C227.69 112.1 224.8 109.19 224.8 105.64V103.12C224.8 102.85 224.82 102.58 224.85 102.31ZM239.59 106.73C240 105.67 239.72 105.28 239.27 105.2C238.76 105.11 238.07 105.46 237.63 106.07C237.58 106.82 237.4 107.54 237.12 108.2C237.83 108.03 239.28 107.58 239.6 106.74L239.59 106.73Z" fill="#F99746"/>
<path d="M234.3 112.32H228.47L228.81 111.53L234.04 111.33L234.3 112.32Z" fill="#F99746"/>
<path d="M232.17 111.41C236.02 106.92 235.19 104.74 234.5 102.31H237.59C237.62 102.58 237.64 102.84 237.64 103.12V104.36C238.49 104.18 239.66 104.04 240.26 104.41C241.27 105.04 240.96 106.88 240.01 108.01C239.06 109.15 236.03 109.9 236.03 109.9C235.48 110.53 234.81 111.04 234.07 111.41L234.3 112.32H232.33L232.28 112H232.26L232.18 111.4L232.17 111.41ZM239.59 106.73C240 105.67 239.72 105.28 239.27 105.2C238.76 105.11 238.07 105.46 237.63 106.07C237.58 106.82 237.4 107.54 237.12 108.2C237.83 108.03 239.28 107.58 239.6 106.74L239.59 106.73Z" fill="#ED7D2B"/>
<path d="M255.32 20.0798H226.78C224.51 20.0798 222.64 21.9498 222.64 24.2398V36.8398C222.64 38.9398 224.35 40.6598 226.44 40.6598H227.17L225.8 46.4998L234.43 40.6598H255.56C257.83 40.6598 259.69 38.7898 259.69 36.4998V24.4798C259.69 22.0598 257.72 20.0698 255.31 20.0698L255.32 20.0798Z" fill="#699DEE"/>
<path d="M254.95 29.8901H228.97C228.6 29.8901 228.3 30.1901 228.3 30.5601C228.3 30.9302 228.6 31.2301 228.97 31.2301H254.95C255.32 31.2301 255.62 30.9302 255.62 30.5601C255.62 30.1901 255.32 29.8901 254.95 29.8901Z" fill="#AAC8E8"/>
<path d="M254.95 32.8801H243.78C243.41 32.8801 243.11 33.1801 243.11 33.5501C243.11 33.9202 243.41 34.2201 243.78 34.2201H254.95C255.32 34.2201 255.62 33.9202 255.62 33.5501C255.62 33.1801 255.32 32.8801 254.95 32.8801Z" fill="#AAC8E8"/>
<path d="M241.19 32.8801H231.57C231.2 32.8801 230.9 33.1801 230.9 33.5501C230.9 33.9202 231.2 34.2201 231.57 34.2201H241.19C241.56 34.2201 241.86 33.9202 241.86 33.5501C241.86 33.1801 241.56 32.8801 241.19 32.8801Z" fill="#AAC8E8"/>
<path d="M247.08 25.83H237.75C237.39 25.83 237.1 25.54 237.1 25.18C237.1 24.82 237.39 24.53 237.75 24.53H247.08C247.44 24.53 247.73 24.82 247.73 25.18C247.73 25.54 247.44 25.83 247.08 25.83Z" fill="#AAC8E8"/>
<path d="M254.97 24.53H249.63C249.271 24.53 248.98 24.821 248.98 25.18C248.98 25.539 249.271 25.83 249.63 25.83H254.97C255.329 25.83 255.62 25.539 255.62 25.18C255.62 24.821 255.329 24.53 254.97 24.53Z" fill="#AAC8E8"/>
</svg>
