<svg xmlns="http://www.w3.org/2000/svg" width="28.44" height="29.568" viewBox="0 0 28.44 29.568">
  <g id="Group_6637" data-name="Group 6637" transform="translate(-623.539 -210.887)">
    <path id="Path_14012" data-name="Path 14012" d="M626.9,210.887a3.771,3.771,0,0,1,1.588.638,3.382,3.382,0,0,1,1.189,1.7c.322.986.654,1.969.972,2.957.057.177.123.256.332.259q10.219.139,20.438.293c.172,0,.345,0,.557,0-.147.632-.284,1.227-.426,1.822q-.512,2.159-1.028,4.318a2.461,2.461,0,0,1-2.3,2c-2.9.3-5.8.6-8.7.9q-2.64.273-5.281.539c-.074.008-.147.025-.242.042.038.107.063.2.1.281a1.091,1.091,0,0,1,0,.92,10.775,10.775,0,0,0-.414,1.1,1.837,1.837,0,0,0,1.722,2.332c.1,0,.192,0,.289,0q6.611,0,13.223,0a.849.849,0,0,1,.747.287.688.688,0,0,1-.4,1.106,1.56,1.56,0,0,1-.344.029q-6.683,0-13.367,0a3.278,3.278,0,0,1-3.184-4.371.891.891,0,0,1,.064-.191,1.877,1.877,0,0,0,.029-1.692c-1.388-4.144-2.743-8.3-4.11-12.451a1.857,1.857,0,0,0-1.933-1.414c-.654,0-1.309,0-1.963,0-.508,0-.793-.165-.894-.515s.057-.63.505-.893Z" fill="#1d1d1b"/>
    <path id="Path_14013" data-name="Path 14013" d="M862.429,491.707a3.175,3.175,0,1,1,3.17-3.181A3.18,3.18,0,0,1,862.429,491.707Z" transform="translate(-215.771 -251.252)" fill="#1d1d1b"/>
    <path id="Path_14014" data-name="Path 14014" d="M700.8,488.524a3.174,3.174,0,1,1,3.161,3.183A3.171,3.171,0,0,1,700.8,488.524Z" transform="translate(-70.724 -251.253)" fill="#1d1d1b"/>
  </g>
</svg>
