<svg xmlns="http://www.w3.org/2000/svg" xmlns:xlink="http://www.w3.org/1999/xlink" width="397" height="302.548" viewBox="0 0 397 302.548">
  <defs>
    <linearGradient id="linear-gradient" x1="0.5" x2="0.5" y2="1" gradientUnits="objectBoundingBox">
      <stop offset="0" stop-color="#2d58af"/>
      <stop offset="1" stop-color="#0b2a6b"/>
    </linearGradient>
  </defs>
  <g id="comfirem" transform="translate(-55.334 -95.7)">
    <path id="Path_17013" data-name="Path 17013" d="M82.956,382.721s-36.787-25.848-19.874-58.335,50.745-82.363,33.817-107.8C80,191.167,78.276,109.711,175.537,97.224c77.573-9.953,101.152,31.018,113.176,58.979,15.859,36.885,1.686,104.221,75.856,113.1,74.188,8.88,116.564,45.562,63.424,105.349C404.77,400.785,82.956,382.721,82.956,382.721Z" transform="translate(0.561)" fill="#c9d6f2"/>
    <g id="Group_7090" data-name="Group 7090" transform="translate(103.109 130.027)">
      <path id="Path_17014" data-name="Path 17014" d="M209.4,357.406c-54.743,11.964-99.327-4.648-84.113-32.914s5.887-31.829-5.844-40.72-38.084-33.646-12.411-60.841c25.7-27.177,6.18-35.063-1.845-51.056-23.44-46.66,71.627-65.816,45.9-22.875-19.311,32.228-18.293,56.908,5.7,73.306,24.019,16.4,28.809,25.051,27.749,45.32s-9.356,63.35,15.118,61.557C224.115,327.39,237.476,351.266,209.4,357.406Z" transform="translate(-96.169 -125.041)" fill="#ebf2ff"/>
      <path id="Path_17015" data-name="Path 17015" d="M108.862,163.6c-2.541-4.83-3.139-28.512,19.838-27.284,13.983.748,6.723,19.846,3.552,34.54s-1,37.768,4.841,47.269c10.8,17.526,8.488,24.9-4.878,39.937,0,0-6.94,11.167,5.863,23.151s7.855,44.984,22.725,50.332,23.269,16.747,13.08,17.808c-10.167,1.068-52.341,5.165-41.239-22.6,16.179-40.424-15.365-52.408-23.223-61.379-7.2-8.222-13.369-26.6,7.53-49.636C133.118,197.907,116.657,178.481,108.862,163.6Z" transform="translate(-95.069 -123.132)" fill="#cbdbf4"/>
    </g>
    <g id="Group_7101" data-name="Group 7101" transform="translate(55.334 265.551)">
      <g id="Group_7091" data-name="Group 7091" transform="translate(29.156 30.455)">
        <path id="Path_17016" data-name="Path 17016" d="M169.546,351.755l-.839,3.706a148.874,148.874,0,0,1-40.408-18.18c-27.352-17.561-43.975-41.666-48.045-69.763l3.544-.61C93.257,332.155,168.783,351.562,169.546,351.755Z" transform="translate(-80.255 -266.91)" fill="#7585f8"/>
      </g>
      <g id="Group_7092" data-name="Group 7092" transform="translate(18.101)">
        <path id="Path_17017" data-name="Path 17017" d="M84.438,275.693S64.573,265.154,72.8,240.879C72.8,240.879,90.432,255.2,84.438,275.693Z" transform="translate(-70.806 -240.879)" fill="#7585f8"/>
      </g>
      <g id="Group_7093" data-name="Group 7093" transform="translate(0 32.709)">
        <path id="Path_17018" data-name="Path 17018" d="M93.43,290.788s-27.083,9.05-38.1-21.525C55.334,269.263,69.779,263.958,93.43,290.788Z" transform="translate(-55.334 -268.837)" fill="#7585f8"/>
      </g>
      <g id="Group_7094" data-name="Group 7094" transform="translate(37.108 10.871)">
        <path id="Path_17019" data-name="Path 17019" d="M87.116,294.081s25.147-14.025,12.613-43.91C99.73,250.171,86,257.284,87.116,294.081Z" transform="translate(-87.052 -250.171)" fill="#7585f8"/>
      </g>
      <g id="Group_7095" data-name="Group 7095" transform="translate(12.153 59.269)">
        <path id="Path_17020" data-name="Path 17020" d="M105.757,309.685S79.649,321.624,65.722,292.44C65.722,292.44,79.578,285.586,105.757,309.685Z" transform="translate(-65.722 -291.539)" fill="#7585f8"/>
      </g>
      <g id="Group_7096" data-name="Group 7096" transform="translate(50.242 32.6)">
        <path id="Path_17021" data-name="Path 17021" d="M99.306,313.768s23.67-16.667,8.274-45.024C107.58,268.744,94.6,277.323,99.306,313.768Z" transform="translate(-98.278 -268.744)" fill="#7585f8"/>
      </g>
      <g id="Group_7097" data-name="Group 7097" transform="translate(32.379 85.196)">
        <path id="Path_17022" data-name="Path 17022" d="M125.3,325.689s-23.832,16.458-42.288-9.73C83.01,315.958,95.559,306.694,125.3,325.689Z" transform="translate(-83.01 -313.699)" fill="#7585f8"/>
      </g>
      <g id="Group_7098" data-name="Group 7098" transform="translate(69.32 51.75)">
        <path id="Path_17023" data-name="Path 17023" d="M119.05,330.919s20.641-20.693.879-45.807C119.928,285.112,108.514,295.9,119.05,330.919Z" transform="translate(-114.585 -285.112)" fill="#7585f8"/>
      </g>
      <g id="Group_7099" data-name="Group 7099" transform="translate(54.469 105.619)">
        <path id="Path_17024" data-name="Path 17024" d="M145.193,335.126s-18.962,22.422-43.3,2.267C101.891,337.393,111.761,325.022,145.193,335.126Z" transform="translate(-101.891 -331.156)" fill="#7585f8"/>
      </g>
      <g id="Group_7100" data-name="Group 7100" transform="translate(84.736 65.832)">
        <path id="Path_17025" data-name="Path 17025" d="M140.059,341.506s14.886-25.61-10.439-44.358C129.62,297.148,121.243,310.675,140.059,341.506Z" transform="translate(-127.762 -297.148)" fill="#7585f8"/>
      </g>
    </g>
    <g id="Group_7117" data-name="Group 7117" transform="translate(306.474 286.263)">
      <g id="Group_7103" data-name="Group 7103" transform="translate(0 15.241)">
        <path id="Path_17028" data-name="Path 17028" d="M270.791,350.118l-.8-4.858c77.151-12.608,110.523-73.024,110.859-73.65l4.336,2.343C384.849,274.568,350.407,337.113,270.791,350.118Z" transform="translate(-269.994 -271.61)" fill="#ebf2ff"/>
      </g>
      <g id="Group_7104" data-name="Group 7104" transform="translate(110.539)">
        <path id="Path_17029" data-name="Path 17029" d="M364.476,277.957s10.076-26.053,23.215-17.736C393.276,263.75,390.26,276.393,364.476,277.957Z" transform="translate(-364.476 -258.583)" fill="#ebf2ff"/>
      </g>
      <g id="Group_7105" data-name="Group 7105" transform="translate(104.692 21.344)">
        <path id="Path_17030" data-name="Path 17030" d="M359.479,283.376s25.68-14.842,28.361.158C388.969,289.936,377.713,298.317,359.479,283.376Z" transform="translate(-359.479 -276.827)" fill="#ebf2ff"/>
      </g>
      <g id="Group_7106" data-name="Group 7106" transform="translate(95.543 4.301)">
        <path id="Path_17031" data-name="Path 17031" d="M360.859,288.619s15.72-23.983-.463-26.294C353.5,261.323,344.564,271.846,360.859,288.619Z" transform="translate(-351.659 -262.259)" fill="#ebf2ff"/>
      </g>
      <g id="Group_7107" data-name="Group 7107" transform="translate(79.4 21.487)">
        <path id="Path_17032" data-name="Path 17032" d="M346.1,303.506s16.924-23.4.935-26.444C340.223,275.755,330.809,285.893,346.1,303.506Z" transform="translate(-337.86 -276.949)" fill="#ebf2ff"/>
      </g>
      <g id="Group_7108" data-name="Group 7108" transform="translate(64.317 34.742)">
        <path id="Path_17033" data-name="Path 17033" d="M333.3,314.826s16.8-23.42.807-26.437C327.287,287.087,317.9,297.269,333.3,314.826Z" transform="translate(-324.968 -288.278)" fill="#ebf2ff"/>
      </g>
      <g id="Group_7109" data-name="Group 7109" transform="translate(46.717 47.557)">
        <path id="Path_17034" data-name="Path 17034" d="M314.895,326s20.741-20.688,5.907-26.374C314.471,297.209,303.466,305.847,314.895,326Z" transform="translate(-309.925 -299.231)" fill="#ebf2ff"/>
      </g>
      <g id="Group_7110" data-name="Group 7110" transform="translate(28.046 55.82)">
        <path id="Path_17035" data-name="Path 17035" d="M299.455,333.072s20.151-21.191,5.072-26.445C298.133,304.409,287.345,313.305,299.455,333.072Z" transform="translate(-293.966 -306.294)" fill="#ebf2ff"/>
      </g>
      <g id="Group_7111" data-name="Group 7111" transform="translate(7.398 63.726)">
        <path id="Path_17036" data-name="Path 17036" d="M277.6,339.053s25.11-15.819,12.672-24.909C284.965,310.264,272.261,316.309,277.6,339.053Z" transform="translate(-276.317 -313.052)" fill="#ebf2ff"/>
      </g>
      <g id="Group_7112" data-name="Group 7112" transform="translate(92.139 37.039)">
        <path id="Path_17037" data-name="Path 17037" d="M348.749,296.789s25.725-14.849,28.377.174C378.257,303.349,367.027,311.711,348.749,296.789Z" transform="translate(-348.749 -290.241)" fill="#ebf2ff"/>
      </g>
      <g id="Group_7113" data-name="Group 7113" transform="translate(76.794 50.897)">
        <path id="Path_17038" data-name="Path 17038" d="M335.633,308.617s25.721-14.819,28.372.19C365.151,315.188,353.895,323.561,335.633,308.617Z" transform="translate(-335.633 -302.086)" fill="#ebf2ff"/>
      </g>
      <g id="Group_7114" data-name="Group 7114" transform="translate(59.941 65.905)">
        <path id="Path_17039" data-name="Path 17039" d="M321.228,317.7s28.048-9.347,26.861,6.2C347.61,330.522,334.851,336.5,321.228,317.7Z" transform="translate(-321.228 -314.914)" fill="#ebf2ff"/>
      </g>
      <g id="Group_7115" data-name="Group 7115" transform="translate(40.02 77.823)">
        <path id="Path_17040" data-name="Path 17040" d="M304.2,326.522s28.646-6.663,25.708,8.863C328.655,341.994,315.472,346.764,304.2,326.522Z" transform="translate(-304.201 -325.101)" fill="#ebf2ff"/>
      </g>
      <g id="Group_7116" data-name="Group 7116" transform="translate(18.904 86.434)">
        <path id="Path_17041" data-name="Path 17041" d="M286.152,332.675s28.912-2.866,23.634,12.383C307.5,351.535,293.927,354.559,286.152,332.675Z" transform="translate(-286.152 -332.461)" fill="#ebf2ff"/>
      </g>
    </g>
    <path id="Path_17042" data-name="Path 17042" d="M424.467,346.426c0,6.128-78.947,11.1-176.342,11.1s-176.343-4.969-176.343-11.1,78.955-11.092,176.343-11.092S424.467,340.3,424.467,346.426Z" transform="translate(2.795 40.724)" fill="#acbfe2"/>
    <g id="Group_7119" data-name="Group 7119" transform="translate(137.147 138.663)">
      <path id="Path_17043" data-name="Path 17043" d="M372.422,256a123.579,123.579,0,1,1-123.58-123.582A123.576,123.576,0,0,1,372.422,256Z" transform="translate(-125.263 -132.422)" fill="url(#linear-gradient)"/>
      <g id="Group_7118" data-name="Group 7118" transform="translate(62.762 65.408)">
        <path id="Path_17044" data-name="Path 17044" d="M250.751,287.786c3.587,5.843-.032,14.6-8.1,19.553s-17.509,4.224-21.1-1.624l-41.259-67.2c-3.591-5.847.028-14.6,8.1-19.55,8.056-4.952,17.509-4.223,21.1,1.619Z" transform="translate(-178.908 -183.681)" fill="#fff"/>
        <path id="Path_17045" data-name="Path 17045" d="M243.638,307.1a17.131,17.131,0,0,1-29.2-17.929L271.3,196.5a17.133,17.133,0,0,1,29.209,17.918Z" transform="translate(-173.3 -188.329)" fill="#fff"/>
      </g>
    </g>
  </g>
</svg>
