<svg id="icon" xmlns="http://www.w3.org/2000/svg" width="31.625" height="31.57" viewBox="0 0 31.625 31.57">
  <path id="Path_12044" data-name="Path 12044" d="M687.292,175.667c.125.038.249.078.375.115a2.932,2.932,0,0,1,2.153,2.8q.018,4.482,0,8.964a2.924,2.924,0,0,1-2.913,2.909q-4.491.025-8.982,0a2.951,2.951,0,0,1-2.857-2.326,2,2,0,0,0-.066-.2v-9.74c.022-.065.05-.129.066-.2a2.906,2.906,0,0,1,1.525-1.984,7.524,7.524,0,0,1,.942-.348Zm-4.879,12.823q2.177,0,4.354,0a.99.99,0,0,0,1.081-1.071q0-4.345,0-8.691a1,1,0,0,0-1.1-1.086q-4.339,0-8.677,0a1,1,0,0,0-1.1,1.087q0,4.33,0,8.66a1,1,0,0,0,1.112,1.1Q680.251,188.492,682.412,188.49Z" transform="translate(-675 -175.667)" fill="#1d1d1b"/>
  <path id="Path_12045" data-name="Path 12045" d="M893.761,187.935c-.046.154-.09.309-.139.463a2.938,2.938,0,0,1-2.752,2.058q-4.522.022-9.044,0a2.917,2.917,0,0,1-2.882-2.876q-.028-4.513,0-9.026a2.94,2.94,0,0,1,2.3-2.813c.077-.019.151-.049.227-.073h9.76a1.492,1.492,0,0,0,.166.06,2.954,2.954,0,0,1,2.216,1.976c.058.161.1.327.15.491Zm-12.848-4.9q0,2.188,0,4.376a.99.99,0,0,0,1.073,1.079q4.354,0,8.708,0a.994.994,0,0,0,1.089-1.094q0-4.33,0-8.66a1,1,0,0,0-1.089-1.095q-4.338,0-8.677,0a1,1,0,0,0-1.1,1.11Q880.912,180.892,880.913,183.034Z" transform="translate(-862.136 -175.667)" fill="#1d1d1b"/>
  <path id="Path_12046" data-name="Path 12046" d="M675,381.736c.061-.193.115-.388.184-.578a2.923,2.923,0,0,1,2.708-1.943c3.015-.013,6.029-.018,9.044,0a2.914,2.914,0,0,1,2.881,2.876q.029,4.513,0,9.027a2.913,2.913,0,0,1-2.88,2.877q-4.522.031-9.044,0a2.945,2.945,0,0,1-2.826-2.324,2,2,0,0,0-.066-.2Zm1.977,4.855q0,2.173,0,4.345a.994.994,0,0,0,1.089,1.094q4.338,0,8.677,0a1,1,0,0,0,1.1-1.11q0-4.315,0-8.629a1,1,0,0,0-1.105-1.109q-4.323,0-8.646,0a1.006,1.006,0,0,0-1.119,1.126Q676.975,384.45,676.977,386.591Z" transform="translate(-675 -362.44)" fill="#1d1d1b"/>
  <path id="Path_12047" data-name="Path 12047" d="M893.75,391.47c-.046.154-.09.31-.139.463a2.938,2.938,0,0,1-2.752,2.058q-4.522.022-9.044,0a2.917,2.917,0,0,1-2.881-2.877q-.028-4.513,0-9.027a2.918,2.918,0,0,1,2.881-2.876q4.522-.029,9.044,0a2.94,2.94,0,0,1,2.825,2.325,2.048,2.048,0,0,0,.067.2Zm-7.443.555q2.192,0,4.385,0a.99.99,0,0,0,1.081-1.071q0-4.346,0-8.691a1,1,0,0,0-1.1-1.087q-4.339,0-8.677,0a1,1,0,0,0-1.1,1.087q0,4.33,0,8.66a1,1,0,0,0,1.112,1.1Q884.161,392.027,886.307,392.025Z" transform="translate(-862.125 -362.434)" fill="#1d1d1b"/>
</svg>
