<svg xmlns="http://www.w3.org/2000/svg" width="27.779" height="27.617" viewBox="0 0 27.779 27.617">
  <g id="Group_6636" data-name="Group 6636" transform="translate(349.942 -108.403)">
    <path id="Path_13995" data-name="Path 13995" d="M-45.673,224.714H-51.42l-.467-4.937h.226c1.5,0,2.994.006,4.49-.006a.358.358,0,0,1,.392.266,13.838,13.838,0,0,1,1.06,4.145,1.646,1.646,0,0,0,.046.208Z" transform="translate(-276.49 -103.31)" fill="#1d1d1b"/>
    <path id="Path_13996" data-name="Path 13996" d="M-45.361,310.884a16.385,16.385,0,0,1-.282,1.7c-.244.9-.558,1.784-.84,2.675a.225.225,0,0,1-.25.184c-1.578-.005-3.157,0-4.735,0a.527.527,0,0,1-.082-.01l.442-4.872h5.748Z" transform="translate(-276.801 -187.529)" fill="#1d1d1b"/>
    <path id="Path_13997" data-name="Path 13997" d="M-343.7,219.874l-.451,4.913h-5.792c.129-.785.2-1.559.391-2.3.21-.826.522-1.627.8-2.433a.328.328,0,0,1,.242-.179c1.579-.01,3.158-.008,4.737-.007A.3.3,0,0,1-343.7,219.874Z" transform="translate(0 -103.396)" fill="#1d1d1b"/>
    <path id="Path_13998" data-name="Path 13998" d="M-349.19,310.768h5.739l.455,4.868h-.225c-1.507,0-3.013,0-4.52,0a.326.326,0,0,1-.362-.227,14.138,14.138,0,0,1-1.086-4.472C-349.194,310.889-349.19,310.836-349.19,310.768Z" transform="translate(-0.696 -187.723)" fill="#1d1d1b"/>
    <path id="Path_13999" data-name="Path 13999" d="M-240.811,220.054v4.9h-5.581a25.468,25.468,0,0,1,.476-4.9Z" transform="translate(-96.043 -103.573)" fill="#1d1d1b"/>
    <path id="Path_14000" data-name="Path 14000" d="M-140.614,224.97h-5.6v-4.911h5.106A29.129,29.129,0,0,1-140.614,224.97Z" transform="translate(-188.99 -103.577)" fill="#1d1d1b"/>
    <path id="Path_14001" data-name="Path 14001" d="M-140.539,310.833a29.435,29.435,0,0,1-.476,4.851h-5.119v-4.851Z" transform="translate(-189.062 -187.784)" fill="#1d1d1b"/>
    <path id="Path_14002" data-name="Path 14002" d="M-240.874,315.618h-5.116a29.1,29.1,0,0,1-.481-4.854h5.6Z" transform="translate(-95.985 -187.72)" fill="#1d1d1b"/>
    <path id="Path_14003" data-name="Path 14003" d="M-146.25,407.245v-6.462h4.752a14.584,14.584,0,0,1-1.336,3.39,7.68,7.68,0,0,1-1.821,2.26A3.905,3.905,0,0,1-146.25,407.245Z" transform="translate(-188.954 -271.225)" fill="#1d1d1b"/>
    <path id="Path_14004" data-name="Path 14004" d="M-234.532,400.728h4.732v6.465a3.778,3.778,0,0,1-1.459-.732,8.255,8.255,0,0,1-2.306-3.064A14.633,14.633,0,0,1-234.532,400.728Z" transform="translate(-107.06 -271.174)" fill="#1d1d1b"/>
    <path id="Path_14005" data-name="Path 14005" d="M-235.278,114.817c.314-.835.578-1.639.916-2.412a8.234,8.234,0,0,1,2.241-3.146,4.1,4.1,0,0,1,1.629-.857v6.414Z" transform="translate(-106.368)" fill="#1d1d1b"/>
    <path id="Path_14006" data-name="Path 14006" d="M-146.226,108.47a4.206,4.206,0,0,1,1.753.978,9.465,9.465,0,0,1,2.387,3.688c.2.5.35,1.021.52,1.534a1.927,1.927,0,0,1,.045.216h-4.7Z" transform="translate(-188.976 -0.062)" fill="#1d1d1b"/>
    <path id="Path_14007" data-name="Path 14007" d="M-320.739,400.514c1.515,0,2.949,0,4.384,0,.163,0,.186.091.218.212a15.37,15.37,0,0,0,1.2,3.3c.4.771.878,1.5,1.321,2.255A14.1,14.1,0,0,1-320.739,400.514Z" transform="translate(-27.09 -270.973)" fill="#1d1d1b"/>
    <path id="Path_14008" data-name="Path 14008" d="M-92.67,406.2c.341-.541.715-1.083,1.036-1.654a15.492,15.492,0,0,0,1.458-3.8c.052-.2.128-.27.34-.268,1.316.01,2.633.005,3.949.005h.243C-86.059,402.146-90.875,406.039-92.67,406.2Z" transform="translate(-238.658 -270.944)" fill="#1d1d1b"/>
    <path id="Path_14009" data-name="Path 14009" d="M-94.431,117.939a14.18,14.18,0,0,1,7.181,5.729c-.13.007-.213.016-.3.016-1.307,0-2.615-.005-3.922.006a.323.323,0,0,1-.382-.291,15.017,15.017,0,0,0-1.938-4.552C-93.977,118.562-94.183,118.289-94.431,117.939Z" transform="translate(-237.024 -8.846)" fill="#1d1d1b"/>
    <path id="Path_14010" data-name="Path 14010" d="M-313.188,119.177c-.182.256-.37.508-.543.769a15.172,15.172,0,0,0-1.973,4.63c-.055.211-.14.263-.346.262-1.309-.009-2.617,0-3.926,0h-.31A13.777,13.777,0,0,1-313.188,119.177Z" transform="translate(-27.509 -9.994)" fill="#1d1d1b"/>
  </g>
</svg>
