<svg id="Logo-f" xmlns="http://www.w3.org/2000/svg" width="259" height="161.476" viewBox="0 0 259 161.476">
  <path id="Path_1" data-name="Path 1" d="M393.047,448.114a5.317,5.317,0,0,1-3.866-1.609,5.41,5.41,0,0,1-1.134-1.764,5.779,5.779,0,0,1-.407-2.173v-.031a5.728,5.728,0,0,1,.407-2.156,5.545,5.545,0,0,1,1.134-1.781,5.257,5.257,0,0,1,1.725-1.2,5.42,5.42,0,0,1,2.187-.44,6.61,6.61,0,0,1,1.333.125,5.6,5.6,0,0,1,1.1.346,5.036,5.036,0,0,1,.941.539,8.425,8.425,0,0,1,.83.7l-.83.893a6.878,6.878,0,0,0-1.487-1.062,4.4,4.4,0,0,0-3.561-.078,4.114,4.114,0,0,0-1.323.94,4.394,4.394,0,0,0-.88,1.41,4.782,4.782,0,0,0-.314,1.736v.029a4.824,4.824,0,0,0,.314,1.749,4.381,4.381,0,0,0,.88,1.41,4.19,4.19,0,0,0,1.323.948,3.979,3.979,0,0,0,1.657.346,4.155,4.155,0,0,0,1.91-.409,6.62,6.62,0,0,0,1.573-1.148l.8.784a7.506,7.506,0,0,1-.87.78,5.337,5.337,0,0,1-.977.594,5.462,5.462,0,0,1-1.124.384,5.876,5.876,0,0,1-1.341.139m11.061-10.97h7.8v1.094h-6.579v3.713h5.885v1.094h-5.885v3.791h6.655v1.092h-7.873Zm14.945,0h1.141l6.8,8.644v-8.644h1.186v10.783h-.971l-6.964-8.843v8.843h-1.188ZM438.7,438.27h-3.618v-1.125h8.456v1.125h-3.62v9.658H438.7Zm11.755-1.125h7.8v1.094H451.67v3.713h5.885v1.094H451.67v3.791h6.656v1.092h-7.874Zm14.944,0h4.636a5.187,5.187,0,0,1,1.781.285,3.452,3.452,0,0,1,1.286.794,2.728,2.728,0,0,1,.617.94,3.179,3.179,0,0,1,.216,1.187v.031a3.192,3.192,0,0,1-.216,1.208,2.761,2.761,0,0,1-.607.927,3.366,3.366,0,0,1-.931.646,4.6,4.6,0,0,1-1.172.361l3.313,4.4h-1.5l-3.127-4.188h-3.083v4.188H465.4Zm4.538,5.5a3.846,3.846,0,0,0,1.112-.153,2.792,2.792,0,0,0,.882-.44,2.082,2.082,0,0,0,.58-.692,2.045,2.045,0,0,0,.207-.933V440.4a1.867,1.867,0,0,0-.725-1.563,3.253,3.253,0,0,0-2.039-.562h-3.337v4.376ZM267.982,438.27h-3.618v-1.125h8.456v1.125H269.2v9.658h-1.219Zm11.755-1.125h4.638a5.189,5.189,0,0,1,1.78.285,3.467,3.467,0,0,1,1.287.794,2.772,2.772,0,0,1,.616.94,3.179,3.179,0,0,1,.215,1.187v.031a3.192,3.192,0,0,1-.215,1.208,2.776,2.776,0,0,1-.607.927,3.37,3.37,0,0,1-.932.646,4.587,4.587,0,0,1-1.172.361l3.313,4.4h-1.5l-3.127-4.188h-3.081v4.188h-1.219Zm4.539,5.5a3.856,3.856,0,0,0,1.112-.153,2.793,2.793,0,0,0,.882-.44,2.081,2.081,0,0,0,.579-.692,2.031,2.031,0,0,0,.208-.933V440.4a1.87,1.87,0,0,0-.725-1.563,3.255,3.255,0,0,0-2.04-.562h-3.334v4.376Zm15.214-5.578h1.138l4.916,10.861h-1.309l-1.264-2.849H297.1l-1.279,2.849h-1.247Zm3,6.918-2.449-5.5-2.465,5.5Zm9.907-6.84h1.218v10.783H312.4Zm9,0h1.14l6.794,8.644v-8.644h1.188v10.783h-.972l-6.964-8.843v8.843H321.4Zm16.9,0h1.218v10.783H338.3Zm9,0h1.14l6.794,8.644v-8.644h1.187v10.783h-.971l-6.964-8.843v8.843H347.3Zm21.8,10.97a5.737,5.737,0,0,1-2.288-.433,5.058,5.058,0,0,1-2.819-2.949,6.153,6.153,0,0,1-.376-2.164v-.031a5.771,5.771,0,0,1,.391-2.119,5.6,5.6,0,0,1,1.1-1.78,5.227,5.227,0,0,1,3.913-1.68,7.493,7.493,0,0,1,1.24.094,5.222,5.222,0,0,1,1.049.279,4.786,4.786,0,0,1,.908.453,7.791,7.791,0,0,1,.826.608l-.786.925a5.461,5.461,0,0,0-.647-.5,4.43,4.43,0,0,0-.732-.385,4.584,4.584,0,0,0-.864-.255,5.437,5.437,0,0,0-1.039-.092,3.849,3.849,0,0,0-1.648.355,4.022,4.022,0,0,0-1.293.956,4.387,4.387,0,0,0-.849,1.41,4.759,4.759,0,0,0-.307,1.7v.029a5.138,5.138,0,0,0,.3,1.788,4.224,4.224,0,0,0,.857,1.418,3.919,3.919,0,0,0,1.339.94,4.493,4.493,0,0,0,1.771.338,4.828,4.828,0,0,0,1.742-.315,5.161,5.161,0,0,0,1.37-.762v-2.681h-3.282v-1.1h4.452v4.3a6.919,6.919,0,0,1-1.855,1.164,6.083,6.083,0,0,1-2.474.485" transform="translate(-245.734 -331.773)" fill="#fff"/>
  <path id="Path_2" data-name="Path 2" d="M246.977,369.283h12.909l54.352,56.243V369.283h8.667v64.035H309.99l-54.347-56.259v56.259h-8.666Zm183.479,40.41h8.136v5.04c0,10.082,2.474,12.215,13.621,12.215h30.95c10,0,14.151-1.683,14.151-9.908V369.283h8.663v46.074c0,14.776-6.365,18.665-22.1,18.665H451.594c-15.215,0-21.138-5.224-21.138-17.252Z" transform="translate(-246.977 -336.611)" fill="#fff"/>
  <path id="Path_3" data-name="Path 3" d="M370.678,376.354l31.461,56.963h9.82l-35.891-64.034H365.283L329.4,433.317h9.815Z" transform="translate(-241.085 -336.611)" fill="#fff"/>
  <path id="Path_4" data-name="Path 4" d="M426.167,474.941c0,3.337-.624,6.1-1.763,7.774a3.684,3.684,0,0,1-3.253,1.805c-2.011,0-4.6-1.2-7.305-3.392L392.687,464a34.228,34.228,0,0,0-41.364,0l-21.156,17.13c-2.7,2.188-5.3,3.392-7.308,3.392-4.656,0-5.017-7.331-5.017-9.579V455.522h-7.4v19.419c0,12.532,6.692,16.98,12.419,16.98,3.754,0,7.889-1.743,11.96-5.038l21.158-17.132a26.858,26.858,0,0,1,32.054,0l21.161,17.132c4.068,3.293,8.205,5.038,11.958,5.038h0a11.076,11.076,0,0,0,9.378-5.051c2.018-2.972,3.04-6.987,3.04-11.929V455.522h-7.4Z" transform="translate(-242.44 -330.446)" fill="#fff"/>
  <path id="Path_5" data-name="Path 5" d="M413.545,338.791a24.138,24.138,0,0,0-6.794,1.015c-11.687,3.441-27.6,6.349-34.747,6.349s-23.066-2.908-34.755-6.349a24.1,24.1,0,0,0-6.792-1.015c-11.188,0-19.4,8.618-19.963,20.667h7.4c.492-7.988,5.411-13.265,12.568-13.265a16.693,16.693,0,0,1,4.7.712c12.452,3.667,28.981,6.649,36.843,6.649s24.386-2.982,36.836-6.649a16.708,16.708,0,0,1,4.706-.712c7.55,0,12.619,5.863,12.619,14.593v39.345h7.4V360.785c0-12.744-8.419-21.994-20.021-21.994" transform="translate(-242.436 -338.791)" fill="#fff"/>
</svg>
