<svg xmlns="http://www.w3.org/2000/svg" width="108.304" height="67.523" viewBox="0 0 108.304 67.523">
  <g id="Logo" transform="translate(-246.977 -338.791)">
    <path id="Path_1" data-name="Path 1" d="M318.174,441.623a2.223,2.223,0,0,1-1.617-.673,2.261,2.261,0,0,1-.474-.738,2.416,2.416,0,0,1-.17-.909v-.013a2.394,2.394,0,0,1,.17-.9,2.318,2.318,0,0,1,.474-.745,2.2,2.2,0,0,1,.721-.5,2.267,2.267,0,0,1,.914-.184,2.765,2.765,0,0,1,.557.052,2.338,2.338,0,0,1,.461.145,2.106,2.106,0,0,1,.393.225,3.522,3.522,0,0,1,.347.293l-.347.373a2.877,2.877,0,0,0-.622-.444,1.838,1.838,0,0,0-1.489-.033,1.721,1.721,0,0,0-.553.393,1.838,1.838,0,0,0-.368.59,2,2,0,0,0-.131.726v.012a2.017,2.017,0,0,0,.131.731,1.833,1.833,0,0,0,.368.59,1.752,1.752,0,0,0,.553.4,1.664,1.664,0,0,0,.693.145,1.738,1.738,0,0,0,.8-.171,2.769,2.769,0,0,0,.658-.48l.334.328a3.142,3.142,0,0,1-.364.326,2.234,2.234,0,0,1-.409.248,2.284,2.284,0,0,1-.47.16,2.456,2.456,0,0,1-.561.058m4.625-4.587h3.26v.457h-2.751v1.553h2.461v.457h-2.461v1.585h2.783v.457H322.8Zm6.25,0h.477l2.842,3.614v-3.614h.5v4.509h-.406l-2.912-3.7v3.7h-.5Zm8.214.47H335.75v-.47h3.536v.47h-1.514v4.039h-.509Zm4.916-.47h3.26v.457h-2.751v1.553h2.461v.457h-2.461v1.585h2.783v.457h-3.293Zm6.249,0h1.939a2.169,2.169,0,0,1,.745.119,1.444,1.444,0,0,1,.538.332,1.142,1.142,0,0,1,.258.393,1.33,1.33,0,0,1,.091.5v.013a1.335,1.335,0,0,1-.091.5,1.153,1.153,0,0,1-.254.388,1.408,1.408,0,0,1-.389.27,1.923,1.923,0,0,1-.49.151l1.385,1.842h-.625l-1.307-1.751h-1.289v1.751h-.509Zm1.9,2.3a1.609,1.609,0,0,0,.465-.064,1.167,1.167,0,0,0,.369-.184.871.871,0,0,0,.242-.289.855.855,0,0,0,.086-.39V438.4a.781.781,0,0,0-.3-.654,1.36,1.36,0,0,0-.853-.235h-1.4v1.83Zm-84.449-1.83h-1.513v-.47H267.9v.47h-1.513v4.039h-.51Zm4.916-.47h1.94a2.17,2.17,0,0,1,.744.119,1.45,1.45,0,0,1,.538.332,1.16,1.16,0,0,1,.258.393,1.33,1.33,0,0,1,.09.5v.013a1.335,1.335,0,0,1-.09.5,1.16,1.16,0,0,1-.254.388,1.411,1.411,0,0,1-.39.27,1.918,1.918,0,0,1-.49.151l1.385,1.842H273.9l-1.307-1.751H271.3v1.751h-.51Zm1.9,2.3a1.613,1.613,0,0,0,.465-.064,1.167,1.167,0,0,0,.369-.184.87.87,0,0,0,.242-.289.849.849,0,0,0,.087-.39V438.4a.782.782,0,0,0-.3-.654,1.361,1.361,0,0,0-.853-.235H271.3v1.83ZM279.053,437h.476l2.056,4.542h-.548l-.529-1.191h-2.454l-.535,1.191H277Zm1.255,2.893-1.024-2.3-1.031,2.3Zm4.143-2.86h.509v4.509h-.509Zm3.762,0h.477l2.841,3.614v-3.614h.5v4.509h-.406l-2.912-3.7v3.7h-.5Zm7.068,0h.509v4.509h-.509Zm3.762,0h.477l2.841,3.614v-3.614h.5v4.509h-.406l-2.912-3.7v3.7h-.5Zm9.116,4.587a2.4,2.4,0,0,1-.957-.181,2.115,2.115,0,0,1-1.179-1.233,2.573,2.573,0,0,1-.157-.905v-.013a2.414,2.414,0,0,1,.164-.886,2.342,2.342,0,0,1,.461-.744,2.185,2.185,0,0,1,1.636-.7,3.135,3.135,0,0,1,.518.039,2.186,2.186,0,0,1,.439.116,2,2,0,0,1,.38.19,3.247,3.247,0,0,1,.345.254l-.329.387a2.283,2.283,0,0,0-.271-.209,1.851,1.851,0,0,0-.306-.161,1.919,1.919,0,0,0-.361-.107,2.275,2.275,0,0,0-.435-.039,1.61,1.61,0,0,0-.689.148,1.683,1.683,0,0,0-.541.4,1.835,1.835,0,0,0-.355.59,1.99,1.99,0,0,0-.129.712v.012a2.147,2.147,0,0,0,.125.748,1.766,1.766,0,0,0,.358.593,1.639,1.639,0,0,0,.56.393,1.878,1.878,0,0,0,.741.141,2.019,2.019,0,0,0,.729-.132,2.158,2.158,0,0,0,.573-.319v-1.121h-1.372v-.458h1.862v1.8a2.894,2.894,0,0,1-.776.487,2.544,2.544,0,0,1-1.035.2" transform="translate(-9.597 -54.182)" fill="#1d1d1b"/>
    <path id="Path_2" data-name="Path 2" d="M246.977,369.283h5.4L275.1,392.8V369.283h3.624V396.06h-5.4L250.6,372.535V396.06h-3.624Zm76.724,16.9h3.4v2.108c0,4.216,1.035,5.108,5.7,5.108h12.942c4.18,0,5.917-.7,5.917-4.143v-19.97h3.623v19.267c0,6.179-2.661,7.805-9.243,7.805h-13.5c-6.362,0-8.839-2.185-8.839-7.214Z" transform="translate(0 -16.83)" fill="#1d1d1b"/>
    <path id="Path_3" data-name="Path 3" d="M346.659,372.239l13.156,23.82h4.106l-15.008-26.777H344.4L329.4,396.059h4.1Z" transform="translate(-45.491 -16.829)" fill="#1d1d1b"/>
    <path id="Path_4" data-name="Path 4" d="M358.834,463.642a6.014,6.014,0,0,1-.737,3.251,1.541,1.541,0,0,1-1.36.755,5.369,5.369,0,0,1-3.055-1.419l-8.848-7.163a14.313,14.313,0,0,0-17.3,0l-8.846,7.163a5.373,5.373,0,0,1-3.056,1.419c-1.947,0-2.1-3.066-2.1-4.006v-8.12h-3.1v8.12c0,5.241,2.8,7.1,5.193,7.1a8.223,8.223,0,0,0,5-2.107l8.847-7.164a11.231,11.231,0,0,1,13.4,0l8.849,7.164a8.226,8.226,0,0,0,5,2.107h0a4.632,4.632,0,0,0,3.921-2.112,8.782,8.782,0,0,0,1.271-4.988v-8.12h-3.1Z" transform="translate(-35.028 -64.429)" fill="#7ac0d9"/>
    <path id="Path_5" data-name="Path 5" d="M353.585,338.791a10.093,10.093,0,0,0-2.841.424c-4.887,1.439-11.541,2.655-14.53,2.655s-9.645-1.216-14.533-2.655a10.079,10.079,0,0,0-2.84-.424c-4.679,0-8.11,3.6-8.348,8.642h3.092c.206-3.34,2.263-5.547,5.255-5.547a6.981,6.981,0,0,1,1.967.3c5.207,1.533,12.119,2.78,15.406,2.78s10.2-1.247,15.4-2.78a6.987,6.987,0,0,1,1.968-.3c3.157,0,5.277,2.452,5.277,6.1v16.453h3.1V347.988c0-5.329-3.52-9.2-8.372-9.2" transform="translate(-35.057 0)" fill="#7ac0d9"/>
  </g>
</svg>
