<svg id="Group_6348" data-name="Group 6348" xmlns="http://www.w3.org/2000/svg" width="19.07" height="19.066" viewBox="0 0 19.07 19.066">
  <path id="Path_12050" data-name="Path 12050" d="M1132.491,163.982a3.247,3.247,0,0,1-.434-.307q-2.348-2.3-4.687-4.606c-.039-.039-.08-.075-.128-.12-.054.037-.106.069-.154.105a8.066,8.066,0,0,1-12.527-3.815,7.124,7.124,0,0,1-.357-1.763.946.946,0,0,0-.032-.142v-1.042c.048-.317.086-.636.146-.952a7.478,7.478,0,0,1,1.363-3.122,8.089,8.089,0,0,1,11.617-1.478,7.757,7.757,0,0,1,1.552,10.443c-.216.316-.461.612-.725.96a1.018,1.018,0,0,1,.16.109q2.35,2.308,4.7,4.619c.274.27.344.56.157.81a1.786,1.786,0,0,1-.386.3Zm-17.085-11.405a6.933,6.933,0,0,0,.545,2.852,6.635,6.635,0,0,0,5.466,4.005,6.723,6.723,0,0,0,7.484-7.5,6.3,6.3,0,0,0-3.486-4.977,6.561,6.561,0,0,0-6.758.181A6.407,6.407,0,0,0,1115.406,152.577Z" transform="translate(-1114.172 -144.916)" fill="#fff"/>
</svg>
